<svg xmlns="http://www.w3.org/2000/svg" xmlns:xlink="http://www.w3.org/1999/xlink" xmlns:lucid="lucid" width="1760" height="1360"><g transform="translate(0 0)" lucid:page-tab-id="IgZXAkel590l"><path d="M0 0h1760v1360H0z" fill="#fff"/><path d="M720 598h360v76.8H720zM720 674.8h120v41.06H720zM840 674.8h120v41.06H840zM960 674.8h120v41.06H960zM720 715.86h120v41.07H720zM840 715.86h120v41.07H840zM960 715.86h120v41.07H960z" fill="#fff"/><path d="M720 756.93h120V798H720zM840 756.93h120V798H840zM960 756.93h120V798H960zM720 798h120v41.07H720zM840 798h120v41.07H840zM960 798h120v41.07H960zM720 839.07h120v41.07H720zM840 839.07h120v41.07H840zM960 839.07h120v41.07H960z" fill="#fff"/><path d="M720 880.14h120v41.06H720zM840 880.14h120v41.06H840zM960 880.14h120v41.06H960zM720 921.2h120v41.07H720zM840 921.2h120v41.07H840zM960 921.2h120v41.07H960z" fill="#fff"/><path d="M720 598v76.8M1080 598v76.8M720 674.8v41.06M840 674.8v41.06M960 674.8v41.06M1080 674.8v41.06M720 715.86v41.07M840 715.86v41.07M960 715.86v41.07M1080 715.86v41.07M720 756.93V798M840 756.93V798M960 756.93V798M1080 756.93V798M720 798v41.07M840 798v41.07M960 798v41.07M1080 798v41.07M720 839.07v41.07M840 839.07v41.07M960 839.07v41.07M1080 839.07v41.07M720 880.14v41.06M840 880.14v41.06M960 880.14v41.06M1080 880.14v41.06M720 921.2v41.07M840 921.2v41.07M960 921.2v41.07M1080 921.2v41.07M720 598h360M720 674.8h120M840 674.8h120M960 674.8h120M720 715.86h120M840 715.86h120M960 715.86h120M720 756.93h120M840 756.93h120M960 756.93h120M720 798h120M840 798h120M960 798h120M720 839.07h120M840 839.07h120M960 839.07h120M720 880.14h120M840 880.14h120M960 880.14h120M720 921.2h120M720 962.27h120M840 921.2h120M840 962.27h120M960 921.2h120M960 962.27h120" stroke="#000" fill="none"/><use xlink:href="#a" transform="matrix(1,0,0,1,725,603.0000000000002) translate(34.611111111111086 39.72222222222222)"/><use xlink:href="#b" transform="matrix(1,0,0,1,725,603.0000000000002) translate(191.6358024691358 39.72222222222222)"/><use xlink:href="#c" transform="matrix(1,0,0,1,725,679.7967145790557) translate(9.969135802469133 20.444444444444443)"/><use xlink:href="#d" transform="matrix(1,0,0,1,845,720.8644763860373) translate(19.2283950617284 20.444444444444443)"/><use xlink:href="#e" transform="matrix(1,0,0,1,965,761.9322381930187) translate(11.820987654320987 20.444444444444443)"/><use xlink:href="#e" transform="matrix(1,0,0,1,965,803.0000000000002) translate(11.820987654320987 20.444444444444443)"/><use xlink:href="#f" transform="matrix(1,0,0,1,845,844.0677618069818) translate(16.75925925925926 20.444444444444443)"/><use xlink:href="#e" transform="matrix(1,0,0,1,965,885.1355236139634) translate(11.820987654320987 20.444444444444443)"/><use xlink:href="#e" transform="matrix(1,0,0,1,965,926.2032854209449) translate(11.820987654320987 20.444444444444443)"/><path d="M20 158h237.27v366.14H20z" fill="none"/><path d="M257.27 524.14c-12.64 0-22.88-10.25-22.88-22.9v-137.3c0-12.63-10.26-22.87-22.9-22.87 12.64 0 22.9-10.25 22.9-22.9v-137.3c0-12.62 10.23-22.87 22.87-22.87" stroke="#000" stroke-width="2" fill="none"/><use xlink:href="#g" transform="matrix(1,0,0,1,24.999999999999986,162.99999999999997) translate(29.419753086419753 184.7222222222222)"/><path d="M17 1118h240v242H17z" fill="none"/><path d="M257 1360c-8.35 0-15.13-6.77-15.13-15.13v-90.74c0-8.36-6.77-15.13-15.12-15.13 8.35 0 15.13-6.77 15.13-15.13v-90.74c0-8.36 6.77-15.13 15.12-15.13" stroke="#000" stroke-width="2" fill="none"/><use xlink:href="#h" transform="matrix(1,0,0,1,22,1123) translate(37.23456790123456 122.72222222222223)"/><path d="M791.6 0h263.96v42H791.6zM791.6 42h263.96v40H791.6zM791.6 82h263.96v40H791.6zM791.6 122h263.96v40H791.6zM791.6 162h263.96v40H791.6z" fill="#fff"/><path d="M791.6 0v42M1055.56 0v42M791.6 42v40M1055.56 42v40M791.6 82v40M1055.56 82v40M791.6 122v40M1055.56 122v40M791.6 162v40M1055.56 162v40M791.6 0h263.96M791.6 42h263.96M791.6 82h263.96M791.6 122h263.96M791.6 162h263.96M791.6 202h263.96" stroke="#000" fill="none"/><use xlink:href="#i" transform="matrix(1,0,0,1,796.5909090909092,5) translate(55.33333333333333 21.333333333333336)"/><use xlink:href="#j" transform="matrix(1,0,0,1,796.5909090909092,47) translate(0 17.77777777777778)"/><use xlink:href="#k" transform="matrix(1,0,0,1,796.5909090909092,87) translate(65.39506172839506 19.444444444444443)"/><use xlink:href="#l" transform="matrix(1,0,0,1,796.5909090909092,87) translate(152.80246913580245 19.444444444444443)"/><use xlink:href="#m" transform="matrix(1,0,0,1,796.5909090909092,127) translate(72.12345679012347 19.444444444444443)"/><use xlink:href="#l" transform="matrix(1,0,0,1,796.5909090909092,127) translate(146.07407407407408 19.444444444444443)"/><use xlink:href="#n" transform="matrix(1,0,0,1,796.5909090909092,167) translate(39.12962962962965 19.444444444444443)"/><use xlink:href="#l" transform="matrix(1,0,0,1,796.5909090909092,167) translate(179.0679012345679 19.444444444444443)"/><path d="M316.6 158h355.9v76.8H316.6zM316.6 234.8h355.9v42H316.6zM316.6 276.8h118.63v41.06H316.6zM435.23 276.8h118.63v41.06H435.23zM553.86 276.8H672.5v41.06H553.86zM316.6 317.86h118.63v41.07H316.6zM435.23 317.86h118.63v41.07H435.23zM553.86 317.86H672.5v41.07H553.86zM316.6 358.93h118.63V400H316.6zM435.23 358.93h118.63V400H435.23zM553.86 358.93H672.5V400H553.86zM316.6 400h355.9v42H316.6zM316.6 442h118.63v41.07H316.6zM435.23 442h118.63v41.07H435.23zM553.86 442H672.5v41.07H553.86zM316.6 483.07h118.63v41.07H316.6zM435.23 483.07h118.63v41.07H435.23zM553.86 483.07H672.5v41.07H553.86z" fill="#fff"/><path d="M316.6 158v76.8M672.5 158v76.8M316.6 234.8v42M672.5 234.8v42M316.6 276.8v41.06M435.23 276.8v41.06M553.86 276.8v41.06M672.5 276.8v41.06M316.6 317.86v41.07M435.23 317.86v41.07M553.86 317.86v41.07M672.5 317.86v41.07M316.6 358.93V400M435.23 358.93V400M553.86 358.93V400M672.5 358.93V400M316.6 400v42M672.5 400v42M316.6 442v41.07M435.23 442v41.07M553.86 442v41.07M672.5 442v41.07M316.6 483.07v41.07M435.23 483.07v41.07M553.86 483.07v41.07M672.5 483.07v41.07M316.6 158h355.9M316.6 234.8h355.9M316.6 276.8h118.63M435.23 276.8h118.63M553.86 276.8H672.5M316.6 317.86h118.63M435.23 317.86h118.63M553.86 317.86H672.5M316.6 358.93h118.63M435.23 358.93h118.63M553.86 358.93H672.5M316.6 400h355.9M316.6 442h118.63M435.23 442h118.63M553.86 442H672.5M316.6 483.07h118.63M316.6 524.14h118.63M435.23 483.07h118.63M435.23 524.14h118.63M553.86 483.07H672.5M553.86 524.14H672.5" stroke="#000" fill="none"/><use xlink:href="#o" transform="matrix(1,0,0,1,321.59090909090895,162.99999999999997) translate(49.85185185185185 39.72222222222222)"/><use xlink:href="#b" transform="matrix(1,0,0,1,321.59090909090895,162.99999999999997) translate(172.39506172839506 39.72222222222222)"/><use xlink:href="#p" transform="matrix(1,0,0,1,321.59090909090895,239.79671457905545) translate(45.074074074074076 21.333333333333336)"/><use xlink:href="#q" transform="matrix(1,0,0,1,321.59090909090895,239.79671457905545) translate(190.11111111111111 21.333333333333336)"/><use xlink:href="#c" transform="matrix(1,0,0,1,321.59090909090895,281.79671457905545) translate(9.469135802469133 20.444444444444443)"/><use xlink:href="#r" transform="matrix(1,0,0,1,440.22727272727263,322.8644763860369) translate(19.376543209876544 20.444444444444443)"/><use xlink:href="#s" transform="matrix(1,0,0,1,558.8636363636363,363.9322381930185) translate(15.611111111111114 20.444444444444443)"/><use xlink:href="#t" transform="matrix(1,0,0,1,321.59090909090895,405) translate(49.51851851851852 21.333333333333336)"/><use xlink:href="#q" transform="matrix(1,0,0,1,321.59090909090895,405) translate(185.66666666666669 21.333333333333336)"/><use xlink:href="#u" transform="matrix(1,0,0,1,321.59090909090895,447) translate(3.9135802469135754 20.444444444444443)"/><use xlink:href="#v" transform="matrix(1,0,0,1,440.22727272727263,488.0677618069816) translate(13.172839506172835 20.444444444444443)"/><path d="M791.1 105h-59.05v286.78h-40.8" stroke="#000" stroke-width="2" fill="none"/><path d="M791.6 106h-.5v-2h.5zM690.5 396.4l-14.26-4.62 14.26-4.64z"/><path d="M691.5 397.8l-18.5-6.02 18.5-6zm-12.03-6.02l10.03 3.26v-6.52z"/><path d="M1147.05 157.53h355.9v76.8h-355.9z" fill="#fff"/><path d="M1147.05 234.32h355.9v42h-355.9zM1147.05 276.32h118.63v41.07h-118.63zM1265.68 276.32h118.64v41.07h-118.64z" fill="#fff"/><path d="M1384.32 276.32h118.63v41.07h-118.63zM1147.05 317.4h118.63v41.06h-118.63zM1265.68 317.4h118.64v41.06h-118.64z" fill="#fff"/><path d="M1384.32 317.4h118.63v41.06h-118.63zM1147.05 358.46h118.63v41.07h-118.63zM1265.68 358.46h118.64v41.07h-118.64z" fill="#fff"/><path d="M1384.32 358.46h118.63v41.07h-118.63zM1147.05 399.53h355.9v42h-355.9zM1147.05 441.53h118.63v41.06h-118.63zM1265.68 441.53h118.64v41.06h-118.64z" fill="#fff"/><path d="M1384.32 441.53h118.63v41.06h-118.63zM1147.05 482.6h118.63v41.06h-118.63zM1265.68 482.6h118.64v41.06h-118.64z" fill="#fff"/><path d="M1384.32 482.6h118.63v41.06h-118.63z" fill="#fff"/><path d="M1147.05 157.53v76.8M1502.95 157.53v76.8M1147.05 234.32v42M1502.95 234.32v42M1147.05 276.32v41.07M1265.68 276.32v41.07M1384.32 276.32v41.07M1502.95 276.32v41.07M1147.05 317.4v41.06M1265.68 317.4v41.06M1384.32 317.4v41.06M1502.95 317.4v41.06M1147.05 358.46v41.07M1265.68 358.46v41.07M1384.32 358.46v41.07M1502.95 358.46v41.07M1147.05 399.53v42M1502.95 399.53v42M1147.05 441.53v41.06M1265.68 441.53v41.06M1384.32 441.53v41.06M1502.95 441.53v41.06M1147.05 482.6v41.06M1265.68 482.6v41.06M1384.32 482.6v41.06M1502.95 482.6v41.06M1147.05 157.53h355.9M1147.05 234.32h355.9M1147.05 276.32h118.63M1265.68 276.32h118.64M1384.32 276.32h118.63M1147.05 317.4h118.63M1265.68 317.4h118.64M1384.32 317.4h118.63M1147.05 358.46h118.63M1265.68 358.46h118.64M1384.32 358.46h118.63M1147.05 399.53h355.9M1147.05 441.53h118.63M1265.68 441.53h118.64M1384.32 441.53h118.63M1147.05 482.6h118.63M1147.05 523.66h118.63M1265.68 482.6h118.64M1265.68 523.66h118.64M1384.32 482.6h118.63M1384.32 523.66h118.63" stroke="#000" fill="none"/><use xlink:href="#o" transform="matrix(1,0,0,1,1152.0454545454545,162.52566735112927) translate(49.85185185185185 39.72222222222222)"/><use xlink:href="#b" transform="matrix(1,0,0,1,1152.0454545454545,162.52566735112927) translate(172.39506172839506 39.72222222222222)"/><use xlink:href="#p" transform="matrix(1,0,0,1,1152.0454545454545,239.32238193018475) translate(45.074074074074076 21.333333333333336)"/><use xlink:href="#q" transform="matrix(1,0,0,1,1152.0454545454545,239.32238193018475) translate(190.11111111111111 21.333333333333336)"/><use xlink:href="#c" transform="matrix(1,0,0,1,1152.0454545454545,281.32238193018475) translate(9.469135802469133 20.444444444444443)"/><use xlink:href="#r" transform="matrix(1,0,0,1,1270.6818181818182,322.3901437371662) translate(19.376543209876544 20.444444444444443)"/><use xlink:href="#s" transform="matrix(1,0,0,1,1389.3181818181818,363.4579055441478) translate(15.611111111111114 20.444444444444443)"/><use xlink:href="#t" transform="matrix(1,0,0,1,1152.0454545454545,404.5256673511293) translate(49.51851851851852 21.333333333333336)"/><use xlink:href="#q" transform="matrix(1,0,0,1,1152.0454545454545,404.5256673511293) translate(185.66666666666669 21.333333333333336)"/><use xlink:href="#u" transform="matrix(1,0,0,1,1152.0454545454545,446.5256673511293) translate(3.9135802469135754 20.444444444444443)"/><use xlink:href="#v" transform="matrix(1,0,0,1,1270.6818181818182,487.5934291581109) translate(13.172839506172835 20.444444444444443)"/><path d="M1056.06 101h45.24v287.28h27" stroke="#000" stroke-width="2" fill="none"/><path d="M1056.06 102h-.5v-2h.5zM1143.3 388.28l-14.26 4.63v-9.26z"/><path d="M1146.55 388.28l-18.5 6v-12zm-16.5 3.26l10.02-3.26-10.03-3.26z"/><path d="M494.55 524.64V777h206.7" stroke="#000" stroke-width="2" fill="none"/><path d="M495.55 524.64h-2v-.5h2zM716.26 777L702 781.64v-9.28z"/><path d="M719.5 777l-18.5 6v-12zm-16.5 3.26l10.03-3.26-10.03-3.26z"/><path d="M1325 524.16V819h-226.26" stroke="#000" stroke-width="2" fill="none"/><path d="M1326 524.16h-2v-.5h2zM1098 823.64l-14.26-4.64 14.26-4.64z"/><path d="M1099 825l-18.5-6 18.5-6zm-12.03-6l10.03 3.26v-6.52z"/><path d="M360 1118h387v76.8H360zM360 1194.8h387v42H360zM360 1236.8h129v41.06H360zM489 1236.8h129v41.06H489zM618 1236.8h129v41.06H618zM360 1277.86h129v41.07H360zM489 1277.86h129v41.07H489zM618 1277.86h129v41.07H618zM360 1318.93h129V1360H360zM489 1318.93h129V1360H489zM618 1318.93h129V1360H618z" fill="#fff"/><path d="M360 1118v76.8M747 1118v76.8M360 1194.8v42M747 1194.8v42M360 1236.8v41.06M489 1236.8v41.06M618 1236.8v41.06M747 1236.8v41.06M360 1277.86v41.07M489 1277.86v41.07M618 1277.86v41.07M747 1277.86v41.07M360 1318.93V1360M489 1318.93V1360M618 1318.93V1360M747 1318.93V1360M360 1118h387M360 1194.8h387M360 1236.8h129M489 1236.8h129M618 1236.8h129M360 1277.86h129M489 1277.86h129M618 1277.86h129M360 1318.93h129M360 1360h129M489 1318.93h129M489 1360h129M618 1318.93h129M618 1360h129" stroke="#000" fill="none"/><use xlink:href="#o" transform="matrix(1,0,0,1,365,1123) translate(6.672839506172835 39.72222222222222)"/><use xlink:href="#w" transform="matrix(1,0,0,1,365,1123) translate(129.21604938271605 39.72222222222222)"/><use xlink:href="#p" transform="matrix(1,0,0,1,365,1199.7967145790556) translate(60.574074074074076 21.333333333333336)"/><use xlink:href="#q" transform="matrix(1,0,0,1,365,1199.7967145790556) translate(205.61111111111111 21.333333333333336)"/><use xlink:href="#c" transform="matrix(1,0,0,1,365,1241.7967145790556) translate(14.469135802469133 20.444444444444443)"/><use xlink:href="#r" transform="matrix(1,0,0,1,494,1282.864476386037) translate(24.376543209876544 20.444444444444443)"/><use xlink:href="#s" transform="matrix(1,0,0,1,623,1323.9322381930185) translate(20.611111111111114 20.444444444444443)"/><path d="M1080 1118h382v76.8h-382zM1080 1194.8h382v42h-382zM1080 1236.8h120v41.06h-120zM1200 1236.8h120v41.06h-120zM1320 1236.8h142v41.06h-142zM1080 1277.86h120v41.07h-120zM1200 1277.86h120v41.07h-120zM1320 1277.86h142v41.07h-142zM1080 1318.93h120V1360h-120zM1200 1318.93h120V1360h-120zM1320 1318.93h142V1360h-142z" fill="#fff"/><path d="M1080 1118v76.8M1462 1118v76.8M1080 1194.8v42M1462 1194.8v42M1080 1236.8v41.06M1200 1236.8v41.06M1320 1236.8v41.06M1462 1236.8v41.06M1080 1277.86v41.07M1200 1277.86v41.07M1320 1277.86v41.07M1462 1277.86v41.07M1080 1318.93V1360M1200 1318.93V1360M1320 1318.93V1360M1462 1318.93V1360M1080 1118h382M1080 1194.8h382M1080 1236.8h120M1200 1236.8h120M1320 1236.8h142M1080 1277.86h120M1200 1277.86h120M1320 1277.86h142M1080 1318.93h120M1080 1360h120M1200 1318.93h120M1200 1360h120M1320 1318.93h142M1320 1360h142" stroke="#000" fill="none"/><use xlink:href="#o" transform="matrix(1,0,0,1,1085,1123) translate(4.172839506172835 39.72222222222222)"/><use xlink:href="#w" transform="matrix(1,0,0,1,1085,1123) translate(126.71604938271605 39.72222222222222)"/><use xlink:href="#p" transform="matrix(1,0,0,1,1085,1199.7967145790556) translate(58.074074074074076 21.333333333333336)"/><use xlink:href="#q" transform="matrix(1,0,0,1,1085,1199.7967145790556) translate(203.11111111111111 21.333333333333336)"/><use xlink:href="#c" transform="matrix(1,0,0,1,1085,1241.7967145790556) translate(9.969135802469133 20.444444444444443)"/><use xlink:href="#r" transform="matrix(1,0,0,1,1205,1282.864476386037) translate(19.876543209876544 20.444444444444443)"/><use xlink:href="#s" transform="matrix(1,0,0,1,1325,1323.9322381930185) translate(27.111111111111114 20.444444444444443)"/><path d="M1271 1117.5V941h-172.26" stroke="#000" stroke-width="2" fill="none"/><path d="M1272 1118h-2v-.5h2zM1098 945.64l-14.26-4.64 14.26-4.64z"/><path d="M1099 947l-18.5-6 18.5-6zm-12.03-6l10.03 3.26v-6.52z"/><path d="M553.5 1117.5V903h147.76" stroke="#000" stroke-width="2" fill="none"/><path d="M554.5 1118h-2v-.5h2zM716.26 903L702 907.64v-9.28z"/><path d="M719.5 903l-18.5 6v-12zm-16.5 3.26l10.03-3.26-10.03-3.26z"/><path d="M1542.5 158H1760v366.14h-217.5z" fill="none"/><path d="M1542.5 524.14c12.64 0 22.88-10.25 22.88-22.9v-137.3c0-12.63 10.25-22.87 22.9-22.87-12.65 0-22.9-10.25-22.9-22.9v-137.3c0-12.62-10.24-22.87-22.88-22.87" stroke="#000" stroke-width="2" fill="none"/><g><use xlink:href="#x" transform="matrix(1,0,0,1,1616.150410677618,163.00000000000003) translate(14.722222222222221 151.83333333333334)"/><use xlink:href="#y" transform="matrix(1,0,0,1,1616.150410677618,163.00000000000003) translate(9.574074074074083 183.83333333333334)"/><use xlink:href="#z" transform="matrix(1,0,0,1,1616.150410677618,163.00000000000003) translate(5.092592592592595 215.83333333333334)"/></g><path d="M1520 598h220v762h-220z" fill="none"/><path d="M1520 1360c26.3 0 47.63-21.32 47.63-47.63v-285.74c0-26.3 21.32-47.63 47.62-47.63-26.3 0-47.63-21.32-47.63-47.63V645.63c0-26.3-21.32-47.62-47.62-47.62" stroke="#000" stroke-width="2" fill="none"/><g><use xlink:href="#A" transform="matrix(1,0,0,1,1667.875,603) translate(5.925925925925924 349.3333333333333)"/><use xlink:href="#B" transform="matrix(1,0,0,1,1667.875,603) translate(-10.370370370370381 381.3333333333333)"/><use xlink:href="#C" transform="matrix(1,0,0,1,1667.875,603) translate(-12.592592592592595 413.3333333333333)"/></g><defs><path d="M212-179c-10-28-35-45-73-45-59 0-87 40-87 99 0 60 29 101 89 101 43 0 62-24 78-52l27 14C228-24 195 4 139 4 59 4 22-46 18-125c-6-104 99-153 187-111 19 9 31 26 39 46" id="D"/><path d="M100-194c62-1 85 37 85 99 1 63-27 99-86 99S16-35 15-95c0-66 28-99 85-99zM99-20c44 1 53-31 53-75 0-43-8-75-51-75s-53 32-53 75 10 74 51 75" id="E"/><path d="M210-169c-67 3-38 105-44 169h-31v-121c0-29-5-50-35-48C34-165 62-65 56 0H25l-1-190h30c1 10-1 24 2 32 10-44 99-50 107 0 11-21 27-35 58-36 85-2 47 119 55 194h-31v-121c0-29-5-49-35-48" id="F"/><path d="M115-194c55 1 70 41 70 98S169 2 115 4C84 4 66-9 55-30l1 105H24l-1-265h31l2 30c10-21 28-34 59-34zm-8 174c40 0 45-34 45-75s-6-73-45-74c-42 0-51 32-51 76 0 43 10 73 51 73" id="G"/><path d="M135-143c-3-34-86-38-87 0 15 53 115 12 119 90S17 21 10-45l28-5c4 36 97 45 98 0-10-56-113-15-118-90-4-57 82-63 122-42 12 7 21 19 24 35" id="H"/><path d="M24-231v-30h32v30H24zM24 0v-190h32V0H24" id="I"/><path d="M59-47c-2 24 18 29 38 22v24C64 9 27 4 27-40v-127H5v-23h24l9-43h21v43h35v23H59v120" id="J"/><path d="M100-194c63 0 86 42 84 106H49c0 40 14 67 53 68 26 1 43-12 49-29l28 8c-11 28-37 45-77 45C44 4 14-33 15-96c1-61 26-98 85-98zm52 81c6-60-76-77-97-28-3 7-6 17-6 28h103" id="K"/><g id="a"><use transform="matrix(0.08641975308641976,0,0,0.08641975308641976,0,0)" xlink:href="#D"/><use transform="matrix(0.08641975308641976,0,0,0.08641975308641976,22.38271604938272,0)" xlink:href="#E"/><use transform="matrix(0.08641975308641976,0,0,0.08641975308641976,39.66666666666667,0)" xlink:href="#F"/><use transform="matrix(0.08641975308641976,0,0,0.08641975308641976,65.50617283950618,0)" xlink:href="#G"/><use transform="matrix(0.08641975308641976,0,0,0.08641975308641976,82.79012345679013,0)" xlink:href="#E"/><use transform="matrix(0.08641975308641976,0,0,0.08641975308641976,100.07407407407409,0)" xlink:href="#H"/><use transform="matrix(0.08641975308641976,0,0,0.08641975308641976,115.62962962962965,0)" xlink:href="#I"/><use transform="matrix(0.08641975308641976,0,0,0.08641975308641976,122.4567901234568,0)" xlink:href="#J"/><use transform="matrix(0.08641975308641976,0,0,0.08641975308641976,131.0987654320988,0)" xlink:href="#K"/></g><path d="M137 0h-34L2-248h35l83 218 83-218h36" id="L"/><path d="M141-36C126-15 110 5 73 4 37 3 15-17 15-53c-1-64 63-63 125-63 3-35-9-54-41-54-24 1-41 7-42 31l-33-3c5-37 33-52 76-52 45 0 72 20 72 64v82c-1 20 7 32 28 27v20c-31 9-61-2-59-35zM48-53c0 20 12 33 32 33 41-3 63-29 60-74-43 2-92-5-92 41" id="M"/><path d="M24 0v-261h32V0H24" id="N"/><path d="M84 4C-5 8 30-112 23-190h32v120c0 31 7 50 39 49 72-2 45-101 50-169h31l1 190h-30c-1-10 1-25-2-33-11 22-28 36-60 37" id="O"/><path d="M185-189c-5-48-123-54-124 2 14 75 158 14 163 119 3 78-121 87-175 55-17-10-28-26-33-46l33-7c5 56 141 63 141-1 0-78-155-14-162-118-5-82 145-84 179-34 5 7 8 16 11 25" id="P"/><g id="b"><use transform="matrix(0.08641975308641976,0,0,0.08641975308641976,0,0)" xlink:href="#L"/><use transform="matrix(0.08641975308641976,0,0,0.08641975308641976,18.407407407407412,0)" xlink:href="#M"/><use transform="matrix(0.08641975308641976,0,0,0.08641975308641976,35.69135802469137,0)" xlink:href="#N"/><use transform="matrix(0.08641975308641976,0,0,0.08641975308641976,42.51851851851853,0)" xlink:href="#O"/><use transform="matrix(0.08641975308641976,0,0,0.08641975308641976,59.80246913580248,0)" xlink:href="#K"/><use transform="matrix(0.08641975308641976,0,0,0.08641975308641976,77.08641975308643,0)" xlink:href="#P"/><use transform="matrix(0.08641975308641976,0,0,0.08641975308641976,97.82716049382717,0)" xlink:href="#K"/><use transform="matrix(0.08641975308641976,0,0,0.08641975308641976,115.11111111111113,0)" xlink:href="#J"/></g><path d="M96-169c-40 0-48 33-48 73s9 75 48 75c24 0 41-14 43-38l32 2c-6 37-31 61-74 61-59 0-76-41-82-99-10-93 101-131 147-64 4 7 5 14 7 22l-32 3c-4-21-16-35-41-35" id="Q"/><g id="c"><use transform="matrix(0.06172839506172839,0,0,0.06172839506172839,0,0)" xlink:href="#Q"/><use transform="matrix(0.06172839506172839,0,0,0.06172839506172839,11.11111111111111,0)" xlink:href="#E"/><use transform="matrix(0.06172839506172839,0,0,0.06172839506172839,23.45679012345679,0)" xlink:href="#F"/><use transform="matrix(0.06172839506172839,0,0,0.06172839506172839,41.91358024691358,0)" xlink:href="#G"/><use transform="matrix(0.06172839506172839,0,0,0.06172839506172839,54.25925925925926,0)" xlink:href="#E"/><use transform="matrix(0.06172839506172839,0,0,0.06172839506172839,66.60493827160494,0)" xlink:href="#H"/><use transform="matrix(0.06172839506172839,0,0,0.06172839506172839,77.71604938271605,0)" xlink:href="#K"/></g><path d="M33 0v-248h34V0H33" id="R"/><path d="M117-194c89-4 53 116 60 194h-32v-121c0-31-8-49-39-48C34-167 62-67 57 0H25l-1-190h30c1 10-1 24 2 32 11-22 29-35 61-36" id="S"/><path d="M85-194c31 0 48 13 60 33l-1-100h32l1 261h-30c-2-10 0-23-3-31C134-8 116 4 85 4 32 4 16-35 15-94c0-66 23-100 70-100zm9 24c-40 0-46 34-46 75 0 40 6 74 45 74 42 0 51-32 51-76 0-42-9-74-50-73" id="T"/><g id="d"><use transform="matrix(0.06172839506172839,0,0,0.06172839506172839,0,0)" xlink:href="#R"/><use transform="matrix(0.06172839506172839,0,0,0.06172839506172839,6.172839506172839,0)" xlink:href="#S"/><use transform="matrix(0.06172839506172839,0,0,0.06172839506172839,18.51851851851852,0)" xlink:href="#Q"/><use transform="matrix(0.06172839506172839,0,0,0.06172839506172839,29.62962962962963,0)" xlink:href="#N"/><use transform="matrix(0.06172839506172839,0,0,0.06172839506172839,34.50617283950617,0)" xlink:href="#O"/><use transform="matrix(0.06172839506172839,0,0,0.06172839506172839,46.85185185185185,0)" xlink:href="#T"/><use transform="matrix(0.06172839506172839,0,0,0.06172839506172839,59.197530864197525,0)" xlink:href="#K"/></g><path d="M108 0H70L1-190h34L89-25l56-165h34" id="U"/><g id="e"><use transform="matrix(0.06172839506172839,0,0,0.06172839506172839,0,0)" xlink:href="#U"/><use transform="matrix(0.06172839506172839,0,0,0.06172839506172839,11.11111111111111,0)" xlink:href="#M"/><use transform="matrix(0.06172839506172839,0,0,0.06172839506172839,23.45679012345679,0)" xlink:href="#N"/><use transform="matrix(0.06172839506172839,0,0,0.06172839506172839,28.333333333333336,0)" xlink:href="#O"/><use transform="matrix(0.06172839506172839,0,0,0.06172839506172839,40.67901234567901,0)" xlink:href="#K"/><use transform="matrix(0.06172839506172839,0,0,0.06172839506172839,53.02469135802469,0)" xlink:href="#P"/><use transform="matrix(0.06172839506172839,0,0,0.06172839506172839,67.8395061728395,0)" xlink:href="#K"/><use transform="matrix(0.06172839506172839,0,0,0.06172839506172839,80.18518518518519,0)" xlink:href="#J"/></g><path d="M141 0L90-78 38 0H4l68-98-65-92h35l48 74 47-74h35l-64 92 68 98h-35" id="V"/><g id="f"><use transform="matrix(0.06172839506172839,0,0,0.06172839506172839,0,0)" xlink:href="#K"/><use transform="matrix(0.06172839506172839,0,0,0.06172839506172839,12.345679012345679,0)" xlink:href="#V"/><use transform="matrix(0.06172839506172839,0,0,0.06172839506172839,23.45679012345679,0)" xlink:href="#Q"/><use transform="matrix(0.06172839506172839,0,0,0.06172839506172839,34.5679012345679,0)" xlink:href="#N"/><use transform="matrix(0.06172839506172839,0,0,0.06172839506172839,39.44444444444444,0)" xlink:href="#O"/><use transform="matrix(0.06172839506172839,0,0,0.06172839506172839,51.79012345679012,0)" xlink:href="#T"/><use transform="matrix(0.06172839506172839,0,0,0.06172839506172839,64.1358024691358,0)" xlink:href="#K"/></g><g id="g"><use transform="matrix(0.08641975308641976,0,0,0.08641975308641976,0,0)" xlink:href="#R"/><use transform="matrix(0.08641975308641976,0,0,0.08641975308641976,8.641975308641976,0)" xlink:href="#S"/><use transform="matrix(0.08641975308641976,0,0,0.08641975308641976,25.925925925925927,0)" xlink:href="#Q"/><use transform="matrix(0.08641975308641976,0,0,0.08641975308641976,41.48148148148149,0)" xlink:href="#N"/><use transform="matrix(0.08641975308641976,0,0,0.08641975308641976,48.308641975308646,0)" xlink:href="#O"/><use transform="matrix(0.08641975308641976,0,0,0.08641975308641976,65.5925925925926,0)" xlink:href="#T"/><use transform="matrix(0.08641975308641976,0,0,0.08641975308641976,82.87654320987654,0)" xlink:href="#K"/></g><path d="M30 0v-248h187v28H63v79h144v27H63v87h162V0H30" id="W"/><g id="h"><use transform="matrix(0.08641975308641976,0,0,0.08641975308641976,0,0)" xlink:href="#W"/><use transform="matrix(0.08641975308641976,0,0,0.08641975308641976,20.740740740740744,0)" xlink:href="#V"/><use transform="matrix(0.08641975308641976,0,0,0.08641975308641976,36.296296296296305,0)" xlink:href="#Q"/><use transform="matrix(0.08641975308641976,0,0,0.08641975308641976,51.851851851851855,0)" xlink:href="#N"/><use transform="matrix(0.08641975308641976,0,0,0.08641975308641976,58.67901234567903,0)" xlink:href="#O"/><use transform="matrix(0.08641975308641976,0,0,0.08641975308641976,75.96296296296298,0)" xlink:href="#T"/><use transform="matrix(0.08641975308641976,0,0,0.08641975308641976,93.24691358024693,0)" xlink:href="#K"/></g><path d="M127-220V0H93v-220H8v-28h204v28h-85" id="X"/><path d="M114-163C36-179 61-72 57 0H25l-1-190h30c1 12-1 29 2 39 6-27 23-49 58-41v29" id="Y"/><path d="M177-190C167-65 218 103 67 71c-23-6-38-20-44-43l32-5c15 47 100 32 89-28v-30C133-14 115 1 83 1 29 1 15-40 15-95c0-56 16-97 71-98 29-1 48 16 59 35 1-10 0-23 2-32h30zM94-22c36 0 50-32 50-73 0-42-14-75-50-75-39 0-46 34-46 75s6 73 46 73" id="Z"/><path d="M179-190L93 31C79 59 56 82 12 73V49c39 6 53-20 64-50L1-190h34L92-34l54-156h33" id="aa"/><g id="i"><use transform="matrix(0.07407407407407408,0,0,0.07407407407407408,0,0)" xlink:href="#X"/><use transform="matrix(0.07407407407407408,0,0,0.07407407407407408,13.259259259259261,0)" xlink:href="#K"/><use transform="matrix(0.07407407407407408,0,0,0.07407407407407408,28.074074074074076,0)" xlink:href="#Y"/><use transform="matrix(0.07407407407407408,0,0,0.07407407407407408,36.88888888888889,0)" xlink:href="#F"/><use transform="matrix(0.07407407407407408,0,0,0.07407407407407408,59.037037037037045,0)" xlink:href="#I"/><use transform="matrix(0.07407407407407408,0,0,0.07407407407407408,64.8888888888889,0)" xlink:href="#S"/><use transform="matrix(0.07407407407407408,0,0,0.07407407407407408,79.70370370370374,0)" xlink:href="#E"/><use transform="matrix(0.07407407407407408,0,0,0.07407407407407408,94.51851851851853,0)" xlink:href="#N"/><use transform="matrix(0.07407407407407408,0,0,0.07407407407407408,100.37037037037038,0)" xlink:href="#E"/><use transform="matrix(0.07407407407407408,0,0,0.07407407407407408,115.18518518518519,0)" xlink:href="#Z"/><use transform="matrix(0.07407407407407408,0,0,0.07407407407407408,130,0)" xlink:href="#aa"/></g><path d="M33-154v-36h34v36H33zM33 0v-36h34V0H33" id="ab"/><g id="j"><use transform="matrix(0.06172839506172839,0,0,0.06172839506172839,0,0)" xlink:href="#W"/><use transform="matrix(0.06172839506172839,0,0,0.06172839506172839,14.814814814814813,0)" xlink:href="#V"/><use transform="matrix(0.06172839506172839,0,0,0.06172839506172839,25.925925925925924,0)" xlink:href="#M"/><use transform="matrix(0.06172839506172839,0,0,0.06172839506172839,38.2716049382716,0)" xlink:href="#F"/><use transform="matrix(0.06172839506172839,0,0,0.06172839506172839,56.72839506172839,0)" xlink:href="#G"/><use transform="matrix(0.06172839506172839,0,0,0.06172839506172839,69.07407407407408,0)" xlink:href="#N"/><use transform="matrix(0.06172839506172839,0,0,0.06172839506172839,73.95061728395062,0)" xlink:href="#K"/><use transform="matrix(0.06172839506172839,0,0,0.06172839506172839,86.2962962962963,0)" xlink:href="#H"/><use transform="matrix(0.06172839506172839,0,0,0.06172839506172839,97.40740740740742,0)" xlink:href="#ab"/></g><path d="M233-177c-1 41-23 64-60 70L243 0h-38l-65-103H63V0H30v-248c88 3 205-21 203 71zM63-129c60-2 137 13 137-47 0-61-80-42-137-45v92" id="ac"/><path d="M190 0L58-211 59 0H30v-248h39L202-35l-2-213h31V0h-41" id="ad"/><g id="k"><use transform="matrix(0.06172839506172839,0,0,0.06172839506172839,0,0)" xlink:href="#ac"/><use transform="matrix(0.06172839506172839,0,0,0.06172839506172839,15.987654320987653,0)" xlink:href="#V"/><use transform="matrix(0.06172839506172839,0,0,0.06172839506172839,27.098765432098766,0)" xlink:href="#ad"/><use transform="matrix(0.06172839506172839,0,0,0.06172839506172839,43.08641975308642,0)" xlink:href="#E"/><use transform="matrix(0.06172839506172839,0,0,0.06172839506172839,55.432098765432094,0)" xlink:href="#Y"/><use transform="matrix(0.06172839506172839,0,0,0.06172839506172839,62.77777777777777,0)" xlink:href="#F"/></g><path d="M205 0l-28-72H64L36 0H1l101-248h38L239 0h-34zm-38-99l-47-123c-12 45-31 82-46 123h93" id="ae"/><path d="M30-248c87 1 191-15 191 75 0 78-77 80-158 76V0H30v-248zm33 125c57 0 124 11 124-50 0-59-68-47-124-48v98" id="af"/><g id="l"><use transform="matrix(0.06172839506172839,0,0,0.06172839506172839,0,0)" xlink:href="#ae"/><use transform="matrix(0.06172839506172839,0,0,0.06172839506172839,14.814814814814813,0)" xlink:href="#af"/><use transform="matrix(0.06172839506172839,0,0,0.06172839506172839,29.629629629629626,0)" xlink:href="#R"/></g><path d="M30 0v-248h33v221h125V0H30" id="ag"/><path d="M140-251c81 0 123 46 123 126C263-46 219 4 140 4 59 4 17-45 17-125s42-126 123-126zm0 227c63 0 89-41 89-101s-29-99-89-99c-61 0-89 39-89 99S79-25 140-24" id="ah"/><g id="m"><use transform="matrix(0.06172839506172839,0,0,0.06172839506172839,0,0)" xlink:href="#ag"/><use transform="matrix(0.06172839506172839,0,0,0.06172839506172839,12.345679012345679,0)" xlink:href="#ah"/><use transform="matrix(0.06172839506172839,0,0,0.06172839506172839,29.629629629629626,0)" xlink:href="#R"/><use transform="matrix(0.06172839506172839,0,0,0.06172839506172839,35.80246913580247,0)" xlink:href="#ad"/><use transform="matrix(0.06172839506172839,0,0,0.06172839506172839,51.79012345679012,0)" xlink:href="#D"/></g><path d="M240 0l2-218c-23 76-54 145-80 218h-23L58-218 59 0H30v-248h44l77 211c21-75 51-140 76-211h43V0h-30" id="ai"/><path d="M30-248c118-7 216 8 213 122C240-48 200 0 122 0H30v-248zM63-27c89 8 146-16 146-99s-60-101-146-95v194" id="aj"/><path d="M16-82v-28h88v28H16" id="ak"/><g id="n"><use transform="matrix(0.06172839506172839,0,0,0.06172839506172839,0,0)" xlink:href="#P"/><use transform="matrix(0.06172839506172839,0,0,0.06172839506172839,14.814814814814813,0)" xlink:href="#ad"/><use transform="matrix(0.06172839506172839,0,0,0.06172839506172839,30.80246913580247,0)" xlink:href="#ah"/><use transform="matrix(0.06172839506172839,0,0,0.06172839506172839,48.08641975308642,0)" xlink:href="#ai"/><use transform="matrix(0.06172839506172839,0,0,0.06172839506172839,66.5432098765432,0)" xlink:href="#W"/><use transform="matrix(0.06172839506172839,0,0,0.06172839506172839,81.35802469135801,0)" xlink:href="#aj"/><use transform="matrix(0.06172839506172839,0,0,0.06172839506172839,97.34567901234567,0)" xlink:href="#ak"/><use transform="matrix(0.06172839506172839,0,0,0.06172839506172839,104.69135802469135,0)" xlink:href="#D"/><use transform="matrix(0.06172839506172839,0,0,0.06172839506172839,120.67901234567901,0)" xlink:href="#X"/></g><g id="o"><use transform="matrix(0.08641975308641976,0,0,0.08641975308641976,0,0)" xlink:href="#W"/><use transform="matrix(0.08641975308641976,0,0,0.08641975308641976,20.740740740740744,0)" xlink:href="#N"/><use transform="matrix(0.08641975308641976,0,0,0.08641975308641976,27.567901234567906,0)" xlink:href="#K"/><use transform="matrix(0.08641975308641976,0,0,0.08641975308641976,44.85185185185187,0)" xlink:href="#F"/><use transform="matrix(0.08641975308641976,0,0,0.08641975308641976,70.69135802469137,0)" xlink:href="#K"/><use transform="matrix(0.08641975308641976,0,0,0.08641975308641976,87.97530864197532,0)" xlink:href="#S"/><use transform="matrix(0.08641975308641976,0,0,0.08641975308641976,105.25925925925927,0)" xlink:href="#J"/></g><g id="p"><use transform="matrix(0.07407407407407408,0,0,0.07407407407407408,0,0)" xlink:href="#W"/><use transform="matrix(0.07407407407407408,0,0,0.07407407407407408,17.77777777777778,0)" xlink:href="#V"/><use transform="matrix(0.07407407407407408,0,0,0.07407407407407408,31.111111111111114,0)" xlink:href="#J"/><use transform="matrix(0.07407407407407408,0,0,0.07407407407407408,38.51851851851851,0)" xlink:href="#K"/><use transform="matrix(0.07407407407407408,0,0,0.07407407407407408,53.33333333333333,0)" xlink:href="#S"/><use transform="matrix(0.07407407407407408,0,0,0.07407407407407408,68.14814814814815,0)" xlink:href="#H"/><use transform="matrix(0.07407407407407408,0,0,0.07407407407407408,81.4814814814815,0)" xlink:href="#I"/><use transform="matrix(0.07407407407407408,0,0,0.07407407407407408,87.33333333333334,0)" xlink:href="#E"/><use transform="matrix(0.07407407407407408,0,0,0.07407407407407408,102.14814814814814,0)" xlink:href="#S"/><use transform="matrix(0.07407407407407408,0,0,0.07407407407407408,116.96296296296296,0)" xlink:href="#M"/><use transform="matrix(0.07407407407407408,0,0,0.07407407407407408,131.77777777777777,0)" xlink:href="#N"/></g><path d="M101-234c-31-9-42 10-38 44h38v23H63V0H32v-167H5v-23h27c-7-52 17-82 69-68v24" id="al"/><g id="q"><use transform="matrix(0.07407407407407408,0,0,0.07407407407407408,0,0)" xlink:href="#aj"/><use transform="matrix(0.07407407407407408,0,0,0.07407407407407408,19.185185185185187,0)" xlink:href="#K"/><use transform="matrix(0.07407407407407408,0,0,0.07407407407407408,34,0)" xlink:href="#al"/><use transform="matrix(0.07407407407407408,0,0,0.07407407407407408,41.407407407407405,0)" xlink:href="#I"/><use transform="matrix(0.07407407407407408,0,0,0.07407407407407408,47.25925925925926,0)" xlink:href="#S"/><use transform="matrix(0.07407407407407408,0,0,0.07407407407407408,62.074074074074076,0)" xlink:href="#I"/><use transform="matrix(0.07407407407407408,0,0,0.07407407407407408,67.92592592592592,0)" xlink:href="#J"/><use transform="matrix(0.07407407407407408,0,0,0.07407407407407408,75.33333333333333,0)" xlink:href="#I"/><use transform="matrix(0.07407407407407408,0,0,0.07407407407407408,81.18518518518518,0)" xlink:href="#E"/><use transform="matrix(0.07407407407407408,0,0,0.07407407407407408,96,0)" xlink:href="#S"/></g><g id="r"><use transform="matrix(0.06172839506172839,0,0,0.06172839506172839,0,0)" xlink:href="#I"/><use transform="matrix(0.06172839506172839,0,0,0.06172839506172839,4.876543209876543,0)" xlink:href="#S"/><use transform="matrix(0.06172839506172839,0,0,0.06172839506172839,17.22222222222222,0)" xlink:href="#Q"/><use transform="matrix(0.06172839506172839,0,0,0.06172839506172839,28.333333333333332,0)" xlink:href="#N"/><use transform="matrix(0.06172839506172839,0,0,0.06172839506172839,33.20987654320987,0)" xlink:href="#O"/><use transform="matrix(0.06172839506172839,0,0,0.06172839506172839,45.55555555555555,0)" xlink:href="#T"/><use transform="matrix(0.06172839506172839,0,0,0.06172839506172839,57.90123456790123,0)" xlink:href="#K"/></g><g id="s"><use transform="matrix(0.06172839506172839,0,0,0.06172839506172839,0,0)" xlink:href="#Q"/><use transform="matrix(0.06172839506172839,0,0,0.06172839506172839,11.11111111111111,0)" xlink:href="#E"/><use transform="matrix(0.06172839506172839,0,0,0.06172839506172839,23.45679012345679,0)" xlink:href="#S"/><use transform="matrix(0.06172839506172839,0,0,0.06172839506172839,35.80246913580247,0)" xlink:href="#Q"/><use transform="matrix(0.06172839506172839,0,0,0.06172839506172839,46.91358024691358,0)" xlink:href="#K"/><use transform="matrix(0.06172839506172839,0,0,0.06172839506172839,59.25925925925926,0)" xlink:href="#G"/><use transform="matrix(0.06172839506172839,0,0,0.06172839506172839,71.60493827160494,0)" xlink:href="#J"/></g><g id="t"><use transform="matrix(0.07407407407407408,0,0,0.07407407407407408,0,0)" xlink:href="#R"/><use transform="matrix(0.07407407407407408,0,0,0.07407407407407408,7.407407407407408,0)" xlink:href="#S"/><use transform="matrix(0.07407407407407408,0,0,0.07407407407407408,22.222222222222225,0)" xlink:href="#J"/><use transform="matrix(0.07407407407407408,0,0,0.07407407407407408,29.629629629629633,0)" xlink:href="#K"/><use transform="matrix(0.07407407407407408,0,0,0.07407407407407408,44.44444444444445,0)" xlink:href="#S"/><use transform="matrix(0.07407407407407408,0,0,0.07407407407407408,59.25925925925927,0)" xlink:href="#H"/><use transform="matrix(0.07407407407407408,0,0,0.07407407407407408,72.59259259259261,0)" xlink:href="#I"/><use transform="matrix(0.07407407407407408,0,0,0.07407407407407408,78.44444444444446,0)" xlink:href="#E"/><use transform="matrix(0.07407407407407408,0,0,0.07407407407407408,93.25925925925927,0)" xlink:href="#S"/><use transform="matrix(0.07407407407407408,0,0,0.07407407407407408,108.07407407407408,0)" xlink:href="#M"/><use transform="matrix(0.07407407407407408,0,0,0.07407407407407408,122.88888888888889,0)" xlink:href="#N"/></g><g id="u"><use transform="matrix(0.06172839506172839,0,0,0.06172839506172839,0,0)" xlink:href="#K"/><use transform="matrix(0.06172839506172839,0,0,0.06172839506172839,12.345679012345679,0)" xlink:href="#V"/><use transform="matrix(0.06172839506172839,0,0,0.06172839506172839,23.45679012345679,0)" xlink:href="#G"/><use transform="matrix(0.06172839506172839,0,0,0.06172839506172839,35.80246913580247,0)" xlink:href="#M"/><use transform="matrix(0.06172839506172839,0,0,0.06172839506172839,48.148148148148145,0)" xlink:href="#S"/><use transform="matrix(0.06172839506172839,0,0,0.06172839506172839,60.49382716049382,0)" xlink:href="#H"/><use transform="matrix(0.06172839506172839,0,0,0.06172839506172839,71.60493827160494,0)" xlink:href="#I"/><use transform="matrix(0.06172839506172839,0,0,0.06172839506172839,76.48148148148148,0)" xlink:href="#E"/><use transform="matrix(0.06172839506172839,0,0,0.06172839506172839,88.82716049382717,0)" xlink:href="#S"/></g><g id="v"><use transform="matrix(0.06172839506172839,0,0,0.06172839506172839,0,0)" xlink:href="#Q"/><use transform="matrix(0.06172839506172839,0,0,0.06172839506172839,11.11111111111111,0)" xlink:href="#E"/><use transform="matrix(0.06172839506172839,0,0,0.06172839506172839,23.45679012345679,0)" xlink:href="#S"/><use transform="matrix(0.06172839506172839,0,0,0.06172839506172839,35.80246913580247,0)" xlink:href="#J"/><use transform="matrix(0.06172839506172839,0,0,0.06172839506172839,41.97530864197531,0)" xlink:href="#M"/><use transform="matrix(0.06172839506172839,0,0,0.06172839506172839,54.32098765432099,0)" xlink:href="#I"/><use transform="matrix(0.06172839506172839,0,0,0.06172839506172839,59.19753086419753,0)" xlink:href="#S"/><use transform="matrix(0.06172839506172839,0,0,0.06172839506172839,71.54320987654322,0)" xlink:href="#H"/></g><g id="w"><use transform="matrix(0.08641975308641976,0,0,0.08641975308641976,0,0)" xlink:href="#L"/><use transform="matrix(0.08641975308641976,0,0,0.08641975308641976,18.407407407407412,0)" xlink:href="#M"/><use transform="matrix(0.08641975308641976,0,0,0.08641975308641976,35.69135802469137,0)" xlink:href="#N"/><use transform="matrix(0.08641975308641976,0,0,0.08641975308641976,42.51851851851853,0)" xlink:href="#O"/><use transform="matrix(0.08641975308641976,0,0,0.08641975308641976,59.80246913580248,0)" xlink:href="#K"/><use transform="matrix(0.08641975308641976,0,0,0.08641975308641976,77.08641975308643,0)" xlink:href="#P"/><use transform="matrix(0.08641975308641976,0,0,0.08641975308641976,97.82716049382717,0)" xlink:href="#K"/><use transform="matrix(0.08641975308641976,0,0,0.08641975308641976,115.11111111111113,0)" xlink:href="#J"/><use transform="matrix(0.08641975308641976,0,0,0.08641975308641976,123.7530864197531,0)" xlink:href="#ak"/><use transform="matrix(0.08641975308641976,0,0,0.08641975308641976,134.03703703703707,0)" xlink:href="#K"/><use transform="matrix(0.08641975308641976,0,0,0.08641975308641976,151.32098765432102,0)" xlink:href="#V"/><use transform="matrix(0.08641975308641976,0,0,0.08641975308641976,166.87654320987656,0)" xlink:href="#Q"/><use transform="matrix(0.08641975308641976,0,0,0.08641975308641976,182.43209876543213,0)" xlink:href="#N"/><use transform="matrix(0.08641975308641976,0,0,0.08641975308641976,189.25925925925927,0)" xlink:href="#O"/><use transform="matrix(0.08641975308641976,0,0,0.08641975308641976,206.54320987654324,0)" xlink:href="#T"/><use transform="matrix(0.08641975308641976,0,0,0.08641975308641976,223.8271604938272,0)" xlink:href="#K"/></g><path fill="#333" d="M205 0l-28-72H64L36 0H1l101-248h38L239 0h-34zm-38-99l-47-123c-12 45-31 82-46 123h93" id="am"/><path fill="#333" d="M177-190C167-65 218 103 67 71c-23-6-38-20-44-43l32-5c15 47 100 32 89-28v-30C133-14 115 1 83 1 29 1 15-40 15-95c0-56 16-97 71-98 29-1 48 16 59 35 1-10 0-23 2-32h30zM94-22c36 0 50-32 50-73 0-42-14-75-50-75-39 0-46 34-46 75s6 73 46 73" id="an"/><path fill="#333" d="M117-194c89-4 53 116 60 194h-32v-121c0-31-8-49-39-48C34-167 62-67 57 0H25l-1-190h30c1 10-1 24 2 32 11-22 29-35 61-36" id="ao"/><path fill="#333" d="M100-194c62-1 85 37 85 99 1 63-27 99-86 99S16-35 15-95c0-66 28-99 85-99zM99-20c44 1 53-31 53-75 0-43-8-75-51-75s-53 32-53 75 10 74 51 75" id="ap"/><path fill="#333" d="M135-143c-3-34-86-38-87 0 15 53 115 12 119 90S17 21 10-45l28-5c4 36 97 45 98 0-10-56-113-15-118-90-4-57 82-63 122-42 12 7 21 19 24 35" id="aq"/><path fill="#333" d="M59-47c-2 24 18 29 38 22v24C64 9 27 4 27-40v-127H5v-23h24l9-43h21v43h35v23H59v120" id="ar"/><path fill="#333" d="M24-231v-30h32v30H24zM24 0v-190h32V0H24" id="as"/><path fill="#333" d="M96-169c-40 0-48 33-48 73s9 75 48 75c24 0 41-14 43-38l32 2c-6 37-31 61-74 61-59 0-76-41-82-99-10-93 101-131 147-64 4 7 5 14 7 22l-32 3c-4-21-16-35-41-35" id="at"/><path fill="#333" d="M68-38c1 34 0 65-14 84H32c9-13 17-26 17-46H33v-38h35" id="au"/><g id="x"><use transform="matrix(0.07407407407407408,0,0,0.07407407407407408,0,0)" xlink:href="#am"/><use transform="matrix(0.07407407407407408,0,0,0.07407407407407408,17.77777777777778,0)" xlink:href="#an"/><use transform="matrix(0.07407407407407408,0,0,0.07407407407407408,32.592592592592595,0)" xlink:href="#ao"/><use transform="matrix(0.07407407407407408,0,0,0.07407407407407408,47.40740740740741,0)" xlink:href="#ap"/><use transform="matrix(0.07407407407407408,0,0,0.07407407407407408,62.22222222222223,0)" xlink:href="#aq"/><use transform="matrix(0.07407407407407408,0,0,0.07407407407407408,75.55555555555557,0)" xlink:href="#ar"/><use transform="matrix(0.07407407407407408,0,0,0.07407407407407408,82.96296296296298,0)" xlink:href="#as"/><use transform="matrix(0.07407407407407408,0,0,0.07407407407407408,88.81481481481482,0)" xlink:href="#at"/><use transform="matrix(0.07407407407407408,0,0,0.07407407407407408,102.14814814814814,0)" xlink:href="#au"/></g><path fill="#333" d="M233-177c-1 41-23 64-60 70L243 0h-38l-65-103H63V0H30v-248c88 3 205-21 203 71zM63-129c60-2 137 13 137-47 0-61-80-42-137-45v92" id="av"/><path fill="#333" d="M100-194c63 0 86 42 84 106H49c0 40 14 67 53 68 26 1 43-12 49-29l28 8c-11 28-37 45-77 45C44 4 14-33 15-96c1-61 26-98 85-98zm52 81c6-60-76-77-97-28-3 7-6 17-6 28h103" id="aw"/><path fill="#333" d="M84 4C-5 8 30-112 23-190h32v120c0 31 7 50 39 49 72-2 45-101 50-169h31l1 190h-30c-1-10 1-25-2-33-11 22-28 36-60 37" id="ax"/><path fill="#333" d="M141-36C126-15 110 5 73 4 37 3 15-17 15-53c-1-64 63-63 125-63 3-35-9-54-41-54-24 1-41 7-42 31l-33-3c5-37 33-52 76-52 45 0 72 20 72 64v82c-1 20 7 32 28 27v20c-31 9-61-2-59-35zM48-53c0 20 12 33 32 33 41-3 63-29 60-74-43 2-92-5-92 41" id="ay"/><path fill="#333" d="M115-194c53 0 69 39 70 98 0 66-23 100-70 100C84 3 66-7 56-30L54 0H23l1-261h32v101c10-23 28-34 59-34zm-8 174c40 0 45-34 45-75 0-40-5-75-45-74-42 0-51 32-51 76 0 43 10 73 51 73" id="az"/><path fill="#333" d="M24 0v-261h32V0H24" id="aA"/><g id="y"><use transform="matrix(0.07407407407407408,0,0,0.07407407407407408,0,0)" xlink:href="#av"/><use transform="matrix(0.07407407407407408,0,0,0.07407407407407408,19.185185185185187,0)" xlink:href="#aw"/><use transform="matrix(0.07407407407407408,0,0,0.07407407407407408,34,0)" xlink:href="#ax"/><use transform="matrix(0.07407407407407408,0,0,0.07407407407407408,48.81481481481481,0)" xlink:href="#aq"/><use transform="matrix(0.07407407407407408,0,0,0.07407407407407408,62.14814814814816,0)" xlink:href="#ay"/><use transform="matrix(0.07407407407407408,0,0,0.07407407407407408,76.96296296296296,0)" xlink:href="#az"/><use transform="matrix(0.07407407407407408,0,0,0.07407407407407408,91.77777777777777,0)" xlink:href="#aA"/><use transform="matrix(0.07407407407407408,0,0,0.07407407407407408,97.62962962962962,0)" xlink:href="#aw"/><use transform="matrix(0.07407407407407408,0,0,0.07407407407407408,112.44444444444443,0)" xlink:href="#au"/></g><path fill="#333" d="M210-169c-67 3-38 105-44 169h-31v-121c0-29-5-50-35-48C34-165 62-65 56 0H25l-1-190h30c1 10-1 24 2 32 10-44 99-50 107 0 11-21 27-35 58-36 85-2 47 119 55 194h-31v-121c0-29-5-49-35-48" id="aB"/><path fill="#333" d="M85-194c31 0 48 13 60 33l-1-100h32l1 261h-30c-2-10 0-23-3-31C134-8 116 4 85 4 32 4 16-35 15-94c0-66 23-100 70-100zm9 24c-40 0-46 34-46 75 0 40 6 74 45 74 42 0 51-32 51-76 0-42-9-74-50-73" id="aC"/><g id="z"><use transform="matrix(0.07407407407407408,0,0,0.07407407407407408,0,0)" xlink:href="#am"/><use transform="matrix(0.07407407407407408,0,0,0.07407407407407408,17.77777777777778,0)" xlink:href="#ax"/><use transform="matrix(0.07407407407407408,0,0,0.07407407407407408,32.592592592592595,0)" xlink:href="#ar"/><use transform="matrix(0.07407407407407408,0,0,0.07407407407407408,40,0)" xlink:href="#ap"/><use transform="matrix(0.07407407407407408,0,0,0.07407407407407408,54.81481481481482,0)" xlink:href="#aB"/><use transform="matrix(0.07407407407407408,0,0,0.07407407407407408,76.96296296296296,0)" xlink:href="#ay"/><use transform="matrix(0.07407407407407408,0,0,0.07407407407407408,91.77777777777777,0)" xlink:href="#ar"/><use transform="matrix(0.07407407407407408,0,0,0.07407407407407408,99.18518518518518,0)" xlink:href="#aw"/><use transform="matrix(0.07407407407407408,0,0,0.07407407407407408,114,0)" xlink:href="#aC"/></g><g id="A"><use transform="matrix(0.07407407407407408,0,0,0.07407407407407408,0,0)" xlink:href="#D"/><use transform="matrix(0.07407407407407408,0,0,0.07407407407407408,19.185185185185187,0)" xlink:href="#aj"/><use transform="matrix(0.07407407407407408,0,0,0.07407407407407408,38.370370370370374,0)" xlink:href="#P"/></g><g id="B"><use transform="matrix(0.07407407407407408,0,0,0.07407407407407408,0,0)" xlink:href="#P"/><use transform="matrix(0.07407407407407408,0,0,0.07407407407407408,17.77777777777778,0)" xlink:href="#K"/><use transform="matrix(0.07407407407407408,0,0,0.07407407407407408,32.592592592592595,0)" xlink:href="#Y"/><use transform="matrix(0.07407407407407408,0,0,0.07407407407407408,41.40740740740741,0)" xlink:href="#U"/><use transform="matrix(0.07407407407407408,0,0,0.07407407407407408,54.74074074074075,0)" xlink:href="#I"/><use transform="matrix(0.07407407407407408,0,0,0.07407407407407408,60.5925925925926,0)" xlink:href="#Q"/><use transform="matrix(0.07407407407407408,0,0,0.07407407407407408,73.92592592592594,0)" xlink:href="#K"/></g><g id="C"><use transform="matrix(0.07407407407407408,0,0,0.07407407407407408,0,0)" xlink:href="#P"/><use transform="matrix(0.07407407407407408,0,0,0.07407407407407408,17.77777777777778,0)" xlink:href="#G"/><use transform="matrix(0.07407407407407408,0,0,0.07407407407407408,32.592592592592595,0)" xlink:href="#K"/><use transform="matrix(0.07407407407407408,0,0,0.07407407407407408,47.40740740740741,0)" xlink:href="#Q"/><use transform="matrix(0.07407407407407408,0,0,0.07407407407407408,60.74074074074075,0)" xlink:href="#I"/><use transform="matrix(0.07407407407407408,0,0,0.07407407407407408,66.5925925925926,0)" xlink:href="#al"/><use transform="matrix(0.07407407407407408,0,0,0.07407407407407408,74,0)" xlink:href="#I"/><use transform="matrix(0.07407407407407408,0,0,0.07407407407407408,79.85185185185185,0)" xlink:href="#Q"/></g></defs></g></svg>