<svg xmlns="http://www.w3.org/2000/svg" xmlns:xlink="http://www.w3.org/1999/xlink" xmlns:lucid="lucid" width="2660" height="1360"><g transform="translate(1300 1291.0000000000002)" lucid:page-tab-id="D5V0873oDMnj"><path d="M-1296-1280h2656V64h-2656z" fill="#fff"/><path d="M-216-891l96 66v154h-240v-220z" stroke="#000" stroke-width="2" fill="#fff"/><path d="M-216-891v66h96z" stroke="#000" stroke-width="2" fill="#fff"/><use xlink:href="#a" transform="matrix(1,0,0,1,-360,-861.0000000000002) translate(59.58347800925925 21.333333333333336)"/><use xlink:href="#b" transform="matrix(1,0,0,1,-360,-861.0000000000002) translate(6.074074074074062 53.333333333333336)"/><use xlink:href="#c" transform="matrix(1,0,0,1,-360,-861.0000000000002) translate(33.13773148148147 85.33333333333334)"/><use xlink:href="#d" transform="matrix(1,0,0,1,-360,-861.0000000000002) translate(177.38078703703704 85.33333333333334)"/><use xlink:href="#e" transform="matrix(1,0,0,1,-360,-861.0000000000002) translate(13.40740740740739 117.33333333333334)"/><use xlink:href="#f" transform="matrix(1,0,0,1,-360,-861.0000000000002) translate(109.70370370370368 117.33333333333334)"/><use xlink:href="#g" transform="matrix(1,0,0,1,-360,-861.0000000000002) translate(9.777777777777771 149.33333333333334)"/><use xlink:href="#h" transform="matrix(1,0,0,1,-360,-861.0000000000002) translate(48.22222222222222 149.33333333333334)"/><use xlink:href="#i" transform="matrix(1,0,0,1,-360,-861.0000000000002) translate(139.92592592592592 149.33333333333334)"/><use xlink:href="#j" transform="matrix(1,0,0,1,-360,-861.0000000000002) translate(170.96296296296296 149.33333333333334)"/><path d="M-1280-1271h2620v63h-2620z" fill="#fff"/><path d="M-1280 49v-1320h2620V49zm0-1257h2620m-1900 0V49M820-1208V49" stroke="#000" stroke-width="2" fill="none"/><use xlink:href="#k" transform="matrix(1,0,0,1,-1280,-1271.0000000000002) translate(1071.3333333333333 39.5)"/><use xlink:href="#l" transform="matrix(1,0,0,1,-1280,-1271.0000000000002) translate(1189 39.5)"/><use xlink:href="#m" transform="matrix(1,0,0,1,-1280,-1271.0000000000002) translate(1308.888888888889 39.5)"/><use xlink:href="#n" transform="matrix(1,0,0,1,-1280,-1271.0000000000002) translate(1406.4444444444443 39.5)"/><use xlink:href="#o" transform="matrix(1,0,0,1,-1280,-1208.0000000000002) translate(139.77777777777774 63.5)"/><use xlink:href="#p" transform="matrix(1,0,0,1,-1280,-1208.0000000000002) translate(326.1111111111111 63.5)"/><use xlink:href="#q" transform="matrix(1,0,0,1,-1280,-1208.0000000000002) translate(452.55555555555554 63.5)"/><use xlink:href="#r" transform="matrix(1,0,0,1,-559.9999999999998,-1208.0000000000002) translate(420.5 63.5)"/><use xlink:href="#s" transform="matrix(1,0,0,1,-559.9999999999998,-1208.0000000000002) translate(526.9444444444445 63.5)"/><use xlink:href="#t" transform="matrix(1,0,0,1,-559.9999999999998,-1208.0000000000002) translate(622.2777777777778 63.5)"/><use xlink:href="#u" transform="matrix(1,0,0,1,-559.9999999999998,-1208.0000000000002) translate(735.3888888888889 63.5)"/><use xlink:href="#v" transform="matrix(1,0,0,1,-559.9999999999998,-1208.0000000000002) translate(826.3888888888889 63.5)"/><use xlink:href="#o" transform="matrix(1,0,0,1,820,-1208.0000000000002) translate(39.27777777777774 39.5)"/><use xlink:href="#p" transform="matrix(1,0,0,1,820,-1208.0000000000002) translate(225.6111111111111 39.5)"/><use xlink:href="#w" transform="matrix(1,0,0,1,820,-1208.0000000000002) translate(352.05555555555554 39.5)"/><use xlink:href="#x" transform="matrix(1,0,0,1,820,-1208.0000000000002) translate(149.16666666666666 87.5)"/><use xlink:href="#y" transform="matrix(1,0,0,1,820,-1208.0000000000002) translate(253.27777777777777 87.5)"/><path d="M900-871h360v182.77H900z" fill="#fff"/><path d="M910-871h4m8 0h4m8 0h4m8 0h4m8 0h4m8 0h4m8 0h4m8 0h4m8 0h4m8 0h4m8 0h4m8 0h4m8 0h4m8 0h4m8 0h4m8 0h4m8 0h4m8 0h4m8 0h4m8 0h4m8 0h4m8 0h4m8 0h4m8 0h4m8 0h4m8 0h4m8 0h4m8 0h4m8 0h4m8 0h2v2.03m0 8.12v4.07m0 8.12v4.06m0 8.12v4.06m0 8.13v4.07m0 8.12v4.05m0 8.13v4.06m0 8.12v4.06m0 8.13v4.06m0 8.13v4.06m0 8.1v4.08m0 8.12v4.06m0 8.12v4.06m0 8.13v4.06m0 8.12v4.06m0 8.14v2.03h-2m-8 0h-4m-8 0h-4m-8 0h-4m-8 0h-4m-8 0h-4m-8 0h-4m-8 0h-4m-8 0h-4m-8 0h-4m-8 0h-4m-8 0h-4m-8 0h-4m-8 0h-4m-8 0h-4m-8 0h-4m-8 0h-4m-8 0h-4m-8 0h-4m-8 0h-4m-8 0h-4m-8 0h-4m-8 0h-4m-8 0h-4m-8 0h-4m-8 0h-4m-8 0h-4m-8 0h-4m-8 0h-4m-8 0h-4m-8 0h-2v-2.03m0-8.13v-4.05m0-8.12v-4.06m0-8.13v-4.06m0-8.12V-739m0-8.12v-4.07m0-8.1v-4.07m0-8.12v-4.05m0-8.13v-4.06m0-8.12v-4.06m0-8.13v-4.06m0-8.13v-4.06m0-8.12v-4.06m0-8.12v-4.06m0-8.12v-4.07m0-8.12V-871h2M1065-730.06h30v30h-30zm15 5.4v19.2m-9.6-9.6h19.2" stroke="#000" stroke-width="2" fill="none"/><use xlink:href="#z" transform="matrix(1,0,0,1,900,-871.0000000000002) translate(23.196358024691342 76.35763888888889)"/><use xlink:href="#A" transform="matrix(1,0,0,1,900,-871.0000000000002) translate(142.10993827160496 76.35763888888889)"/><use xlink:href="#B" transform="matrix(1,0,0,1,900,-871.0000000000002) translate(55.776604938271596 113.69097222222223)"/><use xlink:href="#C" transform="matrix(1,0,0,1,900,-871.0000000000002) translate(119.55438271604939 113.69097222222223)"/><use xlink:href="#D" transform="matrix(1,0,0,1,900,-871.0000000000002) translate(200.5296913580247 113.69097222222223)"/><path class="lucid-link lucid-hotspot lucid-overlay-hotspot" d="M900-871h360v182.77H900z" fill="none"/><path class="lucid-link lucid-hotspot lucid-overlay-hotspot" d="M910-871h4m8 0h4m8 0h4m8 0h4m8 0h4m8 0h4m8 0h4m8 0h4m8 0h4m8 0h4m8 0h4m8 0h4m8 0h4m8 0h4m8 0h4m8 0h4m8 0h4m8 0h4m8 0h4m8 0h4m8 0h4m8 0h4m8 0h4m8 0h4m8 0h4m8 0h4m8 0h4m8 0h4m8 0h4m8 0h2v2.03m0 8.12v4.07m0 8.12v4.06m0 8.12v4.06m0 8.13v4.07m0 8.12v4.05m0 8.13v4.06m0 8.12v4.06m0 8.13v4.06m0 8.13v4.06m0 8.1v4.08m0 8.12v4.06m0 8.12v4.06m0 8.13v4.06m0 8.12v4.06m0 8.14v2.03h-2m-8 0h-4m-8 0h-4m-8 0h-4m-8 0h-4m-8 0h-4m-8 0h-4m-8 0h-4m-8 0h-4m-8 0h-4m-8 0h-4m-8 0h-4m-8 0h-4m-8 0h-4m-8 0h-4m-8 0h-4m-8 0h-4m-8 0h-4m-8 0h-4m-8 0h-4m-8 0h-4m-8 0h-4m-8 0h-4m-8 0h-4m-8 0h-4m-8 0h-4m-8 0h-4m-8 0h-4m-8 0h-4m-8 0h-4m-8 0h-2v-2.03m0-8.13v-4.05m0-8.12v-4.06m0-8.13v-4.06m0-8.12V-739m0-8.12v-4.07m0-8.1v-4.07m0-8.12v-4.05m0-8.13v-4.06m0-8.12v-4.06m0-8.13v-4.06m0-8.13v-4.06m0-8.12v-4.06m0-8.12v-4.06m0-8.12v-4.07m0-8.12V-871h2M1065-730.06h30v30h-30zm15 5.4v19.2m-9.6-9.6h19.2" fill="none"/><path d="M420-411h295.5v223H420z" stroke="#000" stroke-width="2" fill="#fff"/><path d="M552.75-230.23h30v30h-30zm15 5.4v19.2m-9.6-9.6h19.2" stroke="#000" stroke-width="2" fill="none"/><use xlink:href="#E" transform="matrix(1,0,0,1,420,-411.0000000000002) translate(15.998827160493827 80.63888888888889)"/><use xlink:href="#F" transform="matrix(1,0,0,1,420,-411.0000000000002) translate(145.54203703703703 80.63888888888889)"/><use xlink:href="#G" transform="matrix(1,0,0,1,420,-411.0000000000002) translate(217.9617901234568 80.63888888888889)"/><use xlink:href="#H" transform="matrix(1,0,0,1,420,-411.0000000000002) translate(9.171666666666662 117.97222222222223)"/><use xlink:href="#I" transform="matrix(1,0,0,1,420,-411.0000000000002) translate(128.25808641975308 117.97222222222223)"/><use xlink:href="#J" transform="matrix(1,0,0,1,420,-411.0000000000002) translate(92.825987654321 155.30555555555557)"/><path class="lucid-link lucid-hotspot lucid-overlay-hotspot" d="M420-411h295.5v223H420z" fill="none"/><path class="lucid-link lucid-hotspot lucid-overlay-hotspot" d="M552.75-230.23h30v30h-30zm15 5.4v19.2m-9.6-9.6h19.2" fill="none"/><path d="M-770-846.06h160v132.12h-160z" stroke="#000" stroke-width="2" fill="#fff"/><use xlink:href="#K" transform="matrix(1,0,0,1,-770,-846.0606060606062) translate(22.356851851851843 40.33680555555556)"/><use xlink:href="#L" transform="matrix(1,0,0,1,-770,-846.0606060606062) translate(86.18401234567901 40.33680555555556)"/><use xlink:href="#M" transform="matrix(1,0,0,1,-770,-846.0606060606062) translate(45.40932098765431 69.67013888888889)"/><use xlink:href="#N" transform="matrix(1,0,0,1,-770,-846.0606060606062) translate(34.54512345679011 99.00347222222223)"/><path d="M-609-780h124v-1h105.5" stroke="#000" stroke-width="2" fill="none"/><path d="M-609-779h-1v-2h1z"/><path d="M-364.24-781l-14.26 4.64v-9.28z" stroke="#000" stroke-width="2"/><path d="M453.35-871h229.3v182.22h-229.3z" stroke="#000" stroke-width="2" fill="#fff"/><path d="M553-730.6h30v30h-30zm15 5.4v19.2m-9.6-9.6h19.2" stroke="#000" stroke-width="2" fill="none"/><use xlink:href="#O" transform="matrix(1,0,0,1,453.3460238333334,-871.0000000000002) translate(40.27043209876542 47.8385528888889)"/><use xlink:href="#P" transform="matrix(1,0,0,1,453.3460238333334,-871.0000000000002) translate(133.60376543209878 47.8385528888889)"/><use xlink:href="#Q" transform="matrix(1,0,0,1,453.3460238333334,-871.0000000000002) translate(25.665493827160496 85.17188622222224)"/><use xlink:href="#R" transform="matrix(1,0,0,1,453.3460238333334,-871.0000000000002) translate(53.31981481481481 122.50521955555558)"/><path class="lucid-link lucid-hotspot lucid-overlay-hotspot" d="M453.35-871h229.3v182.22h-229.3z" fill="none"/><path class="lucid-link lucid-hotspot lucid-overlay-hotspot" d="M553-730.6h30v30h-30zm15 5.4v19.2m-9.6-9.6h19.2" fill="none"/><path d="M-119-781h285.67v1.1h267.17" stroke="#000" stroke-width="2" fill="none"/><path d="M-119-780h-1v-2h1z"/><path d="M449.1-779.9l-14.26 4.64v-9.27z" stroke="#000" stroke-width="2"/><path d="M-938.2-391h280v175h-280z" stroke="#000" stroke-width="2" fill="#fff"/><use xlink:href="#S" transform="matrix(1,0,0,1,-938.208333,-391.0000000000002) translate(16.375370370370355 76.02083333333334)"/><use xlink:href="#T" transform="matrix(1,0,0,1,-938.208333,-391.0000000000002) translate(120.00500000000002 76.02083333333334)"/><use xlink:href="#U" transform="matrix(1,0,0,1,-938.208333,-391.0000000000002) translate(171.85685185185187 76.02083333333334)"/><use xlink:href="#V" transform="matrix(1,0,0,1,-938.208333,-391.0000000000002) translate(95.7087037037037 108.02083333333334)"/><path d="M-1060-303c0 33.14-26.86 60-60 60s-60-26.86-60-60 26.86-60 60-60 60 26.86 60 60z" stroke="#000" stroke-width="2" fill="#fff"/><path d="M-1063-303c0 31.48-25.52 57-57 57s-57-25.52-57-57 25.52-57 57-57 57 25.52 57 57z" stroke="#000" stroke-width="2" fill="#fff"/><use xlink:href="#W" transform="matrix(1,0,0,1,-1180,-243.00000000000023) translate(-4.6851851851851904 24.888888888888893)"/><use xlink:href="#X" transform="matrix(1,0,0,1,-1180,-243.00000000000023) translate(14.327160493827158 62.222222222222236)"/><path d="M-520.5-304h-68.36v.5h-49.85" stroke="#000" stroke-width="2" fill="none"/><path d="M-519.5-303h-1v-2h1z"/><path d="M-653.97-303.5l14.26-4.64v9.28z" stroke="#000" stroke-width="2"/><path d="M683.65-826.9H801.5" stroke="#000" stroke-width="2" fill="none"/><path d="M683.65-825.9h-1v-2h1z"/><path d="M816.76-826.9l-14.26 4.64v-9.27z" stroke="#000" stroke-width="2"/><path d="M568-687.78v137.9h-.6v119.38" stroke="#000" stroke-width="2" fill="none"/><path d="M569-687.78h-2v-1h2z"/><path d="M567.4-415.24l-4.63-14.26h9.27z" stroke="#000" stroke-width="2"/><path d="M-960-780c0 33.97-26.86 61.5-60 61.5s-60-27.53-60-61.5 26.86-61.5 60-61.5 60 27.53 60 61.5z" stroke="#000" stroke-width="2" fill="#fff"/><use xlink:href="#Y" transform="matrix(1,0,0,1,-1080,-718.5000000000002) translate(-60.01953125 31.9921875)"/><path d="M-959-780h169.5" stroke="#000" stroke-width="2" fill="none"/><path d="M-959-779h-1.04l.04-1v-1h1z"/><path d="M-774.24-780l-14.26 4.64v-9.28z" stroke="#000" stroke-width="2"/><path d="M702.16-726.9H820" stroke="#000" stroke-width="2" fill="none"/><path d="M686.9-726.9l14.26-4.63v9.27z" stroke="#000" stroke-width="2"/><path d="M-1080-1091h300v160h-300z" fill="#fff"/><path d="M-1070-1091h4m8 0h4m8 0h4m8 0h4m8 0h4m8 0h4m8 0h4m8 0h4m8 0h4m8 0h4m8 0h4m8 0h4m8 0h4m8 0h4m8 0h4m8 0h4m8 0h4m8 0h4m8 0h4m8 0h4m8 0h4m8 0h4m8 0h4m8 0h4m8 0h2v2.05m0 8.2v4.1m0 8.2v4.12m0 8.2v4.1m0 8.2v4.1m0 8.22v4.1m0 8.2v4.1m0 8.2v4.1m0 8.2v4.1m0 8.22v4.1m0 8.2v4.1m0 8.2v4.12m0 8.2v4.1m0 8.2v2.06h-2m-8 0h-4m-8 0h-4m-8 0h-4m-8 0h-4m-8 0h-4m-8 0h-4m-8 0h-4m-8 0h-4m-8 0h-4m-8 0h-4m-8 0h-4m-8 0h-4m-8 0h-4m-8 0h-4m-8 0h-4m-8 0h-4m-8 0h-4m-8 0h-4m-8 0h-4m-8 0h-4m-8 0h-4m-8 0h-4m-8 0h-4m-8 0h-4m-8 0h-2v-2.05m0-8.2v-4.1m0-8.2v-4.12m0-8.2v-4.1m0-8.2v-4.1m0-8.22v-4.1m0-8.2v-4.1m0-8.2v-4.1m0-8.2v-4.1m0-8.22v-4.1m0-8.2v-4.1m0-8.2v-4.12m0-8.2v-4.1m0-8.2v-2.06h2M-945-972.6h30v30h-30zm15 5.4v19.2m-9.6-9.6h19.2" stroke="#000" stroke-width="2" fill="none"/><g><use xlink:href="#Z" transform="matrix(1,0,0,1,-1080,-1091.0000000000002) translate(38.69635802469134 84.88888888888889)"/><use xlink:href="#aa" transform="matrix(1,0,0,1,-1080,-1091.0000000000002) translate(112.8445061728395 84.88888888888889)"/></g><path class="lucid-link lucid-hotspot lucid-overlay-hotspot" d="M-1080-1091h300v160h-300z" fill="none"/><path class="lucid-link lucid-hotspot lucid-overlay-hotspot" d="M-1070-1091h4m8 0h4m8 0h4m8 0h4m8 0h4m8 0h4m8 0h4m8 0h4m8 0h4m8 0h4m8 0h4m8 0h4m8 0h4m8 0h4m8 0h4m8 0h4m8 0h4m8 0h4m8 0h4m8 0h4m8 0h4m8 0h4m8 0h4m8 0h4m8 0h2v2.05m0 8.2v4.1m0 8.2v4.12m0 8.2v4.1m0 8.2v4.1m0 8.22v4.1m0 8.2v4.1m0 8.2v4.1m0 8.2v4.1m0 8.22v4.1m0 8.2v4.1m0 8.2v4.12m0 8.2v4.1m0 8.2v2.06h-2m-8 0h-4m-8 0h-4m-8 0h-4m-8 0h-4m-8 0h-4m-8 0h-4m-8 0h-4m-8 0h-4m-8 0h-4m-8 0h-4m-8 0h-4m-8 0h-4m-8 0h-4m-8 0h-4m-8 0h-4m-8 0h-4m-8 0h-4m-8 0h-4m-8 0h-4m-8 0h-4m-8 0h-4m-8 0h-4m-8 0h-4m-8 0h-4m-8 0h-2v-2.05m0-8.2v-4.1m0-8.2v-4.12m0-8.2v-4.1m0-8.2v-4.1m0-8.22v-4.1m0-8.2v-4.1m0-8.2v-4.1m0-8.2v-4.1m0-8.22v-4.1m0-8.2v-4.1m0-8.2v-4.12m0-8.2v-4.1m0-8.2v-2.06h2M-945-972.6h30v30h-30zm15 5.4v19.2m-9.6-9.6h19.2" fill="none"/><path d="M-939.2-303.5h-59.9v.5h-41.4" stroke="#000" stroke-width="2" fill="none"/><path d="M-938.2-302.5h-1v-2h1z"/><path d="M-1055.76-303l14.26-4.64v9.28z" stroke="#000" stroke-width="2"/><path d="M419-299.5H316.5" stroke="#000" stroke-width="2" fill="none"/><path d="M420-298.5h-1v-2h1z"/><path d="M301.24-299.5l14.26-4.64v9.28z" stroke="#000" stroke-width="2"/><path d="M-401.48-391.5l78.7 52.5v122.5h-196.73v-175z" stroke="#000" stroke-width="2" fill="#fff"/><path d="M-401.48-391.5v52.5h78.7z" stroke="#000" stroke-width="2" fill="#fff"/><g><use xlink:href="#ab" transform="matrix(1,0,0,1,-519.510417,-361.5000000000002) translate(39.56172839506172 62.388888888888886)"/><use xlink:href="#ac" transform="matrix(1,0,0,1,-519.510417,-361.5000000000002) translate(99.17901234567901 62.388888888888886)"/></g><path d="M-260-413.5h220v220h-220z" stroke="#000" stroke-width="2" fill="#fff"/><g><use xlink:href="#ad" transform="matrix(1,0,0,1,-260,-413.5000000000002) translate(49.89388888888888 48.833333333333336)"/><use xlink:href="#ae" transform="matrix(1,0,0,1,-260,-413.5000000000002) translate(28.63462962962962 80.83333333333334)"/><use xlink:href="#af" transform="matrix(1,0,0,1,-260,-413.5000000000002) translate(146.93092592592592 80.83333333333334)"/><use xlink:href="#ag" transform="matrix(1,0,0,1,-260,-413.5000000000002) translate(8.597592592592585 112.83333333333334)"/><use xlink:href="#ah" transform="matrix(1,0,0,1,-260,-413.5000000000002) translate(189.1901851851852 112.83333333333334)"/><use xlink:href="#ai" transform="matrix(1,0,0,1,-260,-413.5000000000002) translate(40.48648148148147 144.83333333333334)"/><use xlink:href="#aj" transform="matrix(1,0,0,1,-260,-413.5000000000002) translate(104.04203703703703 144.83333333333334)"/><use xlink:href="#ak" transform="matrix(1,0,0,1,-260,-413.5000000000002) translate(50.04203703703703 176.83333333333334)"/></g><path class="lucid-link lucid-hotspot lucid-overlay-hotspot" d="M-260-413.5h220v220h-220z" fill="none"/><path d="M-261-303.5h-30.4v.56h-11.9" stroke="#000" stroke-width="2" fill="none"/><path d="M-260-302.5h-1v-2h1z"/><path d="M-318.56-302.94l14.27-4.63v9.27z" stroke="#000" stroke-width="2"/><path d="M-505.86-293.5h170.14v71h-170.14z" stroke="#000" stroke-width="2" fill="#fff"/><g><use xlink:href="#al" transform="matrix(1,0,0,1,-505.8645836666666,-293.5000000000001) translate(14.04820987654322 22.787777777777777)"/><use xlink:href="#am" transform="matrix(1,0,0,1,-505.8645836666666,-293.5000000000001) translate(37.50499999999999 49.45444444444445)"/></g><path d="M173.47-471L237-421.35v115.85H78.17V-471z" stroke="#000" stroke-width="2" fill="#fff"/><path d="M173.47-471v49.65H237z" stroke="#000" stroke-width="2" fill="#fff"/><path d="M84.67-428h145v47h-145z" fill="none"/><g><use xlink:href="#an" transform="matrix(1,0,0,1,84.66666666666657,-428.0000000000002) translate(21.67592592592591 28.38888888888889)"/></g><path d="M233.47-388L297-338.35v115.85H138.17V-388z" stroke="#000" stroke-width="2" fill="#fff"/><path d="M233.47-388v49.65H297z" stroke="#000" stroke-width="2" fill="#fff"/><path d="M157.17-342h119v37h-119z" fill="none"/><g><use xlink:href="#ao" transform="matrix(1,0,0,1,157.16666666666657,-342.0000000000002) translate(-19.876543209876573 23.38888888888889)"/></g><path d="M233.05-285.5l63.53 49.65V-120H137.75v-165.5z" stroke="#000" stroke-width="2" fill="#fff"/><path d="M233.05-285.5v49.65h63.53z" stroke="#000" stroke-width="2" fill="#fff"/><path d="M144.67-215h145v47h-145z" fill="none"/><g><use xlink:href="#ap" transform="matrix(1,0,0,1,144.66666666666657,-215.00000000000023) translate(-5.552469135802497 28.38888888888889)"/></g><path d="M77.17-304.5h-58.1v1H-20.5" stroke="#000" stroke-width="2" fill="none"/><path d="M80.17-303.5h-3v-2h3z"/><path d="M-35.76-303.5l14.26-4.64v9.28z" stroke="#000" stroke-width="2"/><defs><path d="M650-1214c-281 0-336 244-336 533 0 295 60 546 347 546 188 0 263-142 322-282l159 65C1058-155 935 20 659 20c-401 0-546-295-546-701 0-407 135-689 536-689 264 0 391 146 466 335l-168 65c-47-129-127-244-297-244" id="aq"/><path d="M615-1102c343 0 484 203 482 560-1 347-147 562-488 562-336 0-475-219-479-562-4-349 156-560 485-560zm-8 989c240 0 301-180 301-429 0-245-55-427-290-427-236 0-299 181-299 427 0 243 61 429 288 429" id="ar"/><path d="M706-1102c241 0 344 136 343 381V0H868v-695c1-168-57-273-220-268-190 6-283 138-283 336V0H185c-3-360 6-732-6-1082h170c4 54 7 126 8 185h3c63-121 164-204 346-205" id="as"/><path d="M682 16c-209 0-323-80-324-285v-671H190v-142h170l58-282h120v282h432v142H538v652c2 114 60 155 182 155 106 0 209-16 297-34v137C921-4 806 16 682 16" id="at"/><path d="M617-1102c355 0 481 238 477 599H322c5 222 84 388 301 388 144 0 244-59 284-166l158 45C1002-72 854 20 623 20c-342 0-490-220-490-568 0-346 151-554 484-554zm291 461c-18-192-90-328-289-328-194 0-287 128-295 328h584" id="au"/><path d="M932 0L611-444 288 0H94l415-556-397-526h199l300 421 298-421h201L713-558 1133 0H932" id="av"/><path d="M35-132v-50h50v50H35zM35 0v-49h50V0H35" id="aw"/><g id="a"><use transform="matrix(0.013020833333333334,0,0,0.013020833333333334,0,0)" xlink:href="#aq"/><use transform="matrix(0.013020833333333334,0,0,0.013020833333333334,16.002604166666668,0)" xlink:href="#ar"/><use transform="matrix(0.013020833333333334,0,0,0.013020833333333334,32.005208333333336,0)" xlink:href="#as"/><use transform="matrix(0.013020833333333334,0,0,0.013020833333333334,48.0078125,0)" xlink:href="#at"/><use transform="matrix(0.013020833333333334,0,0,0.013020833333333334,64.01041666666667,0)" xlink:href="#au"/><use transform="matrix(0.013020833333333334,0,0,0.013020833333333334,80.01302083333334,0)" xlink:href="#av"/><use transform="matrix(0.013020833333333334,0,0,0.013020833333333334,96.01562500000001,0)" xlink:href="#at"/><use transform="matrix(0.07407407407407408,0,0,0.07407407407407408,112.01822916666669,0)" xlink:href="#aw"/></g><path d="M222 0l43-216c-8 16-17 34-26 49L143 0h-22L81-216 41 0H11l48-248h42l38 208 116-208h45L252 0h-30" id="ax"/><path d="M111-194c62-3 86 47 72 106H45c-7 38 6 69 45 68 27-1 43-14 53-32l24 11C152-15 129 4 87 4 38 3 12-23 12-71c0-70 32-119 99-123zm44 81c14-66-71-72-95-28-4 8-8 17-11 28h106" id="ay"/><path d="M133-28C103 26-5 8 13-77c13-62 24-115 90-117 29-1 46 15 56 35l19-102h32L160 0h-30zM45-64c-2 27 10 43 35 43 54-1 69-50 69-103 0-29-15-46-42-46-53-1-58 58-62 106" id="az"/><path d="M50-231l6-30h32l-6 30H50zM6 0l37-190h31L37 0H6" id="aA"/><path d="M44-68c0 29 11 47 38 47 30 0 42-19 51-41l28 9C148-21 126 4 82 4 31 4 10-29 12-85c3-77 74-140 146-93 12 8 15 23 18 40l-31 5c-1-22-13-36-36-36-52 0-65 49-65 101" id="aB"/><path d="M165-48c-4 18 1 34 23 27l-3 20c-29 8-62 0-52-35h-2C116-14 99 4 63 4 30 4 8-16 8-49c0-68 71-67 138-67 10-26 0-56-31-54-26 1-42 9-47 31l-32-5c8-67 160-71 144 15-5 28-9 54-15 81zM42-50c3 52 80 24 89-6 7-12 7-24 11-38-47 1-103-4-100 44" id="aC"/><path d="M51-54c-9 22 5 41 31 30L79-1C43 14 10-4 19-52l22-115H19l5-23h22l19-43h21l-9 43h35l-4 23H73" id="aD"/><path d="M30-147c31-64 166-65 159 27C183-49 158 1 86 4 9 8 1-88 30-147zM88-20c53 0 68-48 68-100 0-31-11-51-44-50-52 1-68 46-68 97 0 32 13 53 44 53" id="aE"/><path d="M67-158c22-48 132-52 116 29L158 0h-32l25-140c3-38-53-32-70-12C52-117 51-52 38 0H6l36-190h30" id="aF"/><path d="M249-183c0 48-29 72-75 77L221 0h-36l-43-103H65L45 0H11l48-248c83 2 190-17 190 65zm-34 3c0-55-74-39-127-41l-18 92c63-1 145 13 145-51" id="aG"/><path d="M133-28C103 26-5 8 13-77c13-62 24-115 90-117 29-1 46 15 56 35 2-12 6-24 8-34h31L144 75h-31zM45-64c-2 27 10 43 35 43 54-1 69-50 69-103 0-29-15-46-42-46-53-1-58 58-62 106" id="aH"/><path d="M67 3c-93-2-31-127-26-193h32L48-50c-3 39 53 32 70 12 30-34 30-101 43-152h32L157 0h-30c1-10 6-24 4-33-14 20-29 37-64 36" id="aI"/><path d="M55-144c13 50 104 24 104 88C159 21 15 23 1-39l26-10c6 40 102 42 102-4-13-50-104-23-104-87 0-71 143-71 148-8l-29 4c-5-35-85-37-89 0" id="aJ"/><g id="b"><use transform="matrix(0.07407407407407408,0,0,0.07407407407407408,0,0)" xlink:href="#ax"/><use transform="matrix(0.07407407407407408,0,0,0.07407407407407408,22.148148148148152,0)" xlink:href="#ay"/><use transform="matrix(0.07407407407407408,0,0,0.07407407407407408,36.96296296296297,0)" xlink:href="#az"/><use transform="matrix(0.07407407407407408,0,0,0.07407407407407408,51.777777777777786,0)" xlink:href="#aA"/><use transform="matrix(0.07407407407407408,0,0,0.07407407407407408,57.62962962962964,0)" xlink:href="#aB"/><use transform="matrix(0.07407407407407408,0,0,0.07407407407407408,70.96296296296298,0)" xlink:href="#aC"/><use transform="matrix(0.07407407407407408,0,0,0.07407407407407408,85.7777777777778,0)" xlink:href="#aD"/><use transform="matrix(0.07407407407407408,0,0,0.07407407407407408,93.18518518518519,0)" xlink:href="#aA"/><use transform="matrix(0.07407407407407408,0,0,0.07407407407407408,99.03703703703705,0)" xlink:href="#aE"/><use transform="matrix(0.07407407407407408,0,0,0.07407407407407408,113.85185185185189,0)" xlink:href="#aF"/><use transform="matrix(0.07407407407407408,0,0,0.07407407407407408,128.66666666666669,0)" xlink:href="#aG"/><use transform="matrix(0.07407407407407408,0,0,0.07407407407407408,147.85185185185188,0)" xlink:href="#ay"/><use transform="matrix(0.07407407407407408,0,0,0.07407407407407408,162.66666666666669,0)" xlink:href="#aH"/><use transform="matrix(0.07407407407407408,0,0,0.07407407407407408,177.4814814814815,0)" xlink:href="#aI"/><use transform="matrix(0.07407407407407408,0,0,0.07407407407407408,192.29629629629628,0)" xlink:href="#ay"/><use transform="matrix(0.07407407407407408,0,0,0.07407407407407408,207.11111111111111,0)" xlink:href="#aJ"/><use transform="matrix(0.07407407407407408,0,0,0.07407407407407408,220.44444444444449,0)" xlink:href="#aD"/></g><path d="M622-1349c296 4 497 117 497 404 0 282-193 424-485 431H353V0H162v-1349h460zm-15 684c195-3 320-88 320-277 0-184-129-255-328-254H353v531h254" id="aK"/><path d="M839-1102c70 0 148 7 206 17v167c-112-18-268-36-363 15-129 69-208 203-208 395V0H294c-10-367 32-789-52-1082h171c21 75 41 161 48 250h5c67-152 152-270 373-270" id="aL"/><path d="M839-1335c-182-6-269 67-259 253h491v142H580V0H400v-940H138v-142h262c-15-293 132-408 418-402 94 2 200 7 281 21v145c-75-10-177-14-260-17" id="aM"/><path d="M631 20c-350 0-501-215-501-562 0-355 162-560 502-560 250 0 399 118 446 323l-192 14c-23-124-109-196-262-196-242 0-305 171-305 415 1 245 61 427 304 427 151 0 248-77 267-215l190 12C1039-107 883 20 631 20" id="aN"/><path d="M648-963c-190 6-283 138-283 336V0H185v-1484h181c-2 197 6 404-9 587h3c62-120 159-205 339-205 242 0 351 135 350 381V0H868v-695c1-168-57-273-220-268" id="aO"/><g id="c"><use transform="matrix(0.013020833333333334,0,0,0.013020833333333334,0,0)" xlink:href="#aK"/><use transform="matrix(0.013020833333333334,0,0,0.013020833333333334,16.002604166666668,0)" xlink:href="#aL"/><use transform="matrix(0.013020833333333334,0,0,0.013020833333333334,32.005208333333336,0)" xlink:href="#au"/><use transform="matrix(0.013020833333333334,0,0,0.013020833333333334,48.0078125,0)" xlink:href="#aM"/><use transform="matrix(0.013020833333333334,0,0,0.013020833333333334,64.01041666666667,0)" xlink:href="#au"/><use transform="matrix(0.013020833333333334,0,0,0.013020833333333334,80.01302083333334,0)" xlink:href="#at"/><use transform="matrix(0.013020833333333334,0,0,0.013020833333333334,96.01562500000001,0)" xlink:href="#aN"/><use transform="matrix(0.013020833333333334,0,0,0.013020833333333334,112.0182291666667,0)" xlink:href="#aO"/><use transform="matrix(0.07407407407407408,0,0,0.07407407407407408,128.02083333333334,0)" xlink:href="#aw"/></g><path d="M205 0l-28-72H64L36 0H1l101-248h38L239 0h-34zm-38-99l-47-123c-12 45-31 82-46 123h93" id="aP"/><path d="M24 0v-261h32V0H24" id="aQ"/><g id="d"><use transform="matrix(0.07407407407407408,0,0,0.07407407407407408,0,0)" xlink:href="#aP"/><use transform="matrix(0.07407407407407408,0,0,0.07407407407407408,17.77777777777778,0)" xlink:href="#aQ"/><use transform="matrix(0.07407407407407408,0,0,0.07407407407407408,23.629629629629633,0)" xlink:href="#aQ"/></g><path d="M117-194c89-4 53 116 60 194h-32v-121c0-31-8-49-39-48C34-167 62-67 57 0H25l-1-190h30c1 10-1 24 2 32 11-22 29-35 61-36" id="aR"/><path d="M100-194c63 0 86 42 84 106H49c0 40 14 67 53 68 26 1 43-12 49-29l28 8c-11 28-37 45-77 45C44 4 14-33 15-96c1-61 26-98 85-98zm52 81c6-60-76-77-97-28-3 7-6 17-6 28h103" id="aS"/><path d="M85-194c31 0 48 13 60 33l-1-100h32l1 261h-30c-2-10 0-23-3-31C134-8 116 4 85 4 32 4 16-35 15-94c0-66 23-100 70-100zm9 24c-40 0-46 34-46 75 0 40 6 74 45 74 42 0 51-32 51-76 0-42-9-74-50-73" id="aT"/><g id="e"><use transform="matrix(0.07407407407407408,0,0,0.07407407407407408,0,0)" xlink:href="#aR"/><use transform="matrix(0.07407407407407408,0,0,0.07407407407407408,14.814814814814817,0)" xlink:href="#aS"/><use transform="matrix(0.07407407407407408,0,0,0.07407407407407408,29.629629629629633,0)" xlink:href="#aS"/><use transform="matrix(0.07407407407407408,0,0,0.07407407407407408,44.44444444444445,0)" xlink:href="#aT"/><use transform="matrix(0.07407407407407408,0,0,0.07407407407407408,59.25925925925927,0)" xlink:href="#aS"/><use transform="matrix(0.07407407407407408,0,0,0.07407407407407408,74.07407407407408,0)" xlink:href="#aT"/></g><path d="M114-163C36-179 61-72 57 0H25l-1-190h30c1 12-1 29 2 39 6-27 23-49 58-41v29" id="aU"/><path d="M135-143c-3-34-86-38-87 0 15 53 115 12 119 90S17 21 10-45l28-5c4 36 97 45 98 0-10-56-113-15-118-90-4-57 82-63 122-42 12 7 21 19 24 35" id="aV"/><path d="M100-194c62-1 85 37 85 99 1 63-27 99-86 99S16-35 15-95c0-66 28-99 85-99zM99-20c44 1 53-31 53-75 0-43-8-75-51-75s-53 32-53 75 10 74 51 75" id="aW"/><path d="M84 4C-5 8 30-112 23-190h32v120c0 31 7 50 39 49 72-2 45-101 50-169h31l1 190h-30c-1-10 1-25-2-33-11 22-28 36-60 37" id="aX"/><path d="M96-169c-40 0-48 33-48 73s9 75 48 75c24 0 41-14 43-38l32 2c-6 37-31 61-74 61-59 0-76-41-82-99-10-93 101-131 147-64 4 7 5 14 7 22l-32 3c-4-21-16-35-41-35" id="aY"/><g id="f"><use transform="matrix(0.07407407407407408,0,0,0.07407407407407408,0,0)" xlink:href="#aU"/><use transform="matrix(0.07407407407407408,0,0,0.07407407407407408,8.814814814814817,0)" xlink:href="#aS"/><use transform="matrix(0.07407407407407408,0,0,0.07407407407407408,23.629629629629633,0)" xlink:href="#aV"/><use transform="matrix(0.07407407407407408,0,0,0.07407407407407408,36.96296296296297,0)" xlink:href="#aW"/><use transform="matrix(0.07407407407407408,0,0,0.07407407407407408,51.777777777777786,0)" xlink:href="#aX"/><use transform="matrix(0.07407407407407408,0,0,0.07407407407407408,66.59259259259261,0)" xlink:href="#aU"/><use transform="matrix(0.07407407407407408,0,0,0.07407407407407408,75.40740740740742,0)" xlink:href="#aY"/><use transform="matrix(0.07407407407407408,0,0,0.07407407407407408,88.74074074074078,0)" xlink:href="#aS"/><use transform="matrix(0.07407407407407408,0,0,0.07407407407407408,103.55555555555557,0)" xlink:href="#aV"/></g><path d="M101-234c-31-9-42 10-38 44h38v23H63V0H32v-167H5v-23h27c-7-52 17-82 69-68v24" id="aZ"/><g id="g"><use transform="matrix(0.07407407407407408,0,0,0.07407407407407408,0,0)" xlink:href="#aZ"/><use transform="matrix(0.07407407407407408,0,0,0.07407407407407408,7.407407407407408,0)" xlink:href="#aW"/><use transform="matrix(0.07407407407407408,0,0,0.07407407407407408,22.222222222222225,0)" xlink:href="#aU"/></g><path d="M108 0H70L1-190h34L89-25l56-165h34" id="ba"/><path d="M24-231v-30h32v30H24zM24 0v-190h32V0H24" id="bb"/><g id="h"><use transform="matrix(0.07407407407407408,0,0,0.07407407407407408,0,0)" xlink:href="#aV"/><use transform="matrix(0.07407407407407408,0,0,0.07407407407407408,13.333333333333336,0)" xlink:href="#aS"/><use transform="matrix(0.07407407407407408,0,0,0.07407407407407408,28.148148148148152,0)" xlink:href="#aU"/><use transform="matrix(0.07407407407407408,0,0,0.07407407407407408,36.96296296296297,0)" xlink:href="#ba"/><use transform="matrix(0.07407407407407408,0,0,0.07407407407407408,50.296296296296305,0)" xlink:href="#bb"/><use transform="matrix(0.07407407407407408,0,0,0.07407407407407408,56.14814814814815,0)" xlink:href="#aY"/><use transform="matrix(0.07407407407407408,0,0,0.07407407407407408,69.4814814814815,0)" xlink:href="#aS"/></g><g id="i"><use transform="matrix(0.07407407407407408,0,0,0.07407407407407408,0,0)" xlink:href="#aW"/><use transform="matrix(0.07407407407407408,0,0,0.07407407407407408,14.814814814814817,0)" xlink:href="#aU"/></g><g id="j"><use transform="matrix(0.07407407407407408,0,0,0.07407407407407408,0,0)" xlink:href="#aR"/><use transform="matrix(0.07407407407407408,0,0,0.07407407407407408,14.814814814814817,0)" xlink:href="#aW"/><use transform="matrix(0.07407407407407408,0,0,0.07407407407407408,29.629629629629633,0)" xlink:href="#aR"/><use transform="matrix(0.07407407407407408,0,0,0.07407407407407408,44.44444444444445,0)" xlink:href="#aS"/></g><path d="M182-130c37 4 62 22 62 59C244 23 116-4 24 0v-248c84 5 203-23 205 63 0 31-19 50-47 55zM76-148c40-3 101 13 101-30 0-44-60-28-101-31v61zm0 110c48-3 116 14 116-37 0-48-69-32-116-35v72" id="bc"/><path d="M133-34C117-15 103 5 69 4 32 3 11-16 11-54c-1-60 55-63 116-61 1-26-3-47-28-47-18 1-26 9-28 27l-52-2c7-38 36-58 82-57s74 22 75 68l1 82c-1 14 12 18 25 15v27c-30 8-71 5-69-32zm-48 3c29 0 43-24 42-57-32 0-66-3-65 30 0 17 8 27 23 27" id="bd"/><path d="M137-138c1-29-70-34-71-4 15 46 118 7 119 86 1 83-164 76-172 9l43-7c4 19 20 25 44 25 33 8 57-30 24-41C81-84 22-81 20-136c-2-80 154-74 161-7" id="be"/><path d="M25-224v-37h50v37H25zM25 0v-190h50V0H25" id="bf"/><path d="M190-63c-7 42-38 67-86 67-59 0-84-38-90-98-12-110 154-137 174-36l-49 2c-2-19-15-32-35-32-30 0-35 28-38 64-6 74 65 87 74 30" id="bg"/><g id="k"><use transform="matrix(0.1111111111111111,0,0,0.1111111111111111,0,0)" xlink:href="#bc"/><use transform="matrix(0.1111111111111111,0,0,0.1111111111111111,28.777777777777775,0)" xlink:href="#bd"/><use transform="matrix(0.1111111111111111,0,0,0.1111111111111111,51,0)" xlink:href="#be"/><use transform="matrix(0.1111111111111111,0,0,0.1111111111111111,73.22222222222223,0)" xlink:href="#bf"/><use transform="matrix(0.1111111111111111,0,0,0.1111111111111111,84.33333333333334,0)" xlink:href="#bg"/></g><path d="M140-251c80 0 125 45 125 126S219 4 139 4C58 4 15-44 15-125s44-126 125-126zm-1 214c52 0 73-35 73-88 0-50-21-86-72-86-52 0-73 35-73 86s22 88 72 88" id="bh"/><path d="M135-150c-39-12-60 13-60 57V0H25l-1-190h47c2 13-1 29 3 40 6-28 27-53 61-41v41" id="bi"/><path d="M88-194c31-1 46 15 58 34l-1-101h50l1 261h-48c-2-10 0-23-3-31C134-8 116 4 84 4 32 4 16-41 15-95c0-56 19-97 73-99zm17 164c33 0 40-30 41-66 1-37-9-64-41-64s-38 30-39 65c0 43 13 65 39 65" id="bj"/><path d="M185-48c-13 30-37 53-82 52C43 2 14-33 14-96s30-98 90-98c62 0 83 45 84 108H66c0 31 8 55 39 56 18 0 30-7 34-22zm-45-69c5-46-57-63-70-21-2 6-4 13-4 21h74" id="bk"/><g id="l"><use transform="matrix(0.1111111111111111,0,0,0.1111111111111111,0,0)" xlink:href="#bh"/><use transform="matrix(0.1111111111111111,0,0,0.1111111111111111,31.11111111111111,0)" xlink:href="#bi"/><use transform="matrix(0.1111111111111111,0,0,0.1111111111111111,46.666666666666664,0)" xlink:href="#bj"/><use transform="matrix(0.1111111111111111,0,0,0.1111111111111111,71,0)" xlink:href="#bk"/><use transform="matrix(0.1111111111111111,0,0,0.1111111111111111,93.22222222222223,0)" xlink:href="#bi"/></g><path d="M169-182c-1-43-94-46-97-3 18 66 151 10 154 114 3 95-165 93-204 36-6-8-10-19-12-30l50-8c3 46 112 56 116 5-17-69-150-10-154-114-4-87 153-88 188-35 5 8 8 18 10 28" id="bl"/><path d="M195-6C206 82 75 100 31 46c-4-6-6-13-8-21l49-6c3 16 16 24 34 25 40 0 42-37 40-79-11 22-30 35-61 35-53 0-70-43-70-97 0-56 18-96 73-97 30 0 46 14 59 34l2-30h47zm-90-29c32 0 41-27 41-63 0-35-9-62-40-62-32 0-39 29-40 63 0 36 9 62 39 62" id="bm"/><path d="M135-194c87-1 58 113 63 194h-50c-7-57 23-157-34-157-59 0-34 97-39 157H25l-1-190h47c2 12-1 28 3 38 12-26 28-41 61-42" id="bn"/><g id="m"><use transform="matrix(0.1111111111111111,0,0,0.1111111111111111,0,0)" xlink:href="#bl"/><use transform="matrix(0.1111111111111111,0,0,0.1111111111111111,26.666666666666664,0)" xlink:href="#bf"/><use transform="matrix(0.1111111111111111,0,0,0.1111111111111111,37.77777777777777,0)" xlink:href="#bm"/><use transform="matrix(0.1111111111111111,0,0,0.1111111111111111,62.11111111111109,0)" xlink:href="#bn"/></g><path d="M128 0H69L1-190h53L99-40l48-150h52" id="bo"/><g id="n"><use transform="matrix(0.1111111111111111,0,0,0.1111111111111111,0,0)" xlink:href="#bl"/><use transform="matrix(0.1111111111111111,0,0,0.1111111111111111,26.666666666666664,0)" xlink:href="#bk"/><use transform="matrix(0.1111111111111111,0,0,0.1111111111111111,48.888888888888886,0)" xlink:href="#bi"/><use transform="matrix(0.1111111111111111,0,0,0.1111111111111111,64.44444444444444,0)" xlink:href="#bo"/><use transform="matrix(0.1111111111111111,0,0,0.1111111111111111,86.66666666666666,0)" xlink:href="#bf"/><use transform="matrix(0.1111111111111111,0,0,0.1111111111111111,97.77777777777777,0)" xlink:href="#bg"/><use transform="matrix(0.1111111111111111,0,0,0.1111111111111111,120,0)" xlink:href="#bk"/></g><path d="M30 0v-248h187v28H63v79h144v27H63v87h162V0H30" id="bp"/><path d="M59-47c-2 24 18 29 38 22v24C64 9 27 4 27-40v-127H5v-23h24l9-43h21v43h35v23H59v120" id="bq"/><g id="o"><use transform="matrix(0.1111111111111111,0,0,0.1111111111111111,0,0)" xlink:href="#bp"/><use transform="matrix(0.1111111111111111,0,0,0.1111111111111111,26.666666666666664,0)" xlink:href="#aQ"/><use transform="matrix(0.1111111111111111,0,0,0.1111111111111111,35.44444444444444,0)" xlink:href="#aS"/><use transform="matrix(0.1111111111111111,0,0,0.1111111111111111,57.666666666666664,0)" xlink:href="#aY"/><use transform="matrix(0.1111111111111111,0,0,0.1111111111111111,77.66666666666666,0)" xlink:href="#bq"/><use transform="matrix(0.1111111111111111,0,0,0.1111111111111111,88.77777777777777,0)" xlink:href="#aU"/><use transform="matrix(0.1111111111111111,0,0,0.1111111111111111,102,0)" xlink:href="#aW"/><use transform="matrix(0.1111111111111111,0,0,0.1111111111111111,124.22222222222224,0)" xlink:href="#aR"/><use transform="matrix(0.1111111111111111,0,0,0.1111111111111111,146.44444444444446,0)" xlink:href="#bb"/><use transform="matrix(0.1111111111111111,0,0,0.1111111111111111,155.22222222222223,0)" xlink:href="#aY"/></g><path d="M197 0v-115H63V0H30v-248h33v105h134v-105h34V0h-34" id="br"/><path d="M141-36C126-15 110 5 73 4 37 3 15-17 15-53c-1-64 63-63 125-63 3-35-9-54-41-54-24 1-41 7-42 31l-33-3c5-37 33-52 76-52 45 0 72 20 72 64v82c-1 20 7 32 28 27v20c-31 9-61-2-59-35zM48-53c0 20 12 33 32 33 41-3 63-29 60-74-43 2-92-5-92 41" id="bs"/><path d="M106-169C34-169 62-67 57 0H25v-261h32l-1 103c12-21 28-36 61-36 89 0 53 116 60 194h-32v-121c2-32-8-49-39-48" id="bt"/><g id="p"><use transform="matrix(0.1111111111111111,0,0,0.1111111111111111,0,0)" xlink:href="#br"/><use transform="matrix(0.1111111111111111,0,0,0.1111111111111111,28.777777777777775,0)" xlink:href="#aS"/><use transform="matrix(0.1111111111111111,0,0,0.1111111111111111,51,0)" xlink:href="#bs"/><use transform="matrix(0.1111111111111111,0,0,0.1111111111111111,73.22222222222223,0)" xlink:href="#aQ"/><use transform="matrix(0.1111111111111111,0,0,0.1111111111111111,82,0)" xlink:href="#bq"/><use transform="matrix(0.1111111111111111,0,0,0.1111111111111111,93.11111111111111,0)" xlink:href="#bt"/></g><path d="M233-177c-1 41-23 64-60 70L243 0h-38l-65-103H63V0H30v-248c88 3 205-21 203 71zM63-129c60-2 137 13 137-47 0-61-80-42-137-45v92" id="bu"/><g id="q"><use transform="matrix(0.1111111111111111,0,0,0.1111111111111111,0,0)" xlink:href="#bu"/><use transform="matrix(0.1111111111111111,0,0,0.1111111111111111,28.777777777777775,0)" xlink:href="#aS"/><use transform="matrix(0.1111111111111111,0,0,0.1111111111111111,51,0)" xlink:href="#aY"/><use transform="matrix(0.1111111111111111,0,0,0.1111111111111111,71,0)" xlink:href="#aW"/><use transform="matrix(0.1111111111111111,0,0,0.1111111111111111,93.22222222222223,0)" xlink:href="#aU"/><use transform="matrix(0.1111111111111111,0,0,0.1111111111111111,106.44444444444446,0)" xlink:href="#aT"/></g><path d="M30-248c87 1 191-15 191 75 0 78-77 80-158 76V0H30v-248zm33 125c57 0 124 11 124-50 0-59-68-47-124-48v98" id="bv"/><path d="M30-248c118-7 216 8 213 122C240-48 200 0 122 0H30v-248zM63-27c89 8 146-16 146-99s-60-101-146-95v194" id="bw"/><path d="M33 0v-248h34V0H33" id="bx"/><g id="r"><use transform="matrix(0.1111111111111111,0,0,0.1111111111111111,0,0)" xlink:href="#bv"/><use transform="matrix(0.1111111111111111,0,0,0.1111111111111111,26.666666666666664,0)" xlink:href="#bw"/><use transform="matrix(0.1111111111111111,0,0,0.1111111111111111,55.44444444444444,0)" xlink:href="#bw"/><use transform="matrix(0.1111111111111111,0,0,0.1111111111111111,84.22222222222221,0)" xlink:href="#bx"/></g><path d="M212-179c-10-28-35-45-73-45-59 0-87 40-87 99 0 60 29 101 89 101 43 0 62-24 78-52l27 14C228-24 195 4 139 4 59 4 22-46 18-125c-6-104 99-153 187-111 19 9 31 26 39 46" id="by"/><path d="M185-189c-5-48-123-54-124 2 14 75 158 14 163 119 3 78-121 87-175 55-17-10-28-26-33-46l33-7c5 56 141 63 141-1 0-78-155-14-162-118-5-82 145-84 179-34 5 7 8 16 11 25" id="bz"/><g id="s"><use transform="matrix(0.1111111111111111,0,0,0.1111111111111111,0,0)" xlink:href="#by"/><use transform="matrix(0.1111111111111111,0,0,0.1111111111111111,28.777777777777775,0)" xlink:href="#bw"/><use transform="matrix(0.1111111111111111,0,0,0.1111111111111111,57.55555555555555,0)" xlink:href="#bz"/></g><path d="M140-251c81 0 123 46 123 126C263-46 219 4 140 4 59 4 17-45 17-125s42-126 123-126zm0 227c63 0 89-41 89-101s-29-99-89-99c-61 0-89 39-89 99S79-25 140-24" id="bA"/><g id="t"><use transform="matrix(0.1111111111111111,0,0,0.1111111111111111,0,0)" xlink:href="#bA"/><use transform="matrix(0.1111111111111111,0,0,0.1111111111111111,31.11111111111111,0)" xlink:href="#aU"/><use transform="matrix(0.1111111111111111,0,0,0.1111111111111111,44.33333333333333,0)" xlink:href="#aT"/><use transform="matrix(0.1111111111111111,0,0,0.1111111111111111,66.55555555555554,0)" xlink:href="#aS"/><use transform="matrix(0.1111111111111111,0,0,0.1111111111111111,88.77777777777777,0)" xlink:href="#aU"/></g><path d="M177-190C167-65 218 103 67 71c-23-6-38-20-44-43l32-5c15 47 100 32 89-28v-30C133-14 115 1 83 1 29 1 15-40 15-95c0-56 16-97 71-98 29-1 48 16 59 35 1-10 0-23 2-32h30zM94-22c36 0 50-32 50-73 0-42-14-75-50-75-39 0-46 34-46 75s6 73 46 73" id="bB"/><g id="u"><use transform="matrix(0.1111111111111111,0,0,0.1111111111111111,0,0)" xlink:href="#bz"/><use transform="matrix(0.1111111111111111,0,0,0.1111111111111111,26.666666666666664,0)" xlink:href="#bb"/><use transform="matrix(0.1111111111111111,0,0,0.1111111111111111,35.44444444444444,0)" xlink:href="#bB"/><use transform="matrix(0.1111111111111111,0,0,0.1111111111111111,57.666666666666664,0)" xlink:href="#aR"/></g><g id="v"><use transform="matrix(0.1111111111111111,0,0,0.1111111111111111,0,0)" xlink:href="#bz"/><use transform="matrix(0.1111111111111111,0,0,0.1111111111111111,26.666666666666664,0)" xlink:href="#aS"/><use transform="matrix(0.1111111111111111,0,0,0.1111111111111111,48.888888888888886,0)" xlink:href="#aU"/><use transform="matrix(0.1111111111111111,0,0,0.1111111111111111,62.11111111111111,0)" xlink:href="#ba"/><use transform="matrix(0.1111111111111111,0,0,0.1111111111111111,82.11111111111111,0)" xlink:href="#bb"/><use transform="matrix(0.1111111111111111,0,0,0.1111111111111111,90.88888888888889,0)" xlink:href="#aY"/><use transform="matrix(0.1111111111111111,0,0,0.1111111111111111,110.88888888888889,0)" xlink:href="#aS"/></g><g id="w"><use transform="matrix(0.1111111111111111,0,0,0.1111111111111111,0,0)" xlink:href="#bu"/><use transform="matrix(0.1111111111111111,0,0,0.1111111111111111,28.777777777777775,0)" xlink:href="#aS"/><use transform="matrix(0.1111111111111111,0,0,0.1111111111111111,51,0)" xlink:href="#aY"/><use transform="matrix(0.1111111111111111,0,0,0.1111111111111111,71,0)" xlink:href="#aW"/><use transform="matrix(0.1111111111111111,0,0,0.1111111111111111,93.22222222222223,0)" xlink:href="#aU"/><use transform="matrix(0.1111111111111111,0,0,0.1111111111111111,106.44444444444446,0)" xlink:href="#aT"/></g><path d="M63-220v92h138v28H63V0H30v-248h175v28H63" id="bC"/><g id="x"><use transform="matrix(0.1111111111111111,0,0,0.1111111111111111,0,0)" xlink:href="#bC"/><use transform="matrix(0.1111111111111111,0,0,0.1111111111111111,24.333333333333332,0)" xlink:href="#br"/><use transform="matrix(0.1111111111111111,0,0,0.1111111111111111,53.11111111111111,0)" xlink:href="#bx"/><use transform="matrix(0.1111111111111111,0,0,0.1111111111111111,64.22222222222221,0)" xlink:href="#bu"/></g><g id="y"><use transform="matrix(0.1111111111111111,0,0,0.1111111111111111,0,0)" xlink:href="#bz"/><use transform="matrix(0.1111111111111111,0,0,0.1111111111111111,26.666666666666664,0)" xlink:href="#aS"/><use transform="matrix(0.1111111111111111,0,0,0.1111111111111111,48.888888888888886,0)" xlink:href="#aU"/><use transform="matrix(0.1111111111111111,0,0,0.1111111111111111,62.11111111111111,0)" xlink:href="#ba"/><use transform="matrix(0.1111111111111111,0,0,0.1111111111111111,82.11111111111111,0)" xlink:href="#aS"/><use transform="matrix(0.1111111111111111,0,0,0.1111111111111111,104.33333333333334,0)" xlink:href="#aU"/></g><path d="M230 0l2-204L168 0h-37L68-204 70 0H24v-248h70l56 185 57-185h69V0h-46" id="bD"/><path d="M199 0l-22-63H83L61 0H9l90-248h61L250 0h-51zm-33-102l-36-108c-10 38-24 72-36 108h72" id="bE"/><path d="M240-174c0 40-23 61-54 70L253 0h-59l-57-94H76V0H24v-248c93 4 217-23 216 74zM76-134c48-2 112 12 112-38 0-48-66-32-112-35v73" id="bF"/><path d="M136-208V0H84v-208H4v-40h212v40h-80" id="bG"/><g id="z"><use transform="matrix(0.08641975308641976,0,0,0.08641975308641976,0,0)" xlink:href="#bl"/><use transform="matrix(0.08641975308641976,0,0,0.08641975308641976,20.740740740740744,0)" xlink:href="#bD"/><use transform="matrix(0.08641975308641976,0,0,0.08641975308641976,46.580246913580254,0)" xlink:href="#bE"/><use transform="matrix(0.08641975308641976,0,0,0.08641975308641976,68.96296296296298,0)" xlink:href="#bF"/><use transform="matrix(0.08641975308641976,0,0,0.08641975308641976,91.34567901234568,0)" xlink:href="#bG"/></g><path d="M85 4C-2 5 27-109 22-190h50c7 57-23 150 33 157 60-5 35-97 40-157h50l1 190h-47c-2-12 1-28-3-38-12 25-28 42-61 42" id="bH"/><path d="M115-3C79 11 28 4 28-45v-112H4v-33h27l15-45h31v45h36v33H77v99c-1 23 16 31 38 25v30" id="bI"/><path d="M114-157C55-157 80-60 75 0H25v-261h50l-1 109c12-26 28-41 61-42 86-1 58 113 63 194h-50c-7-57 23-157-34-157" id="bJ"/><path d="M110-194c64 0 96 36 96 99 0 64-35 99-97 99-61 0-95-36-95-99 0-62 34-99 96-99zm-1 164c35 0 45-28 45-65 0-40-10-65-43-65-34 0-45 26-45 65 0 36 10 65 43 65" id="bK"/><path d="M12 0v-35l95-120H19v-35h142v35L67-36h103V0H12" id="bL"/><g id="A"><use transform="matrix(0.08641975308641976,0,0,0.08641975308641976,0,0)" xlink:href="#bd"/><use transform="matrix(0.08641975308641976,0,0,0.08641975308641976,17.283950617283953,0)" xlink:href="#bH"/><use transform="matrix(0.08641975308641976,0,0,0.08641975308641976,36.20987654320988,0)" xlink:href="#bI"/><use transform="matrix(0.08641975308641976,0,0,0.08641975308641976,46.49382716049383,0)" xlink:href="#bJ"/><use transform="matrix(0.08641975308641976,0,0,0.08641975308641976,65.41975308641976,0)" xlink:href="#bK"/><use transform="matrix(0.08641975308641976,0,0,0.08641975308641976,84.34567901234568,0)" xlink:href="#bi"/><use transform="matrix(0.08641975308641976,0,0,0.08641975308641976,96.44444444444446,0)" xlink:href="#bf"/><use transform="matrix(0.08641975308641976,0,0,0.08641975308641976,105.08641975308643,0)" xlink:href="#bL"/><use transform="matrix(0.08641975308641976,0,0,0.08641975308641976,120.64197530864199,0)" xlink:href="#bd"/><use transform="matrix(0.08641975308641976,0,0,0.08641975308641976,137.92592592592595,0)" xlink:href="#bI"/><use transform="matrix(0.08641975308641976,0,0,0.08641975308641976,148.2098765432099,0)" xlink:href="#bf"/><use transform="matrix(0.08641975308641976,0,0,0.08641975308641976,156.85185185185188,0)" xlink:href="#bK"/><use transform="matrix(0.08641975308641976,0,0,0.08641975308641976,175.7777777777778,0)" xlink:href="#bn"/></g><g id="B"><use transform="matrix(0.08641975308641976,0,0,0.08641975308641976,0,0)" xlink:href="#bd"/><use transform="matrix(0.08641975308641976,0,0,0.08641975308641976,17.283950617283953,0)" xlink:href="#bn"/><use transform="matrix(0.08641975308641976,0,0,0.08641975308641976,36.20987654320988,0)" xlink:href="#bj"/></g><path d="M76-208v77h127v40H76V0H24v-248h183v40H76" id="bM"/><path d="M186 0v-106H76V0H24v-248h52v99h110v-99h50V0h-50" id="bN"/><path d="M24 0v-248h52V0H24" id="bO"/><g id="C"><use transform="matrix(0.08641975308641976,0,0,0.08641975308641976,0,0)" xlink:href="#bM"/><use transform="matrix(0.08641975308641976,0,0,0.08641975308641976,18.925925925925927,0)" xlink:href="#bN"/><use transform="matrix(0.08641975308641976,0,0,0.08641975308641976,41.308641975308646,0)" xlink:href="#bO"/><use transform="matrix(0.08641975308641976,0,0,0.08641975308641976,49.95061728395062,0)" xlink:href="#bF"/></g><g id="D"><use transform="matrix(0.08641975308641976,0,0,0.08641975308641976,0,0)" xlink:href="#bd"/><use transform="matrix(0.08641975308641976,0,0,0.08641975308641976,17.283950617283953,0)" xlink:href="#bg"/><use transform="matrix(0.08641975308641976,0,0,0.08641975308641976,34.567901234567906,0)" xlink:href="#bg"/><use transform="matrix(0.08641975308641976,0,0,0.08641975308641976,51.851851851851855,0)" xlink:href="#bk"/><use transform="matrix(0.08641975308641976,0,0,0.08641975308641976,69.13580246913581,0)" xlink:href="#be"/><use transform="matrix(0.08641975308641976,0,0,0.08641975308641976,86.41975308641976,0)" xlink:href="#be"/></g><path d="M24-248c93 1 206-16 204 79-1 75-69 88-152 82V0H24v-248zm52 121c47 0 100 7 100-41 0-47-54-39-100-39v80" id="bP"/><g id="E"><use transform="matrix(0.08641975308641976,0,0,0.08641975308641976,0,0)" xlink:href="#bP"/><use transform="matrix(0.08641975308641976,0,0,0.08641975308641976,20.740740740740744,0)" xlink:href="#bi"/><use transform="matrix(0.08641975308641976,0,0,0.08641975308641976,32.839506172839506,0)" xlink:href="#bK"/><use transform="matrix(0.08641975308641976,0,0,0.08641975308641976,51.76543209876543,0)" xlink:href="#bg"/><use transform="matrix(0.08641975308641976,0,0,0.08641975308641976,69.04938271604938,0)" xlink:href="#bk"/><use transform="matrix(0.08641975308641976,0,0,0.08641975308641976,86.33333333333333,0)" xlink:href="#be"/><use transform="matrix(0.08641975308641976,0,0,0.08641975308641976,103.61728395061728,0)" xlink:href="#be"/></g><g id="F"><use transform="matrix(0.08641975308641976,0,0,0.08641975308641976,0,0)" xlink:href="#bj"/><use transform="matrix(0.08641975308641976,0,0,0.08641975308641976,18.925925925925927,0)" xlink:href="#bd"/><use transform="matrix(0.08641975308641976,0,0,0.08641975308641976,36.20987654320988,0)" xlink:href="#bI"/><use transform="matrix(0.08641975308641976,0,0,0.08641975308641976,46.49382716049383,0)" xlink:href="#bd"/></g><path d="M231 0h-52l-39-155L100 0H48L-1-190h46L77-45c9-52 24-97 36-145h53l37 145 32-145h46" id="bQ"/><g id="G"><use transform="matrix(0.08641975308641976,0,0,0.08641975308641976,0,0)" xlink:href="#bQ"/><use transform="matrix(0.08641975308641976,0,0,0.08641975308641976,24.19753086419753,0)" xlink:href="#bf"/><use transform="matrix(0.08641975308641976,0,0,0.08641975308641976,32.839506172839506,0)" xlink:href="#bI"/><use transform="matrix(0.08641975308641976,0,0,0.08641975308641976,43.123456790123456,0)" xlink:href="#bJ"/></g><path d="M161-211c-63 0-91 46-91 110 0 39 17 65 58 64 38-1 60-20 74-45l40 20C220-23 184 0 125 4 9 13-10-144 57-208c33-50 166-62 196-1 4 8 9 18 11 27l-48 12c-6-24-25-41-55-41" id="bR"/><path d="M6 0l51-261h49L55 0H6" id="bS"/><path d="M50-224l7-37h49l-7 37H50zM6 0l37-190h49L55 0H6" id="bT"/><path d="M151-194c95 0 34 128 28 194h-49l25-134c0-29-45-25-59-9C67-111 69-48 56 0H6l36-190h47l-4 32c15-20 33-36 66-36" id="bU"/><path d="M67-101c-8 29-7 73 27 71 23-2 32-16 39-37l48 9C170-19 141 4 91 4 36 4 7-28 12-86c6-75 61-124 140-103 26 7 40 29 43 59l-50 4c-1-20-9-34-29-34-35 0-41 29-49 59" id="bV"/><path d="M166-52c-4 17 5 29 24 23l-3 27c-30 11-74 1-67-34C105-15 91 4 56 4 23 4 3-15 2-49c0-64 63-67 128-67 10-22 3-53-29-45-13 3-22 10-25 24l-46-5c5-64 156-77 153 0-1 33-11 60-17 90zM97-88c-44-9-64 57-19 57 31 0 42-28 47-57H97" id="bW"/><g id="H"><use transform="matrix(0.08641975308641976,0,0,0.08641975308641976,0,0)" xlink:href="#bR"/><use transform="matrix(0.08641975308641976,0,0,0.08641975308641976,22.38271604938272,0)" xlink:href="#bS"/><use transform="matrix(0.08641975308641976,0,0,0.08641975308641976,31.024691358024693,0)" xlink:href="#bT"/><use transform="matrix(0.08641975308641976,0,0,0.08641975308641976,39.66666666666667,0)" xlink:href="#bU"/><use transform="matrix(0.08641975308641976,0,0,0.08641975308641976,58.592592592592595,0)" xlink:href="#bT"/><use transform="matrix(0.08641975308641976,0,0,0.08641975308641976,67.23456790123457,0)" xlink:href="#bV"/><use transform="matrix(0.08641975308641976,0,0,0.08641975308641976,84.51851851851852,0)" xlink:href="#bW"/><use transform="matrix(0.08641975308641976,0,0,0.08641975308641976,101.80246913580245,0)" xlink:href="#bS"/></g><path d="M258-177c0 46-32 67-71 75L235 0h-57l-41-94H76L58 0H6l48-248c89 2 204-19 204 71zm-53 3c0-46-63-30-107-33l-14 73c51-2 120 13 121-40" id="bX"/><path d="M114-194c63-2 87 48 72 110H63c-3 28 1 55 31 54 21-1 32-13 37-29l44 13C160-14 137 4 91 4 41 4 11-22 11-73c0-71 33-119 103-121zm30 77c14-47-50-61-67-22-3 6-6 13-8 22h75" id="bY"/><path d="M144-137c-1-29-70-35-71-2 16 41 103 10 103 80C176 9 79 16 32-9 18-17 9-31 4-48l44-6c3 32 80 36 82 1-15-42-103-11-103-82 0-77 157-79 161-8" id="bZ"/><path d="M124-194c51 0 84 22 84 74C207-44 167 4 94 4 43 4 11-23 11-74c0-74 41-120 113-120zM99-30c46 0 58-42 58-86 0-27-11-44-37-44-44 0-55 40-57 84-1 27 10 45 36 46" id="ca"/><path d="M45-171c29-32 103-29 114 14 2-11 5-23 8-33h47L176-2c-3 70-92 96-155 64C9 56 1 42-1 25l50-5c2 28 48 27 63 11 13-13 20-45 21-66-13 20-30 35-62 36-87 3-60-134-26-172zM94-35c41-3 55-43 55-86 0-24-12-39-35-39-43 0-51 48-51 90 0 22 9 37 31 35" id="cb"/><g id="I"><use transform="matrix(0.08641975308641976,0,0,0.08641975308641976,0,0)" xlink:href="#bX"/><use transform="matrix(0.08641975308641976,0,0,0.08641975308641976,22.38271604938272,0)" xlink:href="#bY"/><use transform="matrix(0.08641975308641976,0,0,0.08641975308641976,39.66666666666667,0)" xlink:href="#bW"/><use transform="matrix(0.08641975308641976,0,0,0.08641975308641976,56.95061728395062,0)" xlink:href="#bZ"/><use transform="matrix(0.08641975308641976,0,0,0.08641975308641976,74.23456790123457,0)" xlink:href="#ca"/><use transform="matrix(0.08641975308641976,0,0,0.08641975308641976,93.16049382716048,0)" xlink:href="#bU"/><use transform="matrix(0.08641975308641976,0,0,0.08641975308641976,112.08641975308642,0)" xlink:href="#bT"/><use transform="matrix(0.08641975308641976,0,0,0.08641975308641976,120.72839506172839,0)" xlink:href="#bU"/><use transform="matrix(0.08641975308641976,0,0,0.08641975308641976,139.65432098765433,0)" xlink:href="#cb"/></g><path d="M220-157c-53 9-28 100-34 157h-49v-107c1-27-5-49-29-50C55-147 81-57 75 0H25l-1-190h47c2 12-1 28 3 38 10-53 101-56 108 0 13-22 24-43 59-42 82 1 51 116 57 194h-49v-107c-1-25-5-48-29-50" id="cc"/><path d="M25 0v-261h50V0H25" id="cd"/><g id="J"><use transform="matrix(0.08641975308641976,0,0,0.08641975308641976,0,0)" xlink:href="#cc"/><use transform="matrix(0.08641975308641976,0,0,0.08641975308641976,27.654320987654323,0)" xlink:href="#bK"/><use transform="matrix(0.08641975308641976,0,0,0.08641975308641976,46.580246913580254,0)" xlink:href="#bj"/><use transform="matrix(0.08641975308641976,0,0,0.08641975308641976,65.50617283950618,0)" xlink:href="#bH"/><use transform="matrix(0.08641975308641976,0,0,0.08641975308641976,84.4320987654321,0)" xlink:href="#cd"/><use transform="matrix(0.08641975308641976,0,0,0.08641975308641976,93.07407407407409,0)" xlink:href="#bk"/></g><g id="K"><use transform="matrix(0.06790123456790124,0,0,0.06790123456790124,0,0)" xlink:href="#bz"/><use transform="matrix(0.06790123456790124,0,0,0.06790123456790124,16.296296296296298,0)" xlink:href="#aS"/><use transform="matrix(0.06790123456790124,0,0,0.06790123456790124,29.876543209876544,0)" xlink:href="#aR"/><use transform="matrix(0.06790123456790124,0,0,0.06790123456790124,43.45679012345679,0)" xlink:href="#aT"/></g><g id="L"><use transform="matrix(0.06790123456790124,0,0,0.06790123456790124,0,0)" xlink:href="#by"/><use transform="matrix(0.06790123456790124,0,0,0.06790123456790124,17.58641975308642,0)" xlink:href="#bw"/><use transform="matrix(0.06790123456790124,0,0,0.06790123456790124,35.17283950617284,0)" xlink:href="#bz"/></g><path d="M143 0L79-87 56-68V0H24v-261h32v163l83-92h37l-77 82L181 0h-38" id="ce"/><g id="M"><use transform="matrix(0.06790123456790124,0,0,0.06790123456790124,0,0)" xlink:href="#br"/><use transform="matrix(0.06790123456790124,0,0,0.06790123456790124,17.58641975308642,0)" xlink:href="#aW"/><use transform="matrix(0.06790123456790124,0,0,0.06790123456790124,31.16666666666667,0)" xlink:href="#aW"/><use transform="matrix(0.06790123456790124,0,0,0.06790123456790124,44.74691358024692,0)" xlink:href="#ce"/><use transform="matrix(0.06790123456790124,0,0,0.06790123456790124,56.96913580246914,0)" xlink:href="#aV"/></g><path d="M145-31C134-9 116 4 85 4 32 4 16-35 15-94c0-59 17-99 70-100 32-1 48 14 60 33 0-11-1-24 2-32h30l-1 268h-32zM93-21c41 0 51-33 51-76s-8-73-50-73c-40 0-46 35-46 75s5 74 45 74" id="cf"/><g id="N"><use transform="matrix(0.06790123456790124,0,0,0.06790123456790124,0,0)" xlink:href="#bu"/><use transform="matrix(0.06790123456790124,0,0,0.06790123456790124,17.58641975308642,0)" xlink:href="#aS"/><use transform="matrix(0.06790123456790124,0,0,0.06790123456790124,31.16666666666667,0)" xlink:href="#cf"/><use transform="matrix(0.06790123456790124,0,0,0.06790123456790124,44.74691358024692,0)" xlink:href="#aX"/><use transform="matrix(0.06790123456790124,0,0,0.06790123456790124,58.32716049382716,0)" xlink:href="#aS"/><use transform="matrix(0.06790123456790124,0,0,0.06790123456790124,71.90740740740742,0)" xlink:href="#aV"/><use transform="matrix(0.06790123456790124,0,0,0.06790123456790124,84.12962962962965,0)" xlink:href="#bq"/></g><g id="O"><use transform="matrix(0.08641975308641976,0,0,0.08641975308641976,0,0)" xlink:href="#bP"/><use transform="matrix(0.08641975308641976,0,0,0.08641975308641976,20.740740740740744,0)" xlink:href="#bd"/><use transform="matrix(0.08641975308641976,0,0,0.08641975308641976,38.0246913580247,0)" xlink:href="#bi"/><use transform="matrix(0.08641975308641976,0,0,0.08641975308641976,50.12345679012346,0)" xlink:href="#be"/><use transform="matrix(0.08641975308641976,0,0,0.08641975308641976,67.40740740740742,0)" xlink:href="#bk"/></g><g id="P"><use transform="matrix(0.08641975308641976,0,0,0.08641975308641976,0,0)" xlink:href="#bd"/><use transform="matrix(0.08641975308641976,0,0,0.08641975308641976,17.283950617283953,0)" xlink:href="#bn"/><use transform="matrix(0.08641975308641976,0,0,0.08641975308641976,36.20987654320988,0)" xlink:href="#bj"/></g><path d="M135-194c53 0 70 44 70 98 0 56-19 98-73 100-31 1-45-17-59-34 3 33 2 69 2 105H25l-1-265h48c2 10 0 23 3 31 11-24 29-35 60-35zM114-30c33 0 39-31 40-66 0-38-9-64-40-64-56 0-55 130 0 130" id="cg"/><path d="M14-72v-43h91v43H14" id="ch"/><g id="Q"><use transform="matrix(0.08641975308641976,0,0,0.08641975308641976,0,0)" xlink:href="#cg"/><use transform="matrix(0.08641975308641976,0,0,0.08641975308641976,18.925925925925927,0)" xlink:href="#bi"/><use transform="matrix(0.08641975308641976,0,0,0.08641975308641976,31.024691358024693,0)" xlink:href="#bk"/><use transform="matrix(0.08641975308641976,0,0,0.08641975308641976,48.308641975308646,0)" xlink:href="#ch"/><use transform="matrix(0.08641975308641976,0,0,0.08641975308641976,58.592592592592595,0)" xlink:href="#cg"/><use transform="matrix(0.08641975308641976,0,0,0.08641975308641976,77.51851851851852,0)" xlink:href="#bi"/><use transform="matrix(0.08641975308641976,0,0,0.08641975308641976,89.61728395061729,0)" xlink:href="#bK"/><use transform="matrix(0.08641975308641976,0,0,0.08641975308641976,108.54320987654322,0)" xlink:href="#bg"/><use transform="matrix(0.08641975308641976,0,0,0.08641975308641976,125.82716049382718,0)" xlink:href="#bk"/><use transform="matrix(0.08641975308641976,0,0,0.08641975308641976,143.11111111111111,0)" xlink:href="#be"/><use transform="matrix(0.08641975308641976,0,0,0.08641975308641976,160.39506172839506,0)" xlink:href="#be"/></g><path d="M84 4C32 4 15-41 15-95c0-55 18-99 73-99 29 0 47 12 58 34l2-30h48l-1 265h-49V-32C136-9 114 4 84 4zm21-34c32 0 41-29 41-66 0-36-9-64-40-64-33 0-39 30-40 65 0 43 13 65 39 65" id="ci"/><g id="R"><use transform="matrix(0.08641975308641976,0,0,0.08641975308641976,0,0)" xlink:href="#bF"/><use transform="matrix(0.08641975308641976,0,0,0.08641975308641976,22.38271604938272,0)" xlink:href="#bk"/><use transform="matrix(0.08641975308641976,0,0,0.08641975308641976,39.66666666666667,0)" xlink:href="#ci"/><use transform="matrix(0.08641975308641976,0,0,0.08641975308641976,58.592592592592595,0)" xlink:href="#bH"/><use transform="matrix(0.08641975308641976,0,0,0.08641975308641976,77.51851851851852,0)" xlink:href="#bk"/><use transform="matrix(0.08641975308641976,0,0,0.08641975308641976,94.80246913580245,0)" xlink:href="#be"/><use transform="matrix(0.08641975308641976,0,0,0.08641975308641976,112.08641975308642,0)" xlink:href="#bI"/></g><g id="S"><use transform="matrix(0.07407407407407408,0,0,0.07407407407407408,0,0)" xlink:href="#bv"/><use transform="matrix(0.07407407407407408,0,0,0.07407407407407408,17.77777777777778,0)" xlink:href="#aU"/><use transform="matrix(0.07407407407407408,0,0,0.07407407407407408,26.592592592592595,0)" xlink:href="#aW"/><use transform="matrix(0.07407407407407408,0,0,0.07407407407407408,41.40740740740741,0)" xlink:href="#aY"/><use transform="matrix(0.07407407407407408,0,0,0.07407407407407408,54.74074074074075,0)" xlink:href="#aS"/><use transform="matrix(0.07407407407407408,0,0,0.07407407407407408,69.55555555555557,0)" xlink:href="#aV"/><use transform="matrix(0.07407407407407408,0,0,0.07407407407407408,82.88888888888891,0)" xlink:href="#aV"/></g><g id="T"><use transform="matrix(0.07407407407407408,0,0,0.07407407407407408,0,0)" xlink:href="#bs"/><use transform="matrix(0.07407407407407408,0,0,0.07407407407407408,14.814814814814817,0)" xlink:href="#aR"/><use transform="matrix(0.07407407407407408,0,0,0.07407407407407408,29.629629629629633,0)" xlink:href="#aT"/></g><g id="U"><use transform="matrix(0.07407407407407408,0,0,0.07407407407407408,0,0)" xlink:href="#bv"/><use transform="matrix(0.07407407407407408,0,0,0.07407407407407408,17.77777777777778,0)" xlink:href="#aU"/><use transform="matrix(0.07407407407407408,0,0,0.07407407407407408,26.592592592592595,0)" xlink:href="#aS"/><use transform="matrix(0.07407407407407408,0,0,0.07407407407407408,41.40740740740741,0)" xlink:href="#aV"/><use transform="matrix(0.07407407407407408,0,0,0.07407407407407408,54.74074074074075,0)" xlink:href="#aS"/><use transform="matrix(0.07407407407407408,0,0,0.07407407407407408,69.55555555555557,0)" xlink:href="#aR"/><use transform="matrix(0.07407407407407408,0,0,0.07407407407407408,84.37037037037038,0)" xlink:href="#bq"/></g><path d="M87 75C49 33 22-17 22-94c0-76 28-126 65-167h31c-38 41-64 92-64 168S80 34 118 75H87" id="cj"/><path d="M33-261c38 41 65 92 65 168S71 34 33 75H2C39 34 66-17 66-93S39-220 2-261h31" id="ck"/><g id="V"><use transform="matrix(0.07407407407407408,0,0,0.07407407407407408,0,0)" xlink:href="#by"/><use transform="matrix(0.07407407407407408,0,0,0.07407407407407408,19.185185185185187,0)" xlink:href="#bs"/><use transform="matrix(0.07407407407407408,0,0,0.07407407407407408,34,0)" xlink:href="#aU"/><use transform="matrix(0.07407407407407408,0,0,0.07407407407407408,42.814814814814824,0)" xlink:href="#aT"/><use transform="matrix(0.07407407407407408,0,0,0.07407407407407408,57.62962962962964,0)" xlink:href="#cj"/><use transform="matrix(0.07407407407407408,0,0,0.07407407407407408,66.44444444444446,0)" xlink:href="#aV"/><use transform="matrix(0.07407407407407408,0,0,0.07407407407407408,79.7777777777778,0)" xlink:href="#ck"/></g><path d="M67-125c0 53 21 87 73 88 37 1 54-22 65-47l45 17C233-25 199 4 140 4 58 4 20-42 15-125 8-235 124-281 211-232c18 10 29 29 36 50l-46 12c-8-25-30-41-62-41-52 0-71 34-72 86" id="cl"/><g id="W"><use transform="matrix(0.08641975308641976,0,0,0.08641975308641976,0,0)" xlink:href="#cl"/><use transform="matrix(0.08641975308641976,0,0,0.08641975308641976,22.38271604938272,0)" xlink:href="#cd"/><use transform="matrix(0.08641975308641976,0,0,0.08641975308641976,31.024691358024693,0)" xlink:href="#bf"/><use transform="matrix(0.08641975308641976,0,0,0.08641975308641976,39.66666666666667,0)" xlink:href="#bn"/><use transform="matrix(0.08641975308641976,0,0,0.08641975308641976,58.592592592592595,0)" xlink:href="#bf"/><use transform="matrix(0.08641975308641976,0,0,0.08641975308641976,67.23456790123457,0)" xlink:href="#bg"/><use transform="matrix(0.08641975308641976,0,0,0.08641975308641976,84.51851851851852,0)" xlink:href="#bf"/><use transform="matrix(0.08641975308641976,0,0,0.08641975308641976,93.16049382716048,0)" xlink:href="#bd"/><use transform="matrix(0.08641975308641976,0,0,0.08641975308641976,110.44444444444444,0)" xlink:href="#bn"/></g><g id="X"><use transform="matrix(0.08641975308641976,0,0,0.08641975308641976,0,0)" xlink:href="#bd"/><use transform="matrix(0.08641975308641976,0,0,0.08641975308641976,17.283950617283953,0)" xlink:href="#bg"/><use transform="matrix(0.08641975308641976,0,0,0.08641975308641976,34.567901234567906,0)" xlink:href="#bI"/><use transform="matrix(0.08641975308641976,0,0,0.08641975308641976,44.851851851851855,0)" xlink:href="#bf"/><use transform="matrix(0.08641975308641976,0,0,0.08641975308641976,53.49382716049383,0)" xlink:href="#bK"/><use transform="matrix(0.08641975308641976,0,0,0.08641975308641976,72.41975308641976,0)" xlink:href="#bn"/></g><path d="M865-914c-3-187-2-380-2-570h180v1261c0 76 1 155 6 223H877c-8-49-9-116-10-174h-5C801-44 708 26 530 26c-135 0-234-46-297-139s-95-232-95-419c0-377 131-566 392-566 176 0 271 63 335 184zm-286-51c-222 0-255 197-255 427 0 229 31 425 253 425 237 0 286-195 286-441 0-238-52-411-284-411" id="cm"/><path d="M334-464v-160h560v160H334" id="cn"/><path d="M873-819c-18-114-119-146-250-146-163 0-245 50-245 151 0 151 170 148 294 185 182 54 388 94 388 320 0 240-189 325-439 329-245 4-410-69-454-268l159-31c24 133 136 168 295 165 144-2 270-31 270-171 0-164-195-160-331-202-167-52-350-87-350-299 0-218 173-315 413-313 220 2 373 77 412 260" id="co"/><path d="M745-142h380V0H143v-142h422v-798H246v-142h499v940zM545-1292v-192h200v192H545" id="cp"/><path d="M1048-32c-2 300-135 456-433 456-222-1-358-88-400-267l184-25c22 99 100 157 222 156 184-2 248-125 248-315 0-64 3-133-2-194C807-100 706-13 524-12c-306 0-381-228-381-537 0-318 85-550 400-550 164 0 271 83 325 202h3c1-60 3-134 12-185h171c-13 339-4 702-6 1050zM585-145c210-8 284-178 284-406 0-192-52-331-177-392-33-16-69-22-104-22-223 2-259 184-259 414 0 229 31 415 256 406" id="cq"/><g id="Y"><use transform="matrix(0.01953125,0,0,0.01953125,0,0)" xlink:href="#ar"/><use transform="matrix(0.01953125,0,0,0.01953125,24.00390625,0)" xlink:href="#aL"/><use transform="matrix(0.01953125,0,0,0.01953125,48.0078125,0)" xlink:href="#cm"/><use transform="matrix(0.01953125,0,0,0.01953125,72.01171875,0)" xlink:href="#au"/><use transform="matrix(0.01953125,0,0,0.01953125,96.015625,0)" xlink:href="#aL"/><use transform="matrix(0.01953125,0,0,0.01953125,120.01953125,0)" xlink:href="#cn"/><use transform="matrix(0.01953125,0,0,0.01953125,144.0234375,0)" xlink:href="#co"/><use transform="matrix(0.01953125,0,0,0.01953125,168.02734375,0)" xlink:href="#cp"/><use transform="matrix(0.01953125,0,0,0.01953125,192.03125,0)" xlink:href="#cq"/><use transform="matrix(0.01953125,0,0,0.01953125,216.03515625,0)" xlink:href="#as"/></g><path d="M24-248c120-7 223 5 221 122C244-46 201 0 124 0H24v-248zM76-40c74 7 117-18 117-86 0-67-45-88-117-82v168" id="cr"/><g id="Z"><use transform="matrix(0.08641975308641976,0,0,0.08641975308641976,0,0)" xlink:href="#cl"/><use transform="matrix(0.08641975308641976,0,0,0.08641975308641976,22.38271604938272,0)" xlink:href="#cr"/><use transform="matrix(0.08641975308641976,0,0,0.08641975308641976,44.76543209876544,0)" xlink:href="#bl"/></g><path d="M123 10C108 53 80 86 19 72V37c35 8 53-11 59-39L3-190h52l48 148c12-52 28-100 44-148h51" id="cs"/><g id="aa"><use transform="matrix(0.08641975308641976,0,0,0.08641975308641976,0,0)" xlink:href="#cr"/><use transform="matrix(0.08641975308641976,0,0,0.08641975308641976,22.38271604938272,0)" xlink:href="#bf"/><use transform="matrix(0.08641975308641976,0,0,0.08641975308641976,31.024691358024693,0)" xlink:href="#be"/><use transform="matrix(0.08641975308641976,0,0,0.08641975308641976,48.308641975308646,0)" xlink:href="#bg"/><use transform="matrix(0.08641975308641976,0,0,0.08641975308641976,65.5925925925926,0)" xlink:href="#bK"/><use transform="matrix(0.08641975308641976,0,0,0.08641975308641976,84.51851851851852,0)" xlink:href="#bo"/><use transform="matrix(0.08641975308641976,0,0,0.08641975308641976,101.80246913580245,0)" xlink:href="#bk"/><use transform="matrix(0.08641975308641976,0,0,0.08641975308641976,119.08641975308642,0)" xlink:href="#bi"/><use transform="matrix(0.08641975308641976,0,0,0.08641975308641976,131.1851851851852,0)" xlink:href="#cs"/></g><g id="ab"><use transform="matrix(0.06790123456790124,0,0,0.06790123456790124,0,0)" xlink:href="#by"/><use transform="matrix(0.06790123456790124,0,0,0.06790123456790124,17.58641975308642,0)" xlink:href="#bs"/><use transform="matrix(0.06790123456790124,0,0,0.06790123456790124,31.16666666666667,0)" xlink:href="#aU"/><use transform="matrix(0.06790123456790124,0,0,0.06790123456790124,39.24691358024692,0)" xlink:href="#aT"/></g><path d="M179-190L93 31C79 59 56 82 12 73V49c39 6 53-20 64-50L1-190h34L92-34l54-156h33" id="ct"/><g id="ac"><use transform="matrix(0.06790123456790124,0,0,0.06790123456790124,0,0)" xlink:href="#aP"/><use transform="matrix(0.06790123456790124,0,0,0.06790123456790124,16.296296296296298,0)" xlink:href="#aU"/><use transform="matrix(0.06790123456790124,0,0,0.06790123456790124,24.376543209876544,0)" xlink:href="#aU"/><use transform="matrix(0.06790123456790124,0,0,0.06790123456790124,32.45679012345679,0)" xlink:href="#bs"/><use transform="matrix(0.06790123456790124,0,0,0.06790123456790124,46.03703703703704,0)" xlink:href="#ct"/></g><path d="M127-220V0H93v-220H8v-28h204v28h-85" id="cu"/><path d="M210-169c-67 3-38 105-44 169h-31v-121c0-29-5-50-35-48C34-165 62-65 56 0H25l-1-190h30c1 10-1 24 2 32 10-44 99-50 107 0 11-21 27-35 58-36 85-2 47 119 55 194h-31v-121c0-29-5-49-35-48" id="cv"/><g id="ad"><use transform="matrix(0.07407407407407408,0,0,0.07407407407407408,0,0)" xlink:href="#cu"/><use transform="matrix(0.07407407407407408,0,0,0.07407407407407408,15.259259259259261,0)" xlink:href="#aU"/><use transform="matrix(0.07407407407407408,0,0,0.07407407407407408,24.074074074074076,0)" xlink:href="#bs"/><use transform="matrix(0.07407407407407408,0,0,0.07407407407407408,38.88888888888889,0)" xlink:href="#aR"/><use transform="matrix(0.07407407407407408,0,0,0.07407407407407408,53.70370370370371,0)" xlink:href="#aV"/><use transform="matrix(0.07407407407407408,0,0,0.07407407407407408,67.03703703703704,0)" xlink:href="#aZ"/><use transform="matrix(0.07407407407407408,0,0,0.07407407407407408,74.44444444444444,0)" xlink:href="#aW"/><use transform="matrix(0.07407407407407408,0,0,0.07407407407407408,89.25925925925927,0)" xlink:href="#aU"/><use transform="matrix(0.07407407407407408,0,0,0.07407407407407408,98.07407407407408,0)" xlink:href="#cv"/></g><g id="ae"><use transform="matrix(0.07407407407407408,0,0,0.07407407407407408,0,0)" xlink:href="#by"/><use transform="matrix(0.07407407407407408,0,0,0.07407407407407408,19.185185185185187,0)" xlink:href="#bs"/><use transform="matrix(0.07407407407407408,0,0,0.07407407407407408,34,0)" xlink:href="#aU"/><use transform="matrix(0.07407407407407408,0,0,0.07407407407407408,42.814814814814824,0)" xlink:href="#aS"/><use transform="matrix(0.07407407407407408,0,0,0.07407407407407408,57.62962962962964,0)" xlink:href="#bv"/><use transform="matrix(0.07407407407407408,0,0,0.07407407407407408,75.40740740740742,0)" xlink:href="#aQ"/><use transform="matrix(0.07407407407407408,0,0,0.07407407407407408,81.25925925925927,0)" xlink:href="#bs"/><use transform="matrix(0.07407407407407408,0,0,0.07407407407407408,96.07407407407408,0)" xlink:href="#aR"/></g><g id="af"><use transform="matrix(0.07407407407407408,0,0,0.07407407407407408,0,0)" xlink:href="#bs"/><use transform="matrix(0.07407407407407408,0,0,0.07407407407407408,14.814814814814817,0)" xlink:href="#aR"/><use transform="matrix(0.07407407407407408,0,0,0.07407407407407408,29.629629629629633,0)" xlink:href="#aT"/></g><path d="M52-101C46-14 166-7 216-51l9-45h-74l6-28h105l-18 87C217-12 181 4 130 4 60 4 18-31 18-101c0-106 78-167 188-146 30 6 48 27 59 54l-34 9c-10-26-31-41-67-40-75 1-107 50-112 123" id="cw"/><path d="M66-151c12-25 30-51 66-40l-6 26C45-176 58-65 38 0H6l36-190h30" id="cx"/><path d="M67-162c32-53 139-36 121 50C175-51 163 2 97 4 68 4 52-11 42-31 38 6 28 39 22 75H-9l50-265h29c-1 10 0 20-3 28zm89 36c0-26-10-43-35-43-54 0-67 50-69 103-1 29 14 45 42 46 53 0 62-58 62-106" id="cy"/><g id="ag"><use transform="matrix(0.07407407407407408,0,0,0.07407407407407408,0,0)" xlink:href="#aG"/><use transform="matrix(0.07407407407407408,0,0,0.07407407407407408,19.185185185185187,0)" xlink:href="#ay"/><use transform="matrix(0.07407407407407408,0,0,0.07407407407407408,34,0)" xlink:href="#aH"/><use transform="matrix(0.07407407407407408,0,0,0.07407407407407408,48.81481481481481,0)" xlink:href="#aI"/><use transform="matrix(0.07407407407407408,0,0,0.07407407407407408,63.629629629629626,0)" xlink:href="#ay"/><use transform="matrix(0.07407407407407408,0,0,0.07407407407407408,78.44444444444446,0)" xlink:href="#aJ"/><use transform="matrix(0.07407407407407408,0,0,0.07407407407407408,91.7777777777778,0)" xlink:href="#aD"/><use transform="matrix(0.07407407407407408,0,0,0.07407407407407408,99.1851851851852,0)" xlink:href="#cw"/><use transform="matrix(0.07407407407407408,0,0,0.07407407407407408,119.92592592592595,0)" xlink:href="#cx"/><use transform="matrix(0.07407407407407408,0,0,0.07407407407407408,128.74074074074076,0)" xlink:href="#aE"/><use transform="matrix(0.07407407407407408,0,0,0.07407407407407408,143.55555555555557,0)" xlink:href="#aI"/><use transform="matrix(0.07407407407407408,0,0,0.07407407407407408,158.37037037037038,0)" xlink:href="#cy"/></g><g id="ah"><use transform="matrix(0.07407407407407408,0,0,0.07407407407407408,0,0)" xlink:href="#bq"/><use transform="matrix(0.07407407407407408,0,0,0.07407407407407408,7.407407407407408,0)" xlink:href="#aW"/></g><g id="ai"><use transform="matrix(0.07407407407407408,0,0,0.07407407407407408,0,0)" xlink:href="#by"/><use transform="matrix(0.07407407407407408,0,0,0.07407407407407408,19.185185185185187,0)" xlink:href="#bw"/><use transform="matrix(0.07407407407407408,0,0,0.07407407407407408,38.370370370370374,0)" xlink:href="#bz"/></g><g id="aj"><use transform="matrix(0.07407407407407408,0,0,0.07407407407407408,0,0)" xlink:href="#br"/><use transform="matrix(0.07407407407407408,0,0,0.07407407407407408,19.185185185185187,0)" xlink:href="#aW"/><use transform="matrix(0.07407407407407408,0,0,0.07407407407407408,34,0)" xlink:href="#aW"/><use transform="matrix(0.07407407407407408,0,0,0.07407407407407408,48.81481481481481,0)" xlink:href="#ce"/><use transform="matrix(0.07407407407407408,0,0,0.07407407407407408,62.14814814814816,0)" xlink:href="#aV"/></g><path d="M115-194c55 1 70 41 70 98S169 2 115 4C84 4 66-9 55-30l1 105H24l-1-265h31l2 30c10-21 28-34 59-34zm-8 174c40 0 45-34 45-75s-6-73-45-74c-42 0-51 32-51 76 0 43 10 73 51 73" id="cz"/><g id="ak"><use transform="matrix(0.07407407407407408,0,0,0.07407407407407408,0,0)" xlink:href="#bu"/><use transform="matrix(0.07407407407407408,0,0,0.07407407407407408,19.185185185185187,0)" xlink:href="#aS"/><use transform="matrix(0.07407407407407408,0,0,0.07407407407407408,34,0)" xlink:href="#aV"/><use transform="matrix(0.07407407407407408,0,0,0.07407407407407408,47.33333333333334,0)" xlink:href="#cz"/><use transform="matrix(0.07407407407407408,0,0,0.07407407407407408,62.14814814814816,0)" xlink:href="#aW"/><use transform="matrix(0.07407407407407408,0,0,0.07407407407407408,76.96296296296296,0)" xlink:href="#aR"/><use transform="matrix(0.07407407407407408,0,0,0.07407407407407408,91.77777777777777,0)" xlink:href="#aV"/><use transform="matrix(0.07407407407407408,0,0,0.07407407407407408,105.11111111111111,0)" xlink:href="#aS"/></g><path d="M248-139C247-14 144 9 11 0l48-248c105-6 190 8 189 109zm-34 0c1-70-52-87-126-82L50-27c98 7 163-21 164-112" id="cA"/><path d="M14 0l48-248h34L48 0H14" id="cB"/><g id="al"><use transform="matrix(0.06172839506172839,0,0,0.06172839506172839,0,0)" xlink:href="#cA"/><use transform="matrix(0.06172839506172839,0,0,0.06172839506172839,15.987654320987653,0)" xlink:href="#ay"/><use transform="matrix(0.06172839506172839,0,0,0.06172839506172839,28.333333333333332,0)" xlink:href="#aD"/><use transform="matrix(0.06172839506172839,0,0,0.06172839506172839,34.50617283950617,0)" xlink:href="#ay"/><use transform="matrix(0.06172839506172839,0,0,0.06172839506172839,46.85185185185185,0)" xlink:href="#aB"/><use transform="matrix(0.06172839506172839,0,0,0.06172839506172839,57.96296296296296,0)" xlink:href="#aD"/><use transform="matrix(0.06172839506172839,0,0,0.06172839506172839,64.1358024691358,0)" xlink:href="#ay"/><use transform="matrix(0.06172839506172839,0,0,0.06172839506172839,76.48148148148148,0)" xlink:href="#az"/><use transform="matrix(0.06172839506172839,0,0,0.06172839506172839,88.82716049382717,0)" xlink:href="#cB"/><use transform="matrix(0.06172839506172839,0,0,0.06172839506172839,95,0)" xlink:href="#aJ"/><use transform="matrix(0.06172839506172839,0,0,0.06172839506172839,106.11111111111111,0)" xlink:href="#aJ"/><use transform="matrix(0.06172839506172839,0,0,0.06172839506172839,117.22222222222223,0)" xlink:href="#aI"/><use transform="matrix(0.06172839506172839,0,0,0.06172839506172839,129.5679012345679,0)" xlink:href="#ay"/></g><path d="M141 0L90-78 38 0H4l68-98-65-92h35l48 74 47-74h35l-64 92 68 98h-35" id="cC"/><g id="am"><use transform="matrix(0.06172839506172839,0,0,0.06172839506172839,0,0)" xlink:href="#aS"/><use transform="matrix(0.06172839506172839,0,0,0.06172839506172839,12.345679012345679,0)" xlink:href="#cC"/><use transform="matrix(0.06172839506172839,0,0,0.06172839506172839,23.45679012345679,0)" xlink:href="#bq"/><use transform="matrix(0.06172839506172839,0,0,0.06172839506172839,29.62962962962963,0)" xlink:href="#aS"/><use transform="matrix(0.06172839506172839,0,0,0.06172839506172839,41.97530864197531,0)" xlink:href="#aR"/><use transform="matrix(0.06172839506172839,0,0,0.06172839506172839,54.32098765432099,0)" xlink:href="#aV"/><use transform="matrix(0.06172839506172839,0,0,0.06172839506172839,65.4320987654321,0)" xlink:href="#bb"/><use transform="matrix(0.06172839506172839,0,0,0.06172839506172839,70.30864197530865,0)" xlink:href="#aW"/><use transform="matrix(0.06172839506172839,0,0,0.06172839506172839,82.65432098765433,0)" xlink:href="#aR"/></g><path d="M125-24c46 0 70-25 89-51l25 16C214-24 183 4 123 4 8 4-5-146 60-208c32-50 158-61 191-5 5 7 9 14 11 22l-32 10c-9-28-33-43-69-43-74 0-108 51-108 125 0 46 24 75 72 75" id="cD"/><path d="M238-179c0 84-86 86-175 82L45 0H11l48-248c82 0 179-12 179 69zm-34 1c0-53-64-42-116-43l-19 98c63 0 135 9 135-55" id="cE"/><path d="M6 0l50-261h32L37 0H6" id="cF"/><path d="M67-158c15-20 31-36 64-36 94 0 33 127 27 194h-32l25-140c3-38-53-32-70-12C52-117 51-51 37 0H6l51-261h31" id="cG"/><g id="an"><use transform="matrix(0.06790123456790124,0,0,0.06790123456790124,0,0)" xlink:href="#cD"/><use transform="matrix(0.06790123456790124,0,0,0.06790123456790124,17.58641975308642,0)" xlink:href="#aC"/><use transform="matrix(0.06790123456790124,0,0,0.06790123456790124,31.16666666666667,0)" xlink:href="#cx"/><use transform="matrix(0.06790123456790124,0,0,0.06790123456790124,39.24691358024692,0)" xlink:href="#ay"/><use transform="matrix(0.06790123456790124,0,0,0.06790123456790124,52.827160493827165,0)" xlink:href="#cE"/><use transform="matrix(0.06790123456790124,0,0,0.06790123456790124,69.12345679012347,0)" xlink:href="#cF"/><use transform="matrix(0.06790123456790124,0,0,0.06790123456790124,74.48765432098766,0)" xlink:href="#aC"/><use transform="matrix(0.06790123456790124,0,0,0.06790123456790124,88.06790123456793,0)" xlink:href="#cG"/></g><g id="ao"><use transform="matrix(0.06790123456790124,0,0,0.06790123456790124,0,0)" xlink:href="#aG"/><use transform="matrix(0.06790123456790124,0,0,0.06790123456790124,17.58641975308642,0)" xlink:href="#ay"/><use transform="matrix(0.06790123456790124,0,0,0.06790123456790124,31.16666666666667,0)" xlink:href="#aH"/><use transform="matrix(0.06790123456790124,0,0,0.06790123456790124,44.74691358024692,0)" xlink:href="#aI"/><use transform="matrix(0.06790123456790124,0,0,0.06790123456790124,58.32716049382716,0)" xlink:href="#ay"/><use transform="matrix(0.06790123456790124,0,0,0.06790123456790124,71.90740740740742,0)" xlink:href="#aJ"/><use transform="matrix(0.06790123456790124,0,0,0.06790123456790124,84.12962962962965,0)" xlink:href="#aD"/><use transform="matrix(0.06790123456790124,0,0,0.06790123456790124,90.91975308641979,0)" xlink:href="#cw"/><use transform="matrix(0.06790123456790124,0,0,0.06790123456790124,109.93209876543213,0)" xlink:href="#cx"/><use transform="matrix(0.06790123456790124,0,0,0.06790123456790124,118.01234567901238,0)" xlink:href="#aE"/><use transform="matrix(0.06790123456790124,0,0,0.06790123456790124,131.59259259259264,0)" xlink:href="#aI"/><use transform="matrix(0.06790123456790124,0,0,0.06790123456790124,145.1728395061729,0)" xlink:href="#cy"/></g><g id="ap"><use transform="matrix(0.06790123456790124,0,0,0.06790123456790124,0,0)" xlink:href="#cA"/><use transform="matrix(0.06790123456790124,0,0,0.06790123456790124,17.58641975308642,0)" xlink:href="#ay"/><use transform="matrix(0.06790123456790124,0,0,0.06790123456790124,31.16666666666667,0)" xlink:href="#aD"/><use transform="matrix(0.06790123456790124,0,0,0.06790123456790124,37.9567901234568,0)" xlink:href="#ay"/><use transform="matrix(0.06790123456790124,0,0,0.06790123456790124,51.537037037037045,0)" xlink:href="#aB"/><use transform="matrix(0.06790123456790124,0,0,0.06790123456790124,63.75925925925927,0)" xlink:href="#aD"/><use transform="matrix(0.06790123456790124,0,0,0.06790123456790124,70.5493827160494,0)" xlink:href="#ay"/><use transform="matrix(0.06790123456790124,0,0,0.06790123456790124,84.12962962962965,0)" xlink:href="#az"/><use transform="matrix(0.06790123456790124,0,0,0.06790123456790124,97.7098765432099,0)" xlink:href="#cB"/><use transform="matrix(0.06790123456790124,0,0,0.06790123456790124,104.50000000000003,0)" xlink:href="#aJ"/><use transform="matrix(0.06790123456790124,0,0,0.06790123456790124,116.72222222222226,0)" xlink:href="#aJ"/><use transform="matrix(0.06790123456790124,0,0,0.06790123456790124,128.94444444444449,0)" xlink:href="#aI"/><use transform="matrix(0.06790123456790124,0,0,0.06790123456790124,142.52469135802474,0)" xlink:href="#ay"/></g></defs></g></svg>