<svg xmlns="http://www.w3.org/2000/svg" xmlns:xlink="http://www.w3.org/1999/xlink" xmlns:lucid="lucid" width="1860.41" height="1020"><g transform="translate(-80 -160)" lucid:page-tab-id="Yp.whQkeYrh5"><path d="M0 0h3456v1360H0z" fill="#fff"/><path d="M341 280h70v161h-70z" fill="#fff"/><path d="M348 280h-7v161h7" stroke="#000" stroke-width="2" fill="none"/><path d="M260 599c0 16.57-13.43 30-30 30s-30-13.43-30-30 13.43-30 30-30 30 13.43 30 30z" stroke="#000" stroke-width="2" fill="#fff"/><use xlink:href="#a" transform="matrix(1,0,0,1,200,629) translate(-10.061728395061728 17.77777777777778)"/><use xlink:href="#b" transform="matrix(1,0,0,1,200,629) translate(-36.67751736111113 44.44444444444444)"/><use xlink:href="#c" transform="matrix(1,0,0,1,200,629) translate(-11.327160493827158 71.11111111111111)"/><path d="M574.5 599l37.5-37.5 37.5 37.5-37.5 37.5z" stroke="#000" stroke-width="2" fill="#fff"/><path d="M597 584l30 30m-30 0l30-30" stroke="#000" stroke-width="4" fill="none"/><path d="M361 559h144v80H361z" stroke="#000" stroke-width="2" fill="#fff"/><use xlink:href="#d" transform="matrix(1,0,0,1,361,559) translate(43.02351851851852 30.27777777777778)"/><use xlink:href="#e" transform="matrix(1,0,0,1,361,559) translate(30.677839506172838 56.94444444444445)"/><path d="M514 479h196v80H514z" fill="#fff" fill-opacity="0"/><use xlink:href="#f" transform="matrix(1,0,0,1,519,484) translate(7.907407407407419 26.611111111111114)"/><use xlink:href="#g" transform="matrix(1,0,0,1,519,484) translate(96.73456790123457 26.611111111111114)"/><use xlink:href="#h" transform="matrix(1,0,0,1,519,484) translate(22.043209876543216 53.27777777777778)"/><use xlink:href="#i" transform="matrix(1,0,0,1,519,484) translate(108.40123456790124 53.27777777777778)"/><path d="M770.5 465h217v96h-217z" fill="#fff" fill-opacity="0"/><use xlink:href="#f" transform="matrix(1,0,0,1,775.5,470) translate(18.40740740740742 20.77777777777778)"/><use xlink:href="#g" transform="matrix(1,0,0,1,775.5,470) translate(107.23456790123457 20.77777777777778)"/><use xlink:href="#j" transform="matrix(1,0,0,1,775.5,470) translate(23.407407407407405 47.44444444444444)"/><use xlink:href="#k" transform="matrix(1,0,0,1,775.5,470) translate(32.512345679012356 74.11111111111111)"/><use xlink:href="#l" transform="matrix(1,0,0,1,775.5,470) translate(107.82098765432099 74.11111111111111)"/><path d="M841.1 599l37.5-37.5 37.5 37.5-37.5 37.5z" stroke="#000" stroke-width="2" fill="#fff"/><path d="M863.6 584l30 30m-30 0l30-30" stroke="#000" stroke-width="4" fill="none"/><path d="M717.25 600H650.9v-2h66.35zm103.92 0H740.2v-2h80.97zM650.9 600h-2.4l1-1-1-1h2.4zM836.44 599l-14.27 4.64v-9.28z"/><path d="M839.67 599l-18.5 6v-12zm-16.5 3.26L833.2 599l-10.03-3.26z"/><use xlink:href="#m" transform="matrix(1,0,0,1,717.2483969928643,588.2) translate(0 14.4)"/><path d="M506 599h48.58" stroke="#000" stroke-width="2" fill="none"/><path d="M506 600h-1v-2h1z"/><path d="M569.85 599l-14.27 4.64v-9.28z" stroke="#000" stroke-width="2"/><path d="M1109.6 599c0 16.57-13.45 30-30 30-16.58 0-30-13.43-30-30s13.42-30 30-30c16.55 0 30 13.43 30 30z" stroke="#000" stroke-width="6" fill="#fff"/><use xlink:href="#n" transform="matrix(1,0,0,1,1049.585786,629) translate(7.160493827160497 17.77777777777778)"/><path d="M952.1 600h-34.6v-2h34.6zm78.98 0h-56.02v-2h56.02zM917.5 600h-2.4l1-1-1-1h2.4zM1046.35 599l-14.27 4.64v-9.28z"/><path d="M1049.6 599l-18.52 6v-12zm-16.52 3.26l10.03-3.26-10.02-3.26z"/><use xlink:href="#m" transform="matrix(1,0,0,1,952.1107857150647,588.2) translate(0 14.4)"/><path d="M798.6 769h160v120h-160z" stroke="#000" stroke-width="2" fill="#fff"/><use xlink:href="#o" transform="matrix(1,0,0,1,798.5857860000001,769) translate(18.92475308641975 36.52777777777778)"/><use xlink:href="#p" transform="matrix(1,0,0,1,798.5857860000001,769) translate(60.90006172839506 36.52777777777778)"/><use xlink:href="#q" transform="matrix(1,0,0,1,798.5857860000001,769) translate(6.6716666666666615 63.19444444444445)"/><use xlink:href="#r" transform="matrix(1,0,0,1,798.5857860000001,769) translate(56.054382716049375 63.19444444444445)"/><use xlink:href="#s" transform="matrix(1,0,0,1,798.5857860000001,769) translate(106.54820987654321 63.19444444444445)"/><use xlink:href="#t" transform="matrix(1,0,0,1,798.5857860000001,769) translate(20.282777777777774 89.86111111111111)"/><use xlink:href="#u" transform="matrix(1,0,0,1,798.5857860000001,769) translate(78.12228395061729 89.86111111111111)"/><path d="M879.6 749.5h-2v-49.7h2zm0-71.3h-2v-40.3h2zM879.6 637.9h-2v-2.4l1 1 1-1zM878.6 764.76l-4.65-14.26h9.27z"/><path d="M878.6 768l-6.03-18.5h12.03zm-3.27-16.5l3.26 10.03 3.24-10.03z"/><use xlink:href="#v" transform="matrix(1,0,0,1,863.9107860000001,678.199999734233) translate(0 14.4)"/><path d="M261 599h80.5" stroke="#000" stroke-width="2" fill="none"/><path d="M261 600h-1.08l.08-1-.04-1H261z"/><path d="M356.76 599l-14.26 4.64v-9.28z" stroke="#000" stroke-width="2"/><path d="M361 280h219.33v22.67H361z" fill="none"/><use xlink:href="#w" transform="matrix(1,0,0,1,360.9999999999999,280) translate(0 14.4)"/><use xlink:href="#x" transform="matrix(1,0,0,1,360.9999999999999,280) translate(44 14.4)"/><use xlink:href="#y" transform="matrix(1,0,0,1,360.9999999999999,280) translate(54.95 14.4)"/><path d="M361 302.67h219.33v22.66H361z" fill="none"/><use xlink:href="#z" transform="matrix(1,0,0,1,361,302.66666666666674) translate(0 14.4)"/><use xlink:href="#x" transform="matrix(1,0,0,1,361,302.66666666666674) translate(112 14.4)"/><use xlink:href="#y" transform="matrix(1,0,0,1,361,302.66666666666674) translate(122.95 14.4)"/><path d="M361 325.33h199.33V348H361z" fill="none"/><use xlink:href="#A" transform="matrix(1,0,0,1,361,325.33333333333337) translate(0 14.4)"/><use xlink:href="#x" transform="matrix(1,0,0,1,361,325.33333333333337) translate(82.8 14.4)"/><use xlink:href="#B" transform="matrix(1,0,0,1,361,325.33333333333337) translate(93.75 14.4)"/><path d="M361 348h233.33v22.67H361z" fill="none"/><use xlink:href="#C" transform="matrix(1,0,0,1,361,348.0000000000001) translate(0 14.4)"/><use xlink:href="#x" transform="matrix(1,0,0,1,361,348.0000000000001) translate(134.75 14.4)"/><use xlink:href="#D" transform="matrix(1,0,0,1,361,348.0000000000001) translate(145.7 14.4)"/><path d="M360.67 370.67H520v22H360.67z" fill="none"/><use xlink:href="#E" transform="matrix(1,0,0,1,360.66666666666674,370.66666666666674) translate(0 14.4)"/><use xlink:href="#x" transform="matrix(1,0,0,1,360.66666666666674,370.66666666666674) translate(39.95 14.4)"/><use xlink:href="#y" transform="matrix(1,0,0,1,360.66666666666674,370.66666666666674) translate(50.900000000000006 14.4)"/><path d="M361 392.67h179.33v22.66H361z" fill="none"/><use xlink:href="#F" transform="matrix(1,0,0,1,361,392.6666666666672) translate(0 14.4)"/><use xlink:href="#x" transform="matrix(1,0,0,1,361,392.6666666666672) translate(63 14.4)"/><use xlink:href="#y" transform="matrix(1,0,0,1,361,392.6666666666672) translate(73.95 14.4)"/><path d="M360.33 418h159.34v22.67H360.33z" fill="none"/><use xlink:href="#G" transform="matrix(1,0,0,1,360.33333333333337,418) translate(0 14.4)"/><use xlink:href="#x" transform="matrix(1,0,0,1,360.33333333333337,418) translate(69.95 14.4)"/><use xlink:href="#D" transform="matrix(1,0,0,1,360.33333333333337,418) translate(80.9 14.4)"/><path d="M433 558v-40H300V360.5h40" fill="none"/><path d="M433 558v-2m0-7.96v-3.98m0-7.97v-4m0-7.96v-4m-5.8-2.14h-4m-7.97 0h-3.98m-7.97 0h-3.98m-7.97 0h-3.98m-7.97 0h-3.98m-7.97 0h-4m-7.95 0h-4m-7.96 0h-3.98m-7.97 0h-3.98m-7.98 0h-3.98m-7.97 0h-3.98m-3.7-4.28v-4m0-7.95v-4m0-7.96v-3.97m0-7.97v-3.98m0-7.97v-3.97m0-7.97v-3.98m0-7.97v-3.98m0-7.96v-4m0-7.96v-3.98m0-7.97v-3.98m0-7.97v-3.98m0-7.97v-3.98m0-7.97v-4m2.15-5.8h4m7.95 0h4m7.96 0h3.98m7.97 0h2" stroke="#000" stroke-width="2" fill="none"/><path d="M434 559h-2v-1h2zM341 361.5h-1v-2h1z"/><path d="M1520.4 733.15h320v191.7h-320z" stroke="#000" stroke-width="2" fill="#fff"/><path d="M1665.4 882.93h30v30h-30zm15 5.4v19.2m-9.6-9.6h19.2" stroke="#000" stroke-width="2" fill="none"/><g><use xlink:href="#H" transform="matrix(1,0,0,1,1520.414214,733.1540404040404) translate(8.153148148148128 87.33333333333334)"/><use xlink:href="#I" transform="matrix(1,0,0,1,1520.414214,733.1540404040404) translate(107.63462962962963 87.33333333333334)"/><use xlink:href="#J" transform="matrix(1,0,0,1,1520.414214,733.1540404040404) translate(267.4124074074074 87.33333333333334)"/><use xlink:href="#K" transform="matrix(1,0,0,1,1520.414214,733.1540404040404) translate(43.15314814814813 119.33333333333334)"/><use xlink:href="#L" transform="matrix(1,0,0,1,1520.414214,733.1540404040404) translate(112.56055555555555 119.33333333333334)"/><use xlink:href="#M" transform="matrix(1,0,0,1,1520.414214,733.1540404040404) translate(193.89388888888888 119.33333333333334)"/></g><path class="lucid-link lucid-hotspot lucid-overlay-hotspot" d="M1520.4 733.15h320v191.7h-320z" fill="none"/><path class="lucid-link lucid-hotspot lucid-overlay-hotspot" d="M1665.4 882.93h30v30h-30zm15 5.4v19.2m-9.6-9.6h19.2" fill="none"/><path d="M959.6 829h481.3" fill="none"/><path d="M959.6 829h10m10.04 0h20.06m10.02 0h20.06m10.03 0h20.06m10.03 0h20.05m10.02 0h20.06m10.03 0h20.05m10.04 0h20.05m10.02 0h20.06m10.02 0h20.06m10.03 0h20.04m10.03 0h20.06m10.02 0h20.06m10.04 0h20.05m10.02 0h20.05m10.03 0h20.06m10.02 0h10.03" stroke="#000" stroke-width="2" fill="none"/><path d="M959.6 830h-1v-2h1z"/><path d="M1456.18 829l-14.27 4.64v-9.28z" stroke="#000" stroke-width="2"/><path d="M513 920h198v156H513z" stroke="#000" stroke-width="2" fill="#fff"/><path d="M597 1034.44h30v30h-30zm15 5.4v19.2m-9.6-9.6h19.2" stroke="#000" stroke-width="2" fill="none"/><g><use xlink:href="#N" transform="matrix(1,0,0,1,513,920) translate(8.511172839506182 45.42846577777778)"/><use xlink:href="#O" transform="matrix(1,0,0,1,513,920) translate(52.77043209876544 45.42846577777778)"/><use xlink:href="#P" transform="matrix(1,0,0,1,513,920) translate(51.65932098765432 72.09513244444446)"/><use xlink:href="#Q" transform="matrix(1,0,0,1,513,920) translate(75.05438271604939 72.09513244444446)"/><use xlink:href="#R" transform="matrix(1,0,0,1,513,920) translate(6.5358641975308505 98.76179911111112)"/><use xlink:href="#S" transform="matrix(1,0,0,1,513,920) translate(118.7580864197531 98.76179911111112)"/></g><path d="M613 900.5h-2V755.8h2zm0-166.3h-2v-96.3h2zM613 637.9h-2v-2.4l1 1 1-1zM612 915.76l-4.64-14.26h9.28z"/><path d="M612 919l-6-18.5h12zm-3.26-16.5l3.26 10.03 3.26-10.03z"/><g><use xlink:href="#v" transform="matrix(1,0,0,1,597.325,734.2063229977049) translate(0 14.4)"/></g><path d="M100 200v960h1060V200" stroke="#000" stroke-width="2" fill="none"/><path d="M100 180h1060v40H100z" stroke="#000" stroke-width="2" fill="#fff"/><g><use xlink:href="#T" transform="matrix(1,0,0,1,120,180) translate(393.48148148148147 24.88888888888889)"/><use xlink:href="#U" transform="matrix(1,0,0,1,120,180) translate(458.53086419753083 24.88888888888889)"/><use xlink:href="#V" transform="matrix(1,0,0,1,120,180) translate(516.7901234567901 24.88888888888889)"/></g><path d="M1460.4 200v960h460V200" stroke="#000" stroke-width="2" fill="none"/><path d="M1460.4 180h460v40h-460z" stroke="#000" stroke-width="2" fill="#fff"/><g><use xlink:href="#W" transform="matrix(1,0,0,1,1480.414214,180.00000000000006) translate(3.9876543209876445 24.88888888888889)"/><use xlink:href="#X" transform="matrix(1,0,0,1,1480.414214,180.00000000000006) translate(117.85802469135805 24.88888888888889)"/><use xlink:href="#Y" transform="matrix(1,0,0,1,1480.414214,180.00000000000006) translate(195.12962962962968 24.88888888888889)"/><use xlink:href="#Z" transform="matrix(1,0,0,1,1480.414214,180.00000000000006) translate(280.5493827160494 24.88888888888889)"/><use xlink:href="#aa" transform="matrix(1,0,0,1,1480.414214,180.00000000000006) translate(344.17283950617286 24.88888888888889)"/></g><path d="M1459.4 998h-149.2v-1.33h-130.7" fill="none"/><path d="M1459.4 998H1449m-10.42 0h-20.83m-10.42 0h-20.83m-10.42 0h-20.83m-10.42 0H1324m-10.42 0h-3.37v-1.33h-16.12m-10.4 0h-20.85m-10.4 0h-20.85m-10.4 0h-20.85m-10.4 0h-10.43M1459.4 998h3" stroke="#000" stroke-width="2" fill="none"/><path d="M1164.24 996.67l14.26-4.64v9.27z" stroke="#000" stroke-width="2"/><path d="M1319.4 948l36.8 30v70h-92V948z" stroke="#000" stroke-width="2" fill="#fff"/><path d="M1319.4 948v30h36.8z" stroke="#000" stroke-width="2" fill="#fff"/><g><use xlink:href="#ab" transform="matrix(1,0,0,1,1264.207107,978) translate(5.907407407407405 17.77777777777778)"/><use xlink:href="#ac" transform="matrix(1,0,0,1,1264.207107,978) translate(24.395061728395063 44.44444444444444)"/></g><defs><path d="M233-177c-1 41-23 64-60 70L243 0h-38l-65-103H63V0H30v-248c88 3 205-21 203 71zM63-129c60-2 137 13 137-47 0-61-80-42-137-45v92" id="ad"/><path d="M100-194c63 0 86 42 84 106H49c0 40 14 67 53 68 26 1 43-12 49-29l28 8c-11 28-37 45-77 45C44 4 14-33 15-96c1-61 26-98 85-98zm52 81c6-60-76-77-97-28-3 7-6 17-6 28h103" id="ae"/><path d="M96-169c-40 0-48 33-48 73s9 75 48 75c24 0 41-14 43-38l32 2c-6 37-31 61-74 61-59 0-76-41-82-99-10-93 101-131 147-64 4 7 5 14 7 22l-32 3c-4-21-16-35-41-35" id="af"/><path d="M24-231v-30h32v30H24zM24 0v-190h32V0H24" id="ag"/><path d="M108 0H70L1-190h34L89-25l56-165h34" id="ah"/><g id="a"><use transform="matrix(0.06172839506172839,0,0,0.06172839506172839,0,0)" xlink:href="#ad"/><use transform="matrix(0.06172839506172839,0,0,0.06172839506172839,15.987654320987653,0)" xlink:href="#ae"/><use transform="matrix(0.06172839506172839,0,0,0.06172839506172839,28.333333333333332,0)" xlink:href="#af"/><use transform="matrix(0.06172839506172839,0,0,0.06172839506172839,39.44444444444444,0)" xlink:href="#ae"/><use transform="matrix(0.06172839506172839,0,0,0.06172839506172839,51.79012345679012,0)" xlink:href="#ag"/><use transform="matrix(0.06172839506172839,0,0,0.06172839506172839,56.666666666666664,0)" xlink:href="#ah"/><use transform="matrix(0.06172839506172839,0,0,0.06172839506172839,67.77777777777777,0)" xlink:href="#ae"/></g><path d="M615-1102c343 0 484 203 482 560-1 347-147 562-488 562-336 0-475-219-479-562-4-349 156-560 485-560zm-8 989c240 0 301-180 301-429 0-245-55-427-290-427-236 0-299 181-299 427 0 243 61 429 288 429" id="ai"/><path d="M839-1102c70 0 148 7 206 17v167c-112-18-268-36-363 15-129 69-208 203-208 395V0H294c-10-367 32-789-52-1082h171c21 75 41 161 48 250h5c67-152 152-270 373-270" id="aj"/><path d="M865-914c-3-187-2-380-2-570h180v1261c0 76 1 155 6 223H877c-8-49-9-116-10-174h-5C801-44 708 26 530 26c-135 0-234-46-297-139s-95-232-95-419c0-377 131-566 392-566 176 0 271 63 335 184zm-286-51c-222 0-255 197-255 427 0 229 31 425 253 425 237 0 286-195 286-441 0-238-52-411-284-411" id="ak"/><path d="M617-1102c355 0 481 238 477 599H322c5 222 84 388 301 388 144 0 244-59 284-166l158 45C1002-72 854 20 623 20c-342 0-490-220-490-568 0-346 151-554 484-554zm291 461c-18-192-90-328-289-328-194 0-287 128-295 328h584" id="al"/><path d="M334-464v-160h560v160H334" id="am"/><path d="M873-819c-18-114-119-146-250-146-163 0-245 50-245 151 0 151 170 148 294 185 182 54 388 94 388 320 0 240-189 325-439 329-245 4-410-69-454-268l159-31c24 133 136 168 295 165 144-2 270-31 270-171 0-164-195-160-331-202-167-52-350-87-350-299 0-218 173-315 413-313 220 2 373 77 412 260" id="an"/><path d="M745-142h380V0H143v-142h422v-798H246v-142h499v940zM545-1292v-192h200v192H545" id="ao"/><path d="M1048-32c-2 300-135 456-433 456-222-1-358-88-400-267l184-25c22 99 100 157 222 156 184-2 248-125 248-315 0-64 3-133-2-194C807-100 706-13 524-12c-306 0-381-228-381-537 0-318 85-550 400-550 164 0 271 83 325 202h3c1-60 3-134 12-185h171c-13 339-4 702-6 1050zM585-145c210-8 284-178 284-406 0-192-52-331-177-392-33-16-69-22-104-22-223 2-259 184-259 414 0 229 31 415 256 406" id="ap"/><path d="M706-1102c241 0 344 136 343 381V0H868v-695c1-168-57-273-220-268-190 6-283 138-283 336V0H185c-3-360 6-732-6-1082h170c4 54 7 126 8 185h3c63-121 164-204 346-205" id="aq"/><g id="b"><use transform="matrix(0.010850694444444444,0,0,0.010850694444444444,0,0)" xlink:href="#ai"/><use transform="matrix(0.010850694444444444,0,0,0.010850694444444444,13.335503472222221,0)" xlink:href="#aj"/><use transform="matrix(0.010850694444444444,0,0,0.010850694444444444,26.671006944444443,0)" xlink:href="#ak"/><use transform="matrix(0.010850694444444444,0,0,0.010850694444444444,40.006510416666664,0)" xlink:href="#al"/><use transform="matrix(0.010850694444444444,0,0,0.010850694444444444,53.342013888888886,0)" xlink:href="#aj"/><use transform="matrix(0.010850694444444444,0,0,0.010850694444444444,66.67751736111111,0)" xlink:href="#am"/><use transform="matrix(0.010850694444444444,0,0,0.010850694444444444,80.01302083333334,0)" xlink:href="#an"/><use transform="matrix(0.010850694444444444,0,0,0.010850694444444444,93.34852430555557,0)" xlink:href="#ao"/><use transform="matrix(0.010850694444444444,0,0,0.010850694444444444,106.6840277777778,0)" xlink:href="#ap"/><use transform="matrix(0.010850694444444444,0,0,0.010850694444444444,120.01953125000003,0)" xlink:href="#aq"/></g><path d="M145-31C134-9 116 4 85 4 32 4 16-35 15-94c0-59 17-99 70-100 32-1 48 14 60 33 0-11-1-24 2-32h30l-1 268h-32zM93-21c41 0 51-33 51-76s-8-73-50-73c-40 0-46 35-46 75s5 74 45 74" id="ar"/><path d="M84 4C-5 8 30-112 23-190h32v120c0 31 7 50 39 49 72-2 45-101 50-169h31l1 190h-30c-1-10 1-25-2-33-11 22-28 36-60 37" id="as"/><path d="M135-143c-3-34-86-38-87 0 15 53 115 12 119 90S17 21 10-45l28-5c4 36 97 45 98 0-10-56-113-15-118-90-4-57 82-63 122-42 12 7 21 19 24 35" id="at"/><path d="M59-47c-2 24 18 29 38 22v24C64 9 27 4 27-40v-127H5v-23h24l9-43h21v43h35v23H59v120" id="au"/><g id="c"><use transform="matrix(0.06172839506172839,0,0,0.06172839506172839,0,0)" xlink:href="#ad"/><use transform="matrix(0.06172839506172839,0,0,0.06172839506172839,15.987654320987653,0)" xlink:href="#ae"/><use transform="matrix(0.06172839506172839,0,0,0.06172839506172839,28.333333333333332,0)" xlink:href="#ar"/><use transform="matrix(0.06172839506172839,0,0,0.06172839506172839,40.67901234567901,0)" xlink:href="#as"/><use transform="matrix(0.06172839506172839,0,0,0.06172839506172839,53.02469135802469,0)" xlink:href="#ae"/><use transform="matrix(0.06172839506172839,0,0,0.06172839506172839,65.37037037037037,0)" xlink:href="#at"/><use transform="matrix(0.06172839506172839,0,0,0.06172839506172839,76.48148148148148,0)" xlink:href="#au"/></g><path d="M30-248c87 1 191-15 191 75 0 78-77 80-158 76V0H30v-248zm33 125c57 0 124 11 124-50 0-59-68-47-124-48v98" id="av"/><path d="M141-36C126-15 110 5 73 4 37 3 15-17 15-53c-1-64 63-63 125-63 3-35-9-54-41-54-24 1-41 7-42 31l-33-3c5-37 33-52 76-52 45 0 72 20 72 64v82c-1 20 7 32 28 27v20c-31 9-61-2-59-35zM48-53c0 20 12 33 32 33 41-3 63-29 60-74-43 2-92-5-92 41" id="aw"/><path d="M114-163C36-179 61-72 57 0H25l-1-190h30c1 12-1 29 2 39 6-27 23-49 58-41v29" id="ax"/><g id="d"><use transform="matrix(0.06172839506172839,0,0,0.06172839506172839,0,0)" xlink:href="#av"/><use transform="matrix(0.06172839506172839,0,0,0.06172839506172839,14.814814814814813,0)" xlink:href="#aw"/><use transform="matrix(0.06172839506172839,0,0,0.06172839506172839,27.160493827160494,0)" xlink:href="#ax"/><use transform="matrix(0.06172839506172839,0,0,0.06172839506172839,34.50617283950617,0)" xlink:href="#at"/><use transform="matrix(0.06172839506172839,0,0,0.06172839506172839,45.61728395061728,0)" xlink:href="#ae"/></g><g id="e"><use transform="matrix(0.06172839506172839,0,0,0.06172839506172839,0,0)" xlink:href="#ad"/><use transform="matrix(0.06172839506172839,0,0,0.06172839506172839,15.987654320987653,0)" xlink:href="#ae"/><use transform="matrix(0.06172839506172839,0,0,0.06172839506172839,28.333333333333332,0)" xlink:href="#ar"/><use transform="matrix(0.06172839506172839,0,0,0.06172839506172839,40.67901234567901,0)" xlink:href="#as"/><use transform="matrix(0.06172839506172839,0,0,0.06172839506172839,53.02469135802469,0)" xlink:href="#ae"/><use transform="matrix(0.06172839506172839,0,0,0.06172839506172839,65.37037037037037,0)" xlink:href="#at"/><use transform="matrix(0.06172839506172839,0,0,0.06172839506172839,76.48148148148148,0)" xlink:href="#au"/></g><g id="f"><use transform="matrix(0.06172839506172839,0,0,0.06172839506172839,0,0)" xlink:href="#ad"/><use transform="matrix(0.06172839506172839,0,0,0.06172839506172839,15.987654320987653,0)" xlink:href="#ae"/><use transform="matrix(0.06172839506172839,0,0,0.06172839506172839,28.333333333333332,0)" xlink:href="#ar"/><use transform="matrix(0.06172839506172839,0,0,0.06172839506172839,40.67901234567901,0)" xlink:href="#as"/><use transform="matrix(0.06172839506172839,0,0,0.06172839506172839,53.02469135802469,0)" xlink:href="#ae"/><use transform="matrix(0.06172839506172839,0,0,0.06172839506172839,65.37037037037037,0)" xlink:href="#at"/><use transform="matrix(0.06172839506172839,0,0,0.06172839506172839,76.48148148148148,0)" xlink:href="#au"/></g><path d="M117-194c89-4 53 116 60 194h-32v-121c0-31-8-49-39-48C34-167 62-67 57 0H25l-1-190h30c1 10-1 24 2 32 11-22 29-35 61-36" id="ay"/><path d="M24 0v-261h32V0H24" id="az"/><path d="M85-194c31 0 48 13 60 33l-1-100h32l1 261h-30c-2-10 0-23-3-31C134-8 116 4 85 4 32 4 16-35 15-94c0-66 23-100 70-100zm9 24c-40 0-46 34-46 75 0 40 6 74 45 74 42 0 51-32 51-76 0-42-9-74-50-73" id="aA"/><g id="g"><use transform="matrix(0.06172839506172839,0,0,0.06172839506172839,0,0)" xlink:href="#ag"/><use transform="matrix(0.06172839506172839,0,0,0.06172839506172839,4.876543209876543,0)" xlink:href="#ay"/><use transform="matrix(0.06172839506172839,0,0,0.06172839506172839,17.22222222222222,0)" xlink:href="#af"/><use transform="matrix(0.06172839506172839,0,0,0.06172839506172839,28.333333333333332,0)" xlink:href="#az"/><use transform="matrix(0.06172839506172839,0,0,0.06172839506172839,33.20987654320987,0)" xlink:href="#as"/><use transform="matrix(0.06172839506172839,0,0,0.06172839506172839,45.55555555555555,0)" xlink:href="#aA"/><use transform="matrix(0.06172839506172839,0,0,0.06172839506172839,57.90123456790123,0)" xlink:href="#ae"/><use transform="matrix(0.06172839506172839,0,0,0.06172839506172839,70.24691358024691,0)" xlink:href="#at"/></g><path d="M115-194c55 1 70 41 70 98S169 2 115 4C84 4 66-9 55-30l1 105H24l-1-265h31l2 30c10-21 28-34 59-34zm-8 174c40 0 45-34 45-75s-6-73-45-74c-42 0-51 32-51 76 0 43 10 73 51 73" id="aB"/><path d="M101-234c-31-9-42 10-38 44h38v23H63V0H32v-167H5v-23h27c-7-52 17-82 69-68v24" id="aC"/><path d="M106-169C34-169 62-67 57 0H25v-261h32l-1 103c12-21 28-36 61-36 89 0 53 116 60 194h-32v-121c2-32-8-49-39-48" id="aD"/><g id="h"><use transform="matrix(0.06172839506172839,0,0,0.06172839506172839,0,0)" xlink:href="#aB"/><use transform="matrix(0.06172839506172839,0,0,0.06172839506172839,12.345679012345679,0)" xlink:href="#ax"/><use transform="matrix(0.06172839506172839,0,0,0.06172839506172839,19.691358024691358,0)" xlink:href="#ae"/><use transform="matrix(0.06172839506172839,0,0,0.06172839506172839,32.03703703703704,0)" xlink:href="#aC"/><use transform="matrix(0.06172839506172839,0,0,0.06172839506172839,38.20987654320988,0)" xlink:href="#ae"/><use transform="matrix(0.06172839506172839,0,0,0.06172839506172839,50.55555555555556,0)" xlink:href="#au"/><use transform="matrix(0.06172839506172839,0,0,0.06172839506172839,56.7283950617284,0)" xlink:href="#af"/><use transform="matrix(0.06172839506172839,0,0,0.06172839506172839,67.8395061728395,0)" xlink:href="#aD"/></g><path d="M103-251c84 0 111 97 45 133-19 10-37 24-39 52H78c0-63 77-55 77-114 0-30-21-42-52-43-32 0-53 17-56 46l-32-2c7-45 34-72 88-72zM77 0v-35h34V0H77" id="aE"/><g id="i"><use transform="matrix(0.06172839506172839,0,0,0.06172839506172839,0,0)" xlink:href="#aA"/><use transform="matrix(0.06172839506172839,0,0,0.06172839506172839,12.345679012345679,0)" xlink:href="#aw"/><use transform="matrix(0.06172839506172839,0,0,0.06172839506172839,24.691358024691358,0)" xlink:href="#au"/><use transform="matrix(0.06172839506172839,0,0,0.06172839506172839,30.864197530864196,0)" xlink:href="#aw"/><use transform="matrix(0.06172839506172839,0,0,0.06172839506172839,43.20987654320987,0)" xlink:href="#aE"/></g><path d="M205 0l-28-72H64L36 0H1l101-248h38L239 0h-34zm-38-99l-47-123c-12 45-31 82-46 123h93" id="aF"/><path d="M100-194c62-1 85 37 85 99 1 63-27 99-86 99S16-35 15-95c0-66 28-99 85-99zM99-20c44 1 53-31 53-75 0-43-8-75-51-75s-53 32-53 75 10 74 51 75" id="aG"/><path d="M9 0v-24l116-142H16v-24h144v24L44-24h123V0H9" id="aH"/><g id="j"><use transform="matrix(0.06172839506172839,0,0,0.06172839506172839,0,0)" xlink:href="#aC"/><use transform="matrix(0.06172839506172839,0,0,0.06172839506172839,6.172839506172839,0)" xlink:href="#aD"/><use transform="matrix(0.06172839506172839,0,0,0.06172839506172839,18.51851851851852,0)" xlink:href="#ag"/><use transform="matrix(0.06172839506172839,0,0,0.06172839506172839,23.395061728395063,0)" xlink:href="#ax"/><use transform="matrix(0.06172839506172839,0,0,0.06172839506172839,30.74074074074074,0)" xlink:href="#aF"/><use transform="matrix(0.06172839506172839,0,0,0.06172839506172839,45.55555555555556,0)" xlink:href="#as"/><use transform="matrix(0.06172839506172839,0,0,0.06172839506172839,57.901234567901234,0)" xlink:href="#au"/><use transform="matrix(0.06172839506172839,0,0,0.06172839506172839,64.07407407407408,0)" xlink:href="#aD"/><use transform="matrix(0.06172839506172839,0,0,0.06172839506172839,76.41975308641976,0)" xlink:href="#aG"/><use transform="matrix(0.06172839506172839,0,0,0.06172839506172839,88.76543209876544,0)" xlink:href="#ax"/><use transform="matrix(0.06172839506172839,0,0,0.06172839506172839,96.11111111111113,0)" xlink:href="#ag"/><use transform="matrix(0.06172839506172839,0,0,0.06172839506172839,100.98765432098767,0)" xlink:href="#aH"/><use transform="matrix(0.06172839506172839,0,0,0.06172839506172839,112.09876543209879,0)" xlink:href="#aw"/><use transform="matrix(0.06172839506172839,0,0,0.06172839506172839,124.44444444444447,0)" xlink:href="#au"/><use transform="matrix(0.06172839506172839,0,0,0.06172839506172839,130.61728395061732,0)" xlink:href="#ag"/><use transform="matrix(0.06172839506172839,0,0,0.06172839506172839,135.49382716049385,0)" xlink:href="#aG"/><use transform="matrix(0.06172839506172839,0,0,0.06172839506172839,147.83950617283952,0)" xlink:href="#ay"/></g><g id="k"><use transform="matrix(0.06172839506172839,0,0,0.06172839506172839,0,0)" xlink:href="#aw"/><use transform="matrix(0.06172839506172839,0,0,0.06172839506172839,12.345679012345679,0)" xlink:href="#af"/><use transform="matrix(0.06172839506172839,0,0,0.06172839506172839,23.45679012345679,0)" xlink:href="#af"/><use transform="matrix(0.06172839506172839,0,0,0.06172839506172839,34.5679012345679,0)" xlink:href="#ae"/><use transform="matrix(0.06172839506172839,0,0,0.06172839506172839,46.913580246913575,0)" xlink:href="#at"/><use transform="matrix(0.06172839506172839,0,0,0.06172839506172839,58.02469135802468,0)" xlink:href="#at"/></g><path d="M143 0L79-87 56-68V0H24v-261h32v163l83-92h37l-77 82L181 0h-38" id="aI"/><g id="l"><use transform="matrix(0.06172839506172839,0,0,0.06172839506172839,0,0)" xlink:href="#au"/><use transform="matrix(0.06172839506172839,0,0,0.06172839506172839,6.172839506172839,0)" xlink:href="#aG"/><use transform="matrix(0.06172839506172839,0,0,0.06172839506172839,18.51851851851852,0)" xlink:href="#aI"/><use transform="matrix(0.06172839506172839,0,0,0.06172839506172839,29.62962962962963,0)" xlink:href="#ae"/><use transform="matrix(0.06172839506172839,0,0,0.06172839506172839,41.97530864197531,0)" xlink:href="#ay"/><use transform="matrix(0.06172839506172839,0,0,0.06172839506172839,54.32098765432099,0)" xlink:href="#aE"/></g><path d="M190 0L58-211 59 0H30v-248h39L202-35l-2-213h31V0h-41" id="aJ"/><g id="m"><use transform="matrix(0.05,0,0,0.05,0,0)" xlink:href="#aJ"/><use transform="matrix(0.05,0,0,0.05,12.950000000000001,0)" xlink:href="#aG"/></g><path d="M185-189c-5-48-123-54-124 2 14 75 158 14 163 119 3 78-121 87-175 55-17-10-28-26-33-46l33-7c5 56 141 63 141-1 0-78-155-14-162-118-5-82 145-84 179-34 5 7 8 16 11 25" id="aK"/><g id="n"><use transform="matrix(0.06172839506172839,0,0,0.06172839506172839,0,0)" xlink:href="#aK"/><use transform="matrix(0.06172839506172839,0,0,0.06172839506172839,14.814814814814813,0)" xlink:href="#au"/><use transform="matrix(0.06172839506172839,0,0,0.06172839506172839,20.98765432098765,0)" xlink:href="#aG"/><use transform="matrix(0.06172839506172839,0,0,0.06172839506172839,33.33333333333333,0)" xlink:href="#aB"/></g><path d="M143 4C61 4 22-44 18-125c-5-107 100-154 193-111 17 8 29 25 37 43l-32 9c-13-25-37-40-76-40-61 0-88 39-88 99 0 61 29 100 91 101 35 0 62-11 79-27v-45h-74v-28h105v86C228-13 192 4 143 4" id="aL"/><g id="o"><use transform="matrix(0.06172839506172839,0,0,0.06172839506172839,0,0)" xlink:href="#aL"/><use transform="matrix(0.06172839506172839,0,0,0.06172839506172839,17.28395061728395,0)" xlink:href="#ae"/><use transform="matrix(0.06172839506172839,0,0,0.06172839506172839,29.629629629629626,0)" xlink:href="#au"/></g><g id="p"><use transform="matrix(0.06172839506172839,0,0,0.06172839506172839,0,0)" xlink:href="#aB"/><use transform="matrix(0.06172839506172839,0,0,0.06172839506172839,12.345679012345679,0)" xlink:href="#ax"/><use transform="matrix(0.06172839506172839,0,0,0.06172839506172839,19.691358024691358,0)" xlink:href="#ae"/><use transform="matrix(0.06172839506172839,0,0,0.06172839506172839,32.03703703703704,0)" xlink:href="#aC"/><use transform="matrix(0.06172839506172839,0,0,0.06172839506172839,38.20987654320988,0)" xlink:href="#ae"/><use transform="matrix(0.06172839506172839,0,0,0.06172839506172839,50.55555555555556,0)" xlink:href="#au"/><use transform="matrix(0.06172839506172839,0,0,0.06172839506172839,56.7283950617284,0)" xlink:href="#af"/><use transform="matrix(0.06172839506172839,0,0,0.06172839506172839,67.8395061728395,0)" xlink:href="#aD"/></g><g id="q"><use transform="matrix(0.06172839506172839,0,0,0.06172839506172839,0,0)" xlink:href="#aA"/><use transform="matrix(0.06172839506172839,0,0,0.06172839506172839,12.345679012345679,0)" xlink:href="#aw"/><use transform="matrix(0.06172839506172839,0,0,0.06172839506172839,24.691358024691358,0)" xlink:href="#au"/><use transform="matrix(0.06172839506172839,0,0,0.06172839506172839,30.864197530864196,0)" xlink:href="#aw"/></g><path d="M210-169c-67 3-38 105-44 169h-31v-121c0-29-5-50-35-48C34-165 62-65 56 0H25l-1-190h30c1 10-1 24 2 32 10-44 99-50 107 0 11-21 27-35 58-36 85-2 47 119 55 194h-31v-121c0-29-5-49-35-48" id="aM"/><g id="r"><use transform="matrix(0.06172839506172839,0,0,0.06172839506172839,0,0)" xlink:href="#aC"/><use transform="matrix(0.06172839506172839,0,0,0.06172839506172839,6.172839506172839,0)" xlink:href="#ax"/><use transform="matrix(0.06172839506172839,0,0,0.06172839506172839,13.518518518518519,0)" xlink:href="#aG"/><use transform="matrix(0.06172839506172839,0,0,0.06172839506172839,25.864197530864196,0)" xlink:href="#aM"/></g><path d="M30 0v-248h187v28H63v79h144v27H63v87h162V0H30" id="aN"/><path d="M197 0v-115H63V0H30v-248h33v105h134v-105h34V0h-34" id="aO"/><g id="s"><use transform="matrix(0.06172839506172839,0,0,0.06172839506172839,0,0)" xlink:href="#aN"/><use transform="matrix(0.06172839506172839,0,0,0.06172839506172839,14.814814814814813,0)" xlink:href="#aO"/><use transform="matrix(0.06172839506172839,0,0,0.06172839506172839,30.80246913580247,0)" xlink:href="#ad"/></g><path d="M63-220v92h138v28H63V0H30v-248h175v28H63" id="aP"/><path d="M33 0v-248h34V0H33" id="aQ"/><g id="t"><use transform="matrix(0.06172839506172839,0,0,0.06172839506172839,0,0)" xlink:href="#aP"/><use transform="matrix(0.06172839506172839,0,0,0.06172839506172839,13.518518518518517,0)" xlink:href="#aO"/><use transform="matrix(0.06172839506172839,0,0,0.06172839506172839,29.50617283950617,0)" xlink:href="#aQ"/><use transform="matrix(0.06172839506172839,0,0,0.06172839506172839,35.67901234567901,0)" xlink:href="#ad"/></g><g id="u"><use transform="matrix(0.06172839506172839,0,0,0.06172839506172839,0,0)" xlink:href="#at"/><use transform="matrix(0.06172839506172839,0,0,0.06172839506172839,11.11111111111111,0)" xlink:href="#ae"/><use transform="matrix(0.06172839506172839,0,0,0.06172839506172839,23.45679012345679,0)" xlink:href="#ax"/><use transform="matrix(0.06172839506172839,0,0,0.06172839506172839,30.80246913580247,0)" xlink:href="#ah"/><use transform="matrix(0.06172839506172839,0,0,0.06172839506172839,41.91358024691358,0)" xlink:href="#ae"/><use transform="matrix(0.06172839506172839,0,0,0.06172839506172839,54.25925925925926,0)" xlink:href="#ax"/></g><path d="M137-103V0h-34v-103L8-248h37l75 118 75-118h37" id="aR"/><g id="v"><use transform="matrix(0.05,0,0,0.05,0,0)" xlink:href="#aR"/><use transform="matrix(0.05,0,0,0.05,10.35,0)" xlink:href="#ae"/><use transform="matrix(0.05,0,0,0.05,20.35,0)" xlink:href="#at"/></g><g id="w"><use transform="matrix(0.05,0,0,0.05,0,0)" xlink:href="#aD"/><use transform="matrix(0.05,0,0,0.05,10,0)" xlink:href="#aG"/><use transform="matrix(0.05,0,0,0.05,20,0)" xlink:href="#aG"/><use transform="matrix(0.05,0,0,0.05,30,0)" xlink:href="#aI"/></g><path d="M16-82v-28h88v28H16" id="aS"/><use transform="matrix(0.05,0,0,0.05,0,0)" xlink:href="#aS" id="x"/><g id="y"><use transform="matrix(0.05,0,0,0.05,0,0)" xlink:href="#ax"/><use transform="matrix(0.05,0,0,0.05,5.95,0)" xlink:href="#ae"/><use transform="matrix(0.05,0,0,0.05,15.949999999999998,0)" xlink:href="#ar"/><use transform="matrix(0.05,0,0,0.05,25.950000000000003,0)" xlink:href="#as"/><use transform="matrix(0.05,0,0,0.05,35.95,0)" xlink:href="#ag"/><use transform="matrix(0.05,0,0,0.05,39.900000000000006,0)" xlink:href="#ax"/><use transform="matrix(0.05,0,0,0.05,45.85000000000001,0)" xlink:href="#ae"/><use transform="matrix(0.05,0,0,0.05,55.85,0)" xlink:href="#aA"/></g><g id="z"><use transform="matrix(0.05,0,0,0.05,0,0)" xlink:href="#aD"/><use transform="matrix(0.05,0,0,0.05,10,0)" xlink:href="#aG"/><use transform="matrix(0.05,0,0,0.05,20,0)" xlink:href="#aG"/><use transform="matrix(0.05,0,0,0.05,30,0)" xlink:href="#aI"/><use transform="matrix(0.05,0,0,0.05,39,0)" xlink:href="#aQ"/><use transform="matrix(0.05,0,0,0.05,44,0)" xlink:href="#ay"/><use transform="matrix(0.05,0,0,0.05,54,0)" xlink:href="#at"/><use transform="matrix(0.05,0,0,0.05,63,0)" xlink:href="#au"/><use transform="matrix(0.05,0,0,0.05,68,0)" xlink:href="#aw"/><use transform="matrix(0.05,0,0,0.05,78,0)" xlink:href="#ay"/><use transform="matrix(0.05,0,0,0.05,88,0)" xlink:href="#af"/><use transform="matrix(0.05,0,0,0.05,97,0)" xlink:href="#ae"/></g><g id="A"><use transform="matrix(0.05,0,0,0.05,0,0)" xlink:href="#aC"/><use transform="matrix(0.05,0,0,0.05,5,0)" xlink:href="#aD"/><use transform="matrix(0.05,0,0,0.05,15,0)" xlink:href="#ag"/><use transform="matrix(0.05,0,0,0.05,18.95,0)" xlink:href="#ax"/><use transform="matrix(0.05,0,0,0.05,24.9,0)" xlink:href="#aK"/><use transform="matrix(0.05,0,0,0.05,36.9,0)" xlink:href="#ae"/><use transform="matrix(0.05,0,0,0.05,46.9,0)" xlink:href="#ax"/><use transform="matrix(0.05,0,0,0.05,52.85,0)" xlink:href="#ah"/><use transform="matrix(0.05,0,0,0.05,61.85,0)" xlink:href="#ae"/><use transform="matrix(0.05,0,0,0.05,71.85,0)" xlink:href="#ax"/></g><g id="B"><use transform="matrix(0.05,0,0,0.05,0,0)" xlink:href="#aG"/><use transform="matrix(0.05,0,0,0.05,10,0)" xlink:href="#aB"/><use transform="matrix(0.05,0,0,0.05,20,0)" xlink:href="#au"/><use transform="matrix(0.05,0,0,0.05,25,0)" xlink:href="#ag"/><use transform="matrix(0.05,0,0,0.05,28.950000000000003,0)" xlink:href="#aG"/><use transform="matrix(0.05,0,0,0.05,38.95,0)" xlink:href="#ay"/><use transform="matrix(0.05,0,0,0.05,48.95,0)" xlink:href="#aw"/><use transform="matrix(0.05,0,0,0.05,58.95,0)" xlink:href="#az"/></g><g id="C"><use transform="matrix(0.05,0,0,0.05,0,0)" xlink:href="#aC"/><use transform="matrix(0.05,0,0,0.05,5,0)" xlink:href="#aD"/><use transform="matrix(0.05,0,0,0.05,15,0)" xlink:href="#ag"/><use transform="matrix(0.05,0,0,0.05,18.95,0)" xlink:href="#ax"/><use transform="matrix(0.05,0,0,0.05,24.9,0)" xlink:href="#aF"/><use transform="matrix(0.05,0,0,0.05,36.9,0)" xlink:href="#as"/><use transform="matrix(0.05,0,0,0.05,46.9,0)" xlink:href="#au"/><use transform="matrix(0.05,0,0,0.05,51.900000000000006,0)" xlink:href="#aD"/><use transform="matrix(0.05,0,0,0.05,61.900000000000006,0)" xlink:href="#aG"/><use transform="matrix(0.05,0,0,0.05,71.9,0)" xlink:href="#ax"/><use transform="matrix(0.05,0,0,0.05,77.85000000000001,0)" xlink:href="#ag"/><use transform="matrix(0.05,0,0,0.05,81.80000000000001,0)" xlink:href="#aH"/><use transform="matrix(0.05,0,0,0.05,90.80000000000001,0)" xlink:href="#aw"/><use transform="matrix(0.05,0,0,0.05,100.80000000000001,0)" xlink:href="#au"/><use transform="matrix(0.05,0,0,0.05,105.80000000000001,0)" xlink:href="#ag"/><use transform="matrix(0.05,0,0,0.05,109.75,0)" xlink:href="#aG"/><use transform="matrix(0.05,0,0,0.05,119.75,0)" xlink:href="#ay"/></g><path d="M80-196l47-18 7 23-49 13 32 44-20 13-27-46-27 45-21-12 33-44-49-13 8-23 47 19-2-53h23" id="aT"/><g id="D"><use transform="matrix(0.05,0,0,0.05,0,0)" xlink:href="#aG"/><use transform="matrix(0.05,0,0,0.05,10,0)" xlink:href="#aB"/><use transform="matrix(0.05,0,0,0.05,20,0)" xlink:href="#au"/><use transform="matrix(0.05,0,0,0.05,25,0)" xlink:href="#ag"/><use transform="matrix(0.05,0,0,0.05,28.950000000000003,0)" xlink:href="#aG"/><use transform="matrix(0.05,0,0,0.05,38.95,0)" xlink:href="#ay"/><use transform="matrix(0.05,0,0,0.05,48.95,0)" xlink:href="#aw"/><use transform="matrix(0.05,0,0,0.05,58.95,0)" xlink:href="#az"/><use transform="matrix(0.05,0,0,0.05,62.900000000000006,0)" xlink:href="#aT"/></g><g id="E"><use transform="matrix(0.05,0,0,0.05,0,0)" xlink:href="#as"/><use transform="matrix(0.05,0,0,0.05,10,0)" xlink:href="#at"/><use transform="matrix(0.05,0,0,0.05,19,0)" xlink:href="#ae"/><use transform="matrix(0.05,0,0,0.05,29,0)" xlink:href="#ax"/></g><path d="M141 0L90-78 38 0H4l68-98-65-92h35l48 74 47-74h35l-64 92 68 98h-35" id="aU"/><g id="F"><use transform="matrix(0.05,0,0,0.05,0,0)" xlink:href="#af"/><use transform="matrix(0.05,0,0,0.05,9,0)" xlink:href="#aG"/><use transform="matrix(0.05,0,0,0.05,19,0)" xlink:href="#ay"/><use transform="matrix(0.05,0,0,0.05,29,0)" xlink:href="#au"/><use transform="matrix(0.05,0,0,0.05,34,0)" xlink:href="#ae"/><use transform="matrix(0.05,0,0,0.05,44,0)" xlink:href="#aU"/><use transform="matrix(0.05,0,0,0.05,53,0)" xlink:href="#au"/></g><g id="G"><use transform="matrix(0.05,0,0,0.05,0,0)" xlink:href="#aB"/><use transform="matrix(0.05,0,0,0.05,10,0)" xlink:href="#ax"/><use transform="matrix(0.05,0,0,0.05,15.949999999999998,0)" xlink:href="#ae"/><use transform="matrix(0.05,0,0,0.05,25.950000000000003,0)" xlink:href="#aC"/><use transform="matrix(0.05,0,0,0.05,30.950000000000003,0)" xlink:href="#ae"/><use transform="matrix(0.05,0,0,0.05,40.95,0)" xlink:href="#au"/><use transform="matrix(0.05,0,0,0.05,45.95,0)" xlink:href="#af"/><use transform="matrix(0.05,0,0,0.05,54.95,0)" xlink:href="#aD"/></g><path d="M240 0l2-218c-23 76-54 145-80 218h-23L58-218 59 0H30v-248h44l77 211c21-75 51-140 76-211h43V0h-30" id="aV"/><path d="M127-220V0H93v-220H8v-28h204v28h-85" id="aW"/><g id="H"><use transform="matrix(0.07407407407407408,0,0,0.07407407407407408,0,0)" xlink:href="#aK"/><use transform="matrix(0.07407407407407408,0,0,0.07407407407407408,17.77777777777778,0)" xlink:href="#aV"/><use transform="matrix(0.07407407407407408,0,0,0.07407407407407408,39.92592592592593,0)" xlink:href="#aF"/><use transform="matrix(0.07407407407407408,0,0,0.07407407407407408,57.70370370370371,0)" xlink:href="#ad"/><use transform="matrix(0.07407407407407408,0,0,0.07407407407407408,76.37037037037038,0)" xlink:href="#aW"/></g><g id="I"><use transform="matrix(0.07407407407407408,0,0,0.07407407407407408,0,0)" xlink:href="#aw"/><use transform="matrix(0.07407407407407408,0,0,0.07407407407407408,14.814814814814817,0)" xlink:href="#as"/><use transform="matrix(0.07407407407407408,0,0,0.07407407407407408,29.629629629629633,0)" xlink:href="#au"/><use transform="matrix(0.07407407407407408,0,0,0.07407407407407408,37.03703703703704,0)" xlink:href="#aD"/><use transform="matrix(0.07407407407407408,0,0,0.07407407407407408,51.85185185185186,0)" xlink:href="#aG"/><use transform="matrix(0.07407407407407408,0,0,0.07407407407407408,66.66666666666667,0)" xlink:href="#ax"/><use transform="matrix(0.07407407407407408,0,0,0.07407407407407408,75.4814814814815,0)" xlink:href="#ag"/><use transform="matrix(0.07407407407407408,0,0,0.07407407407407408,81.33333333333334,0)" xlink:href="#aH"/><use transform="matrix(0.07407407407407408,0,0,0.07407407407407408,94.66666666666669,0)" xlink:href="#aw"/><use transform="matrix(0.07407407407407408,0,0,0.07407407407407408,109.4814814814815,0)" xlink:href="#au"/><use transform="matrix(0.07407407407407408,0,0,0.07407407407407408,116.8888888888889,0)" xlink:href="#ag"/><use transform="matrix(0.07407407407407408,0,0,0.07407407407407408,122.74074074074073,0)" xlink:href="#aG"/><use transform="matrix(0.07407407407407408,0,0,0.07407407407407408,137.55555555555557,0)" xlink:href="#ay"/></g><g id="J"><use transform="matrix(0.07407407407407408,0,0,0.07407407407407408,0,0)" xlink:href="#aw"/><use transform="matrix(0.07407407407407408,0,0,0.07407407407407408,14.814814814814817,0)" xlink:href="#ay"/><use transform="matrix(0.07407407407407408,0,0,0.07407407407407408,29.629629629629633,0)" xlink:href="#aA"/></g><g id="K"><use transform="matrix(0.07407407407407408,0,0,0.07407407407407408,0,0)" xlink:href="#aP"/><use transform="matrix(0.07407407407407408,0,0,0.07407407407407408,16.222222222222225,0)" xlink:href="#aO"/><use transform="matrix(0.07407407407407408,0,0,0.07407407407407408,35.40740740740741,0)" xlink:href="#aQ"/><use transform="matrix(0.07407407407407408,0,0,0.07407407407407408,42.814814814814824,0)" xlink:href="#ad"/></g><g id="L"><use transform="matrix(0.07407407407407408,0,0,0.07407407407407408,0,0)" xlink:href="#at"/><use transform="matrix(0.07407407407407408,0,0,0.07407407407407408,13.333333333333336,0)" xlink:href="#ae"/><use transform="matrix(0.07407407407407408,0,0,0.07407407407407408,28.148148148148152,0)" xlink:href="#ax"/><use transform="matrix(0.07407407407407408,0,0,0.07407407407407408,36.96296296296297,0)" xlink:href="#ah"/><use transform="matrix(0.07407407407407408,0,0,0.07407407407407408,50.296296296296305,0)" xlink:href="#ae"/><use transform="matrix(0.07407407407407408,0,0,0.07407407407407408,65.11111111111111,0)" xlink:href="#ax"/></g><g id="M"><use transform="matrix(0.07407407407407408,0,0,0.07407407407407408,0,0)" xlink:href="#aw"/><use transform="matrix(0.07407407407407408,0,0,0.07407407407407408,14.814814814814817,0)" xlink:href="#af"/><use transform="matrix(0.07407407407407408,0,0,0.07407407407407408,28.148148148148152,0)" xlink:href="#af"/><use transform="matrix(0.07407407407407408,0,0,0.07407407407407408,41.48148148148149,0)" xlink:href="#ae"/><use transform="matrix(0.07407407407407408,0,0,0.07407407407407408,56.296296296296305,0)" xlink:href="#at"/><use transform="matrix(0.07407407407407408,0,0,0.07407407407407408,69.62962962962965,0)" xlink:href="#at"/></g><path d="M212-179c-10-28-35-45-73-45-59 0-87 40-87 99 0 60 29 101 89 101 43 0 62-24 78-52l27 14C228-24 195 4 139 4 59 4 22-46 18-125c-6-104 99-153 187-111 19 9 31 26 39 46" id="aX"/><g id="N"><use transform="matrix(0.06172839506172839,0,0,0.06172839506172839,0,0)" xlink:href="#aX"/><use transform="matrix(0.06172839506172839,0,0,0.06172839506172839,15.987654320987653,0)" xlink:href="#aw"/><use transform="matrix(0.06172839506172839,0,0,0.06172839506172839,28.333333333333332,0)" xlink:href="#az"/><use transform="matrix(0.06172839506172839,0,0,0.06172839506172839,33.20987654320987,0)" xlink:href="#az"/></g><path d="M238-179c0 84-86 86-175 82L45 0H11l48-248c82 0 179-12 179 69zm-34 1c0-53-64-42-116-43l-19 98c63 0 135 9 135-55" id="aY"/><path d="M6 0l50-261h32L37 0H6" id="aZ"/><path d="M165-48c-4 18 1 34 23 27l-3 20c-29 8-62 0-52-35h-2C116-14 99 4 63 4 30 4 8-16 8-49c0-68 71-67 138-67 10-26 0-56-31-54-26 1-42 9-47 31l-32-5c8-67 160-71 144 15-5 28-9 54-15 81zM42-50c3 52 80 24 89-6 7-12 7-24 11-38-47 1-103-4-100 44" id="ba"/><path d="M67-158c22-48 132-52 116 29L158 0h-32l25-140c3-38-53-32-70-12C52-117 51-52 38 0H6l36-190h30" id="bb"/><path d="M248-139C247-14 144 9 11 0l48-248c105-6 190 8 189 109zm-34 0c1-70-52-87-126-82L50-27c98 7 163-21 164-112" id="bc"/><path d="M111-194c62-3 86 47 72 106H45c-7 38 6 69 45 68 27-1 43-14 53-32l24 11C152-15 129 4 87 4 38 3 12-23 12-71c0-70 32-119 99-123zm44 81c14-66-71-72-95-28-4 8-8 17-11 28h106" id="bd"/><path d="M76-167L44 0H12l33-167H18l4-23h27c3-47 25-81 82-69l-4 24c-35-8-44 15-46 45h37l-5 23H76" id="be"/><path d="M50-231l6-30h32l-6 30H50zM6 0l37-190h31L37 0H6" id="bf"/><path d="M51-54c-9 22 5 41 31 30L79-1C43 14 10-4 19-52l22-115H19l5-23h22l19-43h21l-9 43h35l-4 23H73" id="bg"/><path d="M30-147c31-64 166-65 159 27C183-49 158 1 86 4 9 8 1-88 30-147zM88-20c53 0 68-48 68-100 0-31-11-51-44-50-52 1-68 46-68 97 0 32 13 53 44 53" id="bh"/><g id="O"><use transform="matrix(0.06172839506172839,0,0,0.06172839506172839,0,0)" xlink:href="#aY"/><use transform="matrix(0.06172839506172839,0,0,0.06172839506172839,14.814814814814813,0)" xlink:href="#aZ"/><use transform="matrix(0.06172839506172839,0,0,0.06172839506172839,19.691358024691354,0)" xlink:href="#ba"/><use transform="matrix(0.06172839506172839,0,0,0.06172839506172839,32.03703703703703,0)" xlink:href="#bb"/><use transform="matrix(0.06172839506172839,0,0,0.06172839506172839,44.38271604938271,0)" xlink:href="#bc"/><use transform="matrix(0.06172839506172839,0,0,0.06172839506172839,60.37037037037036,0)" xlink:href="#bd"/><use transform="matrix(0.06172839506172839,0,0,0.06172839506172839,72.71604938271604,0)" xlink:href="#be"/><use transform="matrix(0.06172839506172839,0,0,0.06172839506172839,78.88888888888887,0)" xlink:href="#bf"/><use transform="matrix(0.06172839506172839,0,0,0.06172839506172839,83.76543209876542,0)" xlink:href="#bb"/><use transform="matrix(0.06172839506172839,0,0,0.06172839506172839,96.1111111111111,0)" xlink:href="#bf"/><use transform="matrix(0.06172839506172839,0,0,0.06172839506172839,100.98765432098764,0)" xlink:href="#bg"/><use transform="matrix(0.06172839506172839,0,0,0.06172839506172839,107.16049382716048,0)" xlink:href="#bf"/><use transform="matrix(0.06172839506172839,0,0,0.06172839506172839,112.03703703703702,0)" xlink:href="#bh"/><use transform="matrix(0.06172839506172839,0,0,0.06172839506172839,124.38271604938271,0)" xlink:href="#bb"/></g><g id="P"><use transform="matrix(0.06172839506172839,0,0,0.06172839506172839,0,0)" xlink:href="#ag"/><use transform="matrix(0.06172839506172839,0,0,0.06172839506172839,4.876543209876543,0)" xlink:href="#ay"/></g><path d="M125-24c46 0 70-25 89-51l25 16C214-24 183 4 123 4 8 4-5-146 60-208c32-50 158-61 191-5 5 7 9 14 11 22l-32 10c-9-28-33-43-69-43-74 0-108 51-108 125 0 46 24 75 72 75" id="bi"/><path d="M44-68c0 29 11 47 38 47 30 0 42-19 51-41l28 9C148-21 126 4 82 4 31 4 10-29 12-85c3-77 74-140 146-93 12 8 15 23 18 40l-31 5c-1-22-13-36-36-36-52 0-65 49-65 101" id="bj"/><g id="Q"><use transform="matrix(0.06172839506172839,0,0,0.06172839506172839,0,0)" xlink:href="#bi"/><use transform="matrix(0.06172839506172839,0,0,0.06172839506172839,15.987654320987653,0)" xlink:href="#aZ"/><use transform="matrix(0.06172839506172839,0,0,0.06172839506172839,20.864197530864196,0)" xlink:href="#bf"/><use transform="matrix(0.06172839506172839,0,0,0.06172839506172839,25.74074074074074,0)" xlink:href="#bb"/><use transform="matrix(0.06172839506172839,0,0,0.06172839506172839,38.08641975308642,0)" xlink:href="#bf"/><use transform="matrix(0.06172839506172839,0,0,0.06172839506172839,42.96296296296296,0)" xlink:href="#bj"/><use transform="matrix(0.06172839506172839,0,0,0.06172839506172839,54.074074074074076,0)" xlink:href="#ba"/><use transform="matrix(0.06172839506172839,0,0,0.06172839506172839,66.41975308641976,0)" xlink:href="#aZ"/></g><path d="M249-183c0 48-29 72-75 77L221 0h-36l-43-103H65L45 0H11l48-248c83 2 190-17 190 65zm-34 3c0-55-74-39-127-41l-18 92c63-1 145 13 145-51" id="bk"/><path d="M55-144c13 50 104 24 104 88C159 21 15 23 1-39l26-10c6 40 102 42 102-4-13-50-104-23-104-87 0-71 143-71 148-8l-29 4c-5-35-85-37-89 0" id="bl"/><path d="M103-194c29 0 47 14 56 36 2-11 5-23 8-32h30L160-5C157 61 82 97 21 62 9 55 4 45 1 30l28-7c7 42 83 31 92-3 4-16 9-38 13-55-13 20-29 36-62 36-40 0-60-25-60-64 0-71 23-131 91-131zm4 24c-53 0-58 54-61 104-2 27 10 44 36 44 49 0 65-50 67-102 1-29-15-46-42-46" id="bm"/><g id="R"><use transform="matrix(0.06172839506172839,0,0,0.06172839506172839,0,0)" xlink:href="#bk"/><use transform="matrix(0.06172839506172839,0,0,0.06172839506172839,15.987654320987653,0)" xlink:href="#bd"/><use transform="matrix(0.06172839506172839,0,0,0.06172839506172839,28.333333333333332,0)" xlink:href="#ba"/><use transform="matrix(0.06172839506172839,0,0,0.06172839506172839,40.67901234567901,0)" xlink:href="#bl"/><use transform="matrix(0.06172839506172839,0,0,0.06172839506172839,51.79012345679013,0)" xlink:href="#bh"/><use transform="matrix(0.06172839506172839,0,0,0.06172839506172839,64.13580246913581,0)" xlink:href="#bb"/><use transform="matrix(0.06172839506172839,0,0,0.06172839506172839,76.4814814814815,0)" xlink:href="#bf"/><use transform="matrix(0.06172839506172839,0,0,0.06172839506172839,81.35802469135804,0)" xlink:href="#bb"/><use transform="matrix(0.06172839506172839,0,0,0.06172839506172839,93.70370370370372,0)" xlink:href="#bm"/></g><g id="S"><use transform="matrix(0.06172839506172839,0,0,0.06172839506172839,0,0)" xlink:href="#aM"/><use transform="matrix(0.06172839506172839,0,0,0.06172839506172839,18.456790123456788,0)" xlink:href="#aG"/><use transform="matrix(0.06172839506172839,0,0,0.06172839506172839,30.80246913580247,0)" xlink:href="#aA"/><use transform="matrix(0.06172839506172839,0,0,0.06172839506172839,43.148148148148145,0)" xlink:href="#as"/><use transform="matrix(0.06172839506172839,0,0,0.06172839506172839,55.49382716049382,0)" xlink:href="#az"/><use transform="matrix(0.06172839506172839,0,0,0.06172839506172839,60.37037037037037,0)" xlink:href="#ae"/></g><path d="M30-248c118-7 216 8 213 122C240-48 200 0 122 0H30v-248zM63-27c89 8 146-16 146-99s-60-101-146-95v194" id="bn"/><g id="T"><use transform="matrix(0.06790123456790124,0,0,0.06790123456790124,0,0)" xlink:href="#av"/><use transform="matrix(0.06790123456790124,0,0,0.06790123456790124,16.296296296296298,0)" xlink:href="#bn"/><use transform="matrix(0.06790123456790124,0,0,0.06790123456790124,33.88271604938272,0)" xlink:href="#bn"/><use transform="matrix(0.06790123456790124,0,0,0.06790123456790124,51.46913580246915,0)" xlink:href="#aQ"/></g><g id="U"><use transform="matrix(0.06790123456790124,0,0,0.06790123456790124,0,0)" xlink:href="#aX"/><use transform="matrix(0.06790123456790124,0,0,0.06790123456790124,17.58641975308642,0)" xlink:href="#bn"/><use transform="matrix(0.06790123456790124,0,0,0.06790123456790124,35.17283950617284,0)" xlink:href="#aK"/></g><path d="M87 75C49 33 22-17 22-94c0-76 28-126 65-167h31c-38 41-64 92-64 168S80 34 118 75H87" id="bo"/><path d="M33-261c38 41 65 92 65 168S71 34 33 75H2C39 34 66-17 66-93S39-220 2-261h31" id="bp"/><g id="V"><use transform="matrix(0.06790123456790124,0,0,0.06790123456790124,0,0)" xlink:href="#aK"/><use transform="matrix(0.06790123456790124,0,0,0.06790123456790124,16.296296296296298,0)" xlink:href="#ae"/><use transform="matrix(0.06790123456790124,0,0,0.06790123456790124,29.876543209876544,0)" xlink:href="#ax"/><use transform="matrix(0.06790123456790124,0,0,0.06790123456790124,37.95679012345679,0)" xlink:href="#ah"/><use transform="matrix(0.06790123456790124,0,0,0.06790123456790124,50.17901234567901,0)" xlink:href="#ag"/><use transform="matrix(0.06790123456790124,0,0,0.06790123456790124,55.54320987654321,0)" xlink:href="#af"/><use transform="matrix(0.06790123456790124,0,0,0.06790123456790124,67.76543209876543,0)" xlink:href="#ae"/><use transform="matrix(0.06790123456790124,0,0,0.06790123456790124,81.34567901234568,0)" xlink:href="#bo"/><use transform="matrix(0.06790123456790124,0,0,0.06790123456790124,89.42592592592594,0)" xlink:href="#at"/><use transform="matrix(0.06790123456790124,0,0,0.06790123456790124,101.64814814814817,0)" xlink:href="#bp"/></g><g id="W"><use transform="matrix(0.06790123456790124,0,0,0.06790123456790124,0,0)" xlink:href="#aN"/><use transform="matrix(0.06790123456790124,0,0,0.06790123456790124,16.296296296296298,0)" xlink:href="#az"/><use transform="matrix(0.06790123456790124,0,0,0.06790123456790124,21.660493827160497,0)" xlink:href="#ae"/><use transform="matrix(0.06790123456790124,0,0,0.06790123456790124,35.24074074074075,0)" xlink:href="#af"/><use transform="matrix(0.06790123456790124,0,0,0.06790123456790124,47.46296296296297,0)" xlink:href="#au"/><use transform="matrix(0.06790123456790124,0,0,0.06790123456790124,54.253086419753096,0)" xlink:href="#ax"/><use transform="matrix(0.06790123456790124,0,0,0.06790123456790124,62.33333333333334,0)" xlink:href="#aG"/><use transform="matrix(0.06790123456790124,0,0,0.06790123456790124,75.9135802469136,0)" xlink:href="#ay"/><use transform="matrix(0.06790123456790124,0,0,0.06790123456790124,89.49382716049385,0)" xlink:href="#ag"/><use transform="matrix(0.06790123456790124,0,0,0.06790123456790124,94.85802469135805,0)" xlink:href="#af"/></g><g id="X"><use transform="matrix(0.06790123456790124,0,0,0.06790123456790124,0,0)" xlink:href="#aO"/><use transform="matrix(0.06790123456790124,0,0,0.06790123456790124,17.58641975308642,0)" xlink:href="#ae"/><use transform="matrix(0.06790123456790124,0,0,0.06790123456790124,31.16666666666667,0)" xlink:href="#aw"/><use transform="matrix(0.06790123456790124,0,0,0.06790123456790124,44.74691358024692,0)" xlink:href="#az"/><use transform="matrix(0.06790123456790124,0,0,0.06790123456790124,50.111111111111114,0)" xlink:href="#au"/><use transform="matrix(0.06790123456790124,0,0,0.06790123456790124,56.90123456790124,0)" xlink:href="#aD"/></g><g id="Y"><use transform="matrix(0.06790123456790124,0,0,0.06790123456790124,0,0)" xlink:href="#ad"/><use transform="matrix(0.06790123456790124,0,0,0.06790123456790124,17.58641975308642,0)" xlink:href="#ae"/><use transform="matrix(0.06790123456790124,0,0,0.06790123456790124,31.16666666666667,0)" xlink:href="#af"/><use transform="matrix(0.06790123456790124,0,0,0.06790123456790124,43.38888888888889,0)" xlink:href="#aG"/><use transform="matrix(0.06790123456790124,0,0,0.06790123456790124,56.96913580246914,0)" xlink:href="#ax"/><use transform="matrix(0.06790123456790124,0,0,0.06790123456790124,65.0493827160494,0)" xlink:href="#aA"/></g><g id="Z"><use transform="matrix(0.06790123456790124,0,0,0.06790123456790124,0,0)" xlink:href="#aP"/><use transform="matrix(0.06790123456790124,0,0,0.06790123456790124,14.870370370370372,0)" xlink:href="#aO"/><use transform="matrix(0.06790123456790124,0,0,0.06790123456790124,32.45679012345679,0)" xlink:href="#aQ"/><use transform="matrix(0.06790123456790124,0,0,0.06790123456790124,39.24691358024692,0)" xlink:href="#ad"/></g><g id="aa"><use transform="matrix(0.06790123456790124,0,0,0.06790123456790124,0,0)" xlink:href="#aK"/><use transform="matrix(0.06790123456790124,0,0,0.06790123456790124,16.296296296296298,0)" xlink:href="#ae"/><use transform="matrix(0.06790123456790124,0,0,0.06790123456790124,29.876543209876544,0)" xlink:href="#ax"/><use transform="matrix(0.06790123456790124,0,0,0.06790123456790124,37.95679012345679,0)" xlink:href="#ah"/><use transform="matrix(0.06790123456790124,0,0,0.06790123456790124,50.17901234567901,0)" xlink:href="#ae"/><use transform="matrix(0.06790123456790124,0,0,0.06790123456790124,63.75925925925926,0)" xlink:href="#ax"/></g><g id="ab"><use transform="matrix(0.06172839506172839,0,0,0.06172839506172839,0,0)" xlink:href="#aB"/><use transform="matrix(0.06172839506172839,0,0,0.06172839506172839,12.345679012345679,0)" xlink:href="#ax"/><use transform="matrix(0.06172839506172839,0,0,0.06172839506172839,19.691358024691358,0)" xlink:href="#ae"/><use transform="matrix(0.06172839506172839,0,0,0.06172839506172839,32.03703703703704,0)" xlink:href="#aC"/><use transform="matrix(0.06172839506172839,0,0,0.06172839506172839,38.20987654320988,0)" xlink:href="#ae"/><use transform="matrix(0.06172839506172839,0,0,0.06172839506172839,50.55555555555556,0)" xlink:href="#au"/><use transform="matrix(0.06172839506172839,0,0,0.06172839506172839,56.7283950617284,0)" xlink:href="#af"/><use transform="matrix(0.06172839506172839,0,0,0.06172839506172839,67.8395061728395,0)" xlink:href="#aD"/></g><g id="ac"><use transform="matrix(0.06172839506172839,0,0,0.06172839506172839,0,0)" xlink:href="#aA"/><use transform="matrix(0.06172839506172839,0,0,0.06172839506172839,12.345679012345679,0)" xlink:href="#aw"/><use transform="matrix(0.06172839506172839,0,0,0.06172839506172839,24.691358024691358,0)" xlink:href="#au"/><use transform="matrix(0.06172839506172839,0,0,0.06172839506172839,30.864197530864196,0)" xlink:href="#aw"/></g></defs></g></svg>